SplineFontDB: 3.0
FontName: Gautami
FullName: Gautami
FamilyName: Gautami
Weight: Book
Copyright: (c) 2015 Microsoft Corporation. All Rights Reserved.
Version: 6.90
ItalicAngle: 0
UnderlinePosition: -744
UnderlineWidth: 96
Ascent: 1638
Descent: 410
InvalidEm: 0
sfntRevision: 0x0006e666
LayerCount: 2
Layer: 0 1 "Back" 1
Layer: 1 1 "Fore" 0
XUID: [1021 641 1576531876 12464]
StyleMap: 0x0040
FSType: 8
OS2Version: 3
OS2_WeightWidthSlopeOnly: 0
OS2_UseTypoMetrics: 0
CreationTime: 899396919
ModificationTime: 1552383040
PfmFamily: 17
TTFWeight: 400
TTFWidth: 5
LineGap: 348
VLineGap: 0
Panose: 2 11 5 2 4 2 4 2 2 3
OS2TypoAscent: 1892
OS2TypoAOffset: 0
OS2TypoDescent: -1664
OS2TypoDOffset: 0
OS2TypoLinegap: 348
OS2WinAscent: 1892
OS2WinAOffset: 0
OS2WinDescent: 1664
OS2WinDOffset: 0
HheadAscent: 1892
HheadAOffset: 0
HheadDescent: -1664
HheadDOffset: 0
OS2SubXSize: 205
OS2SubYSize: 205
OS2SubXOff: 0
OS2SubYOff: 240
OS2SupXSize: 205
OS2SupYSize: 205
OS2SupXOff: 0
OS2SupYOff: 1240
OS2StrikeYSize: 102
OS2StrikeYPos: 652
OS2CapHeight: 1353
OS2XHeight: 979
OS2Vendor: 'MS  '
OS2CodePages: 00000001.00000000
OS2UnicodeRanges: 00200003.00000000.00000000.00000000
Lookup: 4 0 1 "'liga' Standard Ligatures lookup 0" { "'liga' Standard Ligatures lookup 0 subtable"  } ['liga' ('DFLT' <'dflt' > 'deva' <'dflt' > 'latn' <'dflt' > 'tel2' <'dflt' > 'telu' <'dflt' > ) ]
Lookup: 4 256 0 "'akhn' Akhand in Telugu lookup 1" { "'akhn' Akhand in Telugu lookup 1 subtable"  } ['akhn' ('telu' <'dflt' > ) ]
Lookup: 4 256 0 "'akhn' Akhand in Telugu2 lookup 2" { "'akhn' Akhand in Telugu2 lookup 2 subtable"  } ['akhn' ('tel2' <'dflt' > ) ]
Lookup: 4 0 0 "'blwf' Below Base Forms in Telugu lookup 3" { "'blwf' Below Base Forms in Telugu lookup 3 subtable"  } ['blwf' ('telu' <'dflt' > ) ]
Lookup: 4 0 0 "'blwf' Below Base Forms in Telugu2 lookup 4" { "'blwf' Below Base Forms in Telugu2 lookup 4 subtable"  } ['blwf' ('tel2' <'dflt' > ) ]

StartChar: .notdef
Encoding: 65536 -1 0
Width: 1024
GlyphClass: 2
Flags: W
LayerCount: 2
Fore
SplineSet
128 0 m 1,0,-1
 128 1000 l 1,1,-1
 896 1000 l 1,2,-1
 896 0 l 1,3,-1
 128 0 l 1,0,-1
256 128 m 1,4,-1
 768 128 l 1,5,-1
 768 872 l 1,6,-1
 256 872 l 1,7,-1
 256 128 l 1,4,-1
EndSplineSet
EndChar

StartChar: exclam
Encoding: 33 33 4
Width: 640
GlyphClass: 2
Flags: W
LayerCount: 2
Fore
SplineSet
216 0 m 1,0,-1
 216 199 l 1,1,-1
 425 199 l 1,2,-1
 425 0 l 1,3,-1
 216 0 l 1,0,-1
408 343 m 1,4,-1
 229 343 l 1,5,-1
 229 1304 l 1,6,-1
 408 1304 l 1,7,-1
 408 343 l 1,4,-1
EndSplineSet
EndChar

StartChar: quotedbl
Encoding: 34 34 5
Width: 1014
GlyphClass: 2
Flags: W
LayerCount: 2
Fore
SplineSet
427 1495 m 1,0,-1
 377 1068 l 1,1,-1
 262 1068 l 1,2,-1
 211 1495 l 1,3,-1
 427 1495 l 1,0,-1
801 1495 m 1,4,-1
 751 1068 l 1,5,-1
 636 1068 l 1,6,-1
 585 1495 l 1,7,-1
 801 1495 l 1,4,-1
EndSplineSet
EndChar

StartChar: numbersign
Encoding: 35 35 6
Width: 1602
GlyphClass: 2
Flags: W
LayerCount: 2
Fore
SplineSet
1134 821 m 1,0,-1
 1057 518 l 1,1,-1
 1302 518 l 1,2,-1
 1270 364 l 1,3,-1
 1019 364 l 1,4,-1
 929 0 l 1,5,-1
 769 0 l 1,6,-1
 858 364 l 1,7,-1
 591 364 l 1,8,-1
 501 0 l 1,9,-1
 342 0 l 1,10,-1
 434 364 l 1,11,-1
 192 364 l 1,12,-1
 223 518 l 1,13,-1
 471 518 l 1,14,-1
 549 821 l 1,15,-1
 299 821 l 1,16,-1
 330 975 l 1,17,-1
 586 975 l 1,18,-1
 677 1340 l 1,19,-1
 836 1340 l 1,20,-1
 745 975 l 1,21,-1
 1012 975 l 1,22,-1
 1101 1340 l 1,23,-1
 1262 1340 l 1,24,-1
 1174 975 l 1,25,-1
 1411 975 l 1,26,-1
 1380 821 l 1,27,-1
 1134 821 l 1,0,-1
708 823 m 1,28,-1
 630 517 l 1,29,-1
 896 517 l 1,30,-1
 974 823 l 1,31,-1
 708 823 l 1,28,-1
EndSplineSet
EndChar

StartChar: dollar
Encoding: 36 36 7
Width: 1051
GlyphClass: 2
Flags: W
LayerCount: 2
Fore
SplineSet
573 771 m 1,0,1
 803 723 803 723 884 633 c 0,2,3
 966 543 966 543 966 389 c 0,4,5
 966 228 966 228 861 108 c 0,6,7
 758 -10 758 -10 573 -22 c 1,8,-1
 573 -164 l 1,9,-1
 475 -164 l 1,10,-1
 475 -24 l 1,11,12
 97 18 97 18 72 382 c 1,13,-1
 251 382 l 1,14,15
 271 152 271 152 475 117 c 1,16,-1
 475 632 l 1,17,18
 100 708 100 708 100 997 c 0,19,20
 100 1159 100 1159 201 1260 c 0,21,22
 304 1360 304 1360 475 1376 c 1,23,-1
 475 1517 l 1,24,-1
 573 1517 l 1,25,-1
 573 1376 l 1,26,27
 901 1350 901 1350 934 1040 c 1,28,-1
 753 1040 l 1,29,30
 739 1212 739 1212 573 1235 c 1,31,-1
 573 771 l 1,0,1
475 791 m 1,32,-1
 475 1237 l 1,33,34
 280 1204 280 1204 280 1011 c 0,35,36
 280 908 280 908 333 861 c 0,37,38
 360 837 360 837 395 820 c 128,-1,39
 430 803 430 803 475 791 c 1,32,-1
573 117 m 1,40,41
 786 142 786 142 786 378 c 0,42,43
 786 476 786 476 742 526 c 0,44,45
 699 577 699 577 573 611 c 1,46,-1
 573 117 l 1,40,41
EndSplineSet
EndChar

StartChar: percent
Encoding: 37 37 8
Width: 1602
GlyphClass: 2
Flags: W
LayerCount: 2
Fore
SplineSet
1172 162 m 256,0,1
 1172 214 1172 214 1140 253.5 c 128,-1,2
 1108 293 1108 293 1061 293 c 256,3,4
 1014 293 1014 293 982.5 253.5 c 128,-1,5
 951 214 951 214 951 162 c 256,6,7
 951 110 951 110 982.5 71 c 128,-1,8
 1014 32 1014 32 1061 32 c 256,9,10
 1108 32 1108 32 1140 71 c 128,-1,11
 1172 110 1172 110 1172 162 c 256,0,1
653 1038 m 256,12,13
 653 1090 653 1090 621 1129 c 128,-1,14
 589 1168 589 1168 542 1168 c 256,15,16
 495 1168 495 1168 463.5 1129 c 128,-1,17
 432 1090 432 1090 432 1038 c 256,18,19
 432 986 432 986 463.5 946.5 c 128,-1,20
 495 907 495 907 542 907 c 256,21,22
 589 907 589 907 621 946.5 c 128,-1,23
 653 986 653 986 653 1038 c 256,12,13
1303 162 m 0,24,25
 1303 55 1303 55 1232 -22 c 128,-1,26
 1161 -99 1161 -99 1061 -99 c 256,27,28
 961 -99 961 -99 890.5 -22.5 c 128,-1,29
 820 54 820 54 820 162 c 256,30,31
 820 270 820 270 890.5 347.5 c 128,-1,32
 961 425 961 425 1061 425 c 256,33,34
 1161 425 1161 425 1232 347.5 c 128,-1,35
 1303 270 1303 270 1303 162 c 0,24,25
784 1038 m 0,36,37
 784 930 784 930 713 852.5 c 128,-1,38
 642 775 642 775 542 775 c 256,39,40
 442 775 442 775 371 852.5 c 128,-1,41
 300 930 300 930 300 1038 c 0,42,43
 300 1145 300 1145 371 1222 c 128,-1,44
 442 1299 442 1299 542 1299 c 256,45,46
 642 1299 642 1299 713 1222 c 128,-1,47
 784 1145 784 1145 784 1038 c 0,36,37
215 -15 m 1,48,-1
 1255 1318 l 1,49,-1
 1390 1220 l 1,50,-1
 351 -111 l 1,51,-1
 215 -15 l 1,48,-1
EndSplineSet
EndChar

StartChar: ampersand
Encoding: 38 38 9
Width: 1496
GlyphClass: 2
Flags: W
LayerCount: 2
Fore
SplineSet
1407 117 m 1,0,-1
 1286 -2 l 1,1,-1
 1079 206 l 1,2,3
 895 -31 895 -31 629 -31 c 0,4,5
 435 -31 435 -31 302 91 c 0,6,7
 164 217 164 217 164 409 c 0,8,9
 164 695 164 695 426 852 c 1,10,11
 259 1029 259 1029 259 1154 c 0,12,13
 259 1299 259 1299 360 1391 c 0,14,15
 458 1480 458 1480 604 1480 c 0,16,17
 751 1480 751 1480 851 1391 c 0,18,19
 955 1299 955 1299 955 1154 c 0,20,21
 955 971 955 971 699 815 c 1,22,-1
 1047 467 l 1,23,24
 1097 612 1097 612 1097 812 c 1,25,-1
 1254 812 l 1,26,27
 1254 655 1254 655 1247 593 c 0,28,29
 1231 451 1231 451 1174 348 c 1,30,-1
 1407 117 l 1,0,-1
778 1154 m 0,31,32
 778 1232 778 1232 728.5 1276 c 128,-1,33
 679 1320 679 1320 600 1320 c 0,34,35
 435 1320 435 1320 435 1154 c 0,36,37
 435 1079 435 1079 584 939 c 1,38,39
 678 1002 678 1002 708 1030 c 0,40,41
 778 1094 778 1094 778 1154 c 0,31,32
957 326 m 1,42,-1
 545 735 l 1,43,44
 460 680 460 680 403 598 c 0,45,46
 340 506 340 506 340 414 c 0,47,48
 340 283 340 283 420 207.5 c 128,-1,49
 500 132 500 132 629 132 c 0,50,51
 720 132 720 132 824 200 c 0,52,53
 912 259 912 259 957 326 c 1,42,-1
EndSplineSet
EndChar

StartChar: quotesingle
Encoding: 39 39 10
Width: 436
GlyphClass: 2
Flags: W
LayerCount: 2
Fore
SplineSet
326 1495 m 1,0,-1
 276 1068 l 1,1,-1
 161 1068 l 1,2,-1
 110 1495 l 1,3,-1
 326 1495 l 1,0,-1
EndSplineSet
EndChar

StartChar: parenleft
Encoding: 40 40 11
Width: 854
GlyphClass: 2
Flags: W
LayerCount: 2
Fore
SplineSet
337 140 m 128,-1,1
 230 383 230 383 230 641 c 0,2,3
 230 897 230 897 337 1140 c 128,-1,4
 444 1383 444 1383 633 1559 c 1,5,-1
 745 1439 l 1,6,7
 594 1280 594 1280 511.5 1070.5 c 128,-1,8
 429 861 429 861 429 641 c 0,9,10
 429 416 429 416 510 212 c 0,11,12
 595 0 595 0 753 -150 c 1,13,-1
 633 -280 l 1,14,0
 444 -103 444 -103 337 140 c 128,-1,1
EndSplineSet
EndChar

StartChar: parenright
Encoding: 41 41 12
Width: 854
GlyphClass: 2
Flags: W
LayerCount: 2
Fore
SplineSet
530 657 m 0,1,2
 530 1064 530 1064 272 1442 c 1,3,-1
 419 1546 l 1,4,5
 729 1106 729 1106 729 656 c 0,6,7
 729 424 729 424 632 169 c 0,8,9
 541 -70 541 -70 390 -267 c 1,10,-1
 248 -163 l 1,11,0
 530 235 530 235 530 657 c 0,1,2
EndSplineSet
EndChar

StartChar: asterisk
Encoding: 42 42 13
Width: 1076
GlyphClass: 2
Flags: W
LayerCount: 2
Fore
SplineSet
564 187 m 1,0,-1
 463 187 l 1,1,-1
 463 461 l 1,2,-1
 257 255 l 1,3,-1
 208 304 l 1,4,-1
 414 510 l 1,5,-1
 140 510 l 1,6,-1
 140 611 l 1,7,-1
 414 611 l 1,8,-1
 208 817 l 1,9,-1
 257 866 l 1,10,-1
 463 660 l 1,11,-1
 463 936 l 1,12,-1
 564 936 l 1,13,-1
 564 660 l 1,14,-1
 770 866 l 1,15,-1
 819 817 l 1,16,-1
 613 611 l 1,17,-1
 889 611 l 1,18,-1
 889 510 l 1,19,-1
 613 510 l 1,20,-1
 819 304 l 1,21,-1
 770 255 l 1,22,-1
 564 461 l 1,23,-1
 564 187 l 1,0,-1
EndSplineSet
EndChar

StartChar: plus
Encoding: 43 43 14
Width: 1282
GlyphClass: 2
Flags: W
LayerCount: 2
Fore
SplineSet
243 490 m 1,0,-1
 243 631 l 1,1,-1
 573 631 l 1,2,-1
 573 983 l 1,3,-1
 710 983 l 1,4,-1
 710 631 l 1,5,-1
 1040 631 l 1,6,-1
 1040 490 l 1,7,-1
 710 490 l 1,8,-1
 710 138 l 1,9,-1
 573 138 l 1,10,-1
 573 490 l 1,11,-1
 243 490 l 1,0,-1
EndSplineSet
EndChar

StartChar: comma
Encoding: 44 44 15
Width: 560
GlyphClass: 2
Flags: W
LayerCount: 2
Fore
SplineSet
396 32 m 2,0,1
 396 12 396 12 388 0 c 2,2,-1
 209 -267 l 1,3,-1
 137 -216 l 1,4,-1
 279 0 l 1,5,-1
 164 0 l 1,6,-1
 164 222 l 1,7,-1
 396 222 l 1,8,-1
 396 32 l 2,0,1
EndSplineSet
EndChar

StartChar: hyphen
Encoding: 45 45 16
AltUni2: 002010.ffffffff.0
Width: 840
GlyphClass: 2
Flags: W
LayerCount: 2
Fore
SplineSet
702 561 m 1,0,-1
 138 561 l 1,1,-1
 138 721 l 1,2,-1
 702 721 l 1,3,-1
 702 561 l 1,0,-1
EndSplineSet
EndChar

StartChar: period
Encoding: 46 46 17
Width: 560
GlyphClass: 2
Flags: W
LayerCount: 2
Fore
SplineSet
164 0 m 1,0,-1
 164 222 l 1,1,-1
 396 222 l 1,2,-1
 396 0 l 1,3,-1
 164 0 l 1,0,-1
EndSplineSet
EndChar

StartChar: slash
Encoding: 47 47 18
Width: 1282
GlyphClass: 2
Flags: W
LayerCount: 2
Fore
SplineSet
156 -25 m 1,0,-1
 996 1318 l 1,1,-1
 1131 1230 l 1,2,-1
 292 -111 l 1,3,-1
 156 -25 l 1,0,-1
EndSplineSet
EndChar

StartChar: zero
Encoding: 48 48 19
Width: 1220
GlyphClass: 2
Flags: W
LayerCount: 2
Fore
SplineSet
1151 660 m 256,0,1
 1151 366 1151 366 1026 178 c 0,2,3
 882 -40 882 -40 609 -40 c 256,4,5
 336 -40 336 -40 191 178 c 0,6,7
 65 366 65 366 65 660 c 256,8,9
 65 954 65 954 191 1142 c 0,10,11
 336 1360 336 1360 609 1360 c 256,12,13
 882 1360 882 1360 1026 1142 c 0,14,15
 1151 954 1151 954 1151 660 c 256,0,1
975 660 m 256,16,17
 975 872 975 872 884 1023 c 0,18,19
 781 1193 781 1193 609 1193 c 0,20,21
 436 1193 436 1193 333 1023 c 0,22,23
 241 872 241 872 241 660 c 256,24,25
 241 448 241 448 333 297 c 0,26,27
 436 127 436 127 609 127 c 0,28,29
 781 127 781 127 884 297 c 0,30,31
 975 448 975 448 975 660 c 256,16,17
EndSplineSet
EndChar

StartChar: one
Encoding: 49 49 20
Width: 854
GlyphClass: 2
Flags: W
LayerCount: 2
Fore
SplineSet
569 1320 m 1,0,-1
 569 0 l 1,1,-1
 390 0 l 1,2,-1
 390 1077 l 1,3,-1
 275 963 l 1,4,-1
 170 1077 l 1,5,-1
 413 1320 l 1,6,-1
 569 1320 l 1,0,-1
EndSplineSet
EndChar

StartChar: two
Encoding: 50 50 21
Width: 1174
GlyphClass: 2
Flags: W
LayerCount: 2
Fore
SplineSet
198 89 m 0,1,2
 198 366 198 366 352 545 c 0,3,4
 409 612 409 612 638 775 c 0,5,6
 792 885 792 885 792 994 c 0,7,8
 792 1191 792 1191 585 1191 c 0,9,10
 395 1191 395 1191 292 1029 c 1,11,-1
 180 1141 l 1,12,13
 254 1263 254 1263 389 1320 c 0,14,15
 486 1360 486 1360 585 1360 c 0,16,17
 751 1360 751 1360 859 1264 c 0,18,19
 972 1163 972 1163 972 994 c 0,20,21
 972 824 972 824 819 695 c 1,22,23
 676 590 676 590 533 485 c 1,24,25
 380 351 380 351 380 167 c 1,26,-1
 961 167 l 1,27,-1
 961 0 l 1,28,-1
 202 0 l 1,29,0
 198 46 198 46 198 89 c 0,1,2
EndSplineSet
EndChar

StartChar: three
Encoding: 51 51 22
Width: 1174
GlyphClass: 2
Flags: W
LayerCount: 2
Fore
SplineSet
529 128 m 0,1,2
 645 128 645 128 726 208 c 0,3,4
 799 280 799 280 799 359 c 0,5,6
 799 479 799 479 725.5 547 c 128,-1,7
 652 615 652 615 521 615 c 2,8,-1
 417 615 l 1,9,-1
 417 784 l 1,10,-1
 516 784 l 2,11,12
 606 784 606 784 666 842.5 c 128,-1,13
 726 901 726 901 726 990 c 0,14,15
 726 1082 726 1082 671 1138.5 c 128,-1,16
 616 1195 616 1195 530 1195 c 0,17,18
 476 1195 476 1195 399 1171 c 0,19,20
 328 1149 328 1149 289 1125 c 1,21,-1
 289 1292 l 1,22,23
 411 1360 411 1360 534 1360 c 0,24,25
 684 1360 684 1360 789 1258 c 0,26,27
 898 1153 898 1153 898 998 c 0,28,29
 898 816 898 816 761 709 c 1,30,31
 975 608 975 608 975 352 c 0,32,33
 975 214 975 214 862 96 c 0,34,35
 731 -40 731 -40 529 -40 c 0,36,37
 335 -40 335 -40 178 68 c 1,38,-1
 178 242 l 1,39,0
 358 128 358 128 529 128 c 0,1,2
EndSplineSet
EndChar

StartChar: four
Encoding: 52 52 23
Width: 1174
GlyphClass: 2
Flags: W
LayerCount: 2
Fore
SplineSet
657 558 m 1,0,-1
 657 1041 l 1,1,-1
 316 558 l 1,2,-1
 657 558 l 1,0,-1
1068 390 m 1,3,-1
 833 390 l 1,4,-1
 833 0 l 1,5,-1
 657 0 l 1,6,-1
 657 390 l 1,7,-1
 114 390 l 1,8,-1
 114 558 l 1,9,-1
 657 1320 l 1,10,-1
 833 1320 l 1,11,-1
 833 558 l 1,12,-1
 1068 558 l 1,13,-1
 1068 390 l 1,3,-1
EndSplineSet
EndChar

StartChar: five
Encoding: 53 53 24
Width: 1174
GlyphClass: 2
Flags: W
LayerCount: 2
Fore
SplineSet
906 1320 m 1,0,-1
 906 1160 l 1,1,-1
 404 1160 l 1,2,-1
 404 824 l 1,3,-1
 500 824 l 2,4,5
 713 824 713 824 846 699 c 0,6,7
 974 580 974 580 974 403 c 0,8,9
 974 201 974 201 828 75 c 0,10,11
 694 -40 694 -40 506 -40 c 0,12,13
 333 -40 333 -40 192 18 c 1,14,-1
 192 199 l 1,15,16
 333 134 333 134 484 134 c 0,17,18
 603 134 603 134 694 201 c 0,19,20
 798 277 798 277 798 404 c 0,21,22
 798 508 798 508 720 579 c 0,23,24
 635 656 635 656 493 656 c 2,25,-1
 227 656 l 1,26,-1
 227 1320 l 1,27,-1
 906 1320 l 1,0,-1
EndSplineSet
EndChar

StartChar: six
Encoding: 54 54 25
Width: 1174
GlyphClass: 2
Flags: W
LayerCount: 2
Fore
SplineSet
1051 373 m 0,0,1
 1051 202 1051 202 933 81 c 128,-1,2
 815 -40 815 -40 658 -40 c 0,3,4
 414 -40 414 -40 294 199 c 0,5,6
 202 381 202 381 202 643 c 0,7,8
 202 933 202 933 338 1132 c 0,9,10
 495 1360 495 1360 775 1360 c 0,11,12
 849 1360 849 1360 948 1323 c 1,13,-1
 948 1155 l 1,14,15
 856 1192 856 1192 773 1192 c 0,16,17
 584 1192 584 1192 474 1007 c 0,18,19
 382 852 382 852 382 653 c 1,20,21
 507 786 507 786 672 786 c 0,22,23
 831 786 831 786 940 671 c 0,24,25
 1051 553 1051 553 1051 373 c 0,0,1
881 375 m 0,26,27
 881 487 881 487 824 553 c 128,-1,28
 767 619 767 619 669 619 c 0,29,30
 583 619 583 619 505 568 c 0,31,32
 434 523 434 523 397 457 c 1,33,34
 402 332 402 332 465 238 c 0,35,36
 540 128 540 128 661 128 c 0,37,38
 749 128 749 128 815 199 c 128,-1,39
 881 270 881 270 881 375 c 0,26,27
EndSplineSet
EndChar

StartChar: seven
Encoding: 55 55 26
Width: 1174
GlyphClass: 2
Flags: W
LayerCount: 2
Fore
SplineSet
326 506 m 0,1,2
 403 664 403 664 559 858 c 0,3,4
 684 1009 684 1009 809 1160 c 1,5,-1
 214 1160 l 1,6,-1
 214 1320 l 1,7,-1
 1028 1320 l 1,8,-1
 1028 1160 l 1,9,10
 896 1006 896 1006 765 852 c 0,11,12
 596 652 596 652 514 497 c 0,13,14
 403 286 403 286 403 82 c 0,15,16
 403 35 403 35 409 0 c 1,17,-1
 230 0 l 1,18,19
 224 46 224 46 224 82 c 0,20,0
 224 294 224 294 326 506 c 0,1,2
EndSplineSet
EndChar

StartChar: eight
Encoding: 56 56 27
Width: 1174
GlyphClass: 2
Flags: W
LayerCount: 2
Fore
SplineSet
457 898 m 0,1,2
 515 842 515 842 585 806 c 1,3,4
 655 842 655 842 713 898 c 0,5,6
 789 970 789 970 789 1031 c 0,7,8
 789 1116 789 1116 726 1163 c 0,9,10
 670 1204 670 1204 585 1204 c 256,11,12
 500 1204 500 1204 444 1163 c 0,13,14
 381 1116 381 1116 381 1031 c 0,15,0
 381 970 381 970 457 898 c 0,1,2
394 193 m 0,17,18
 465 113 465 113 585 113 c 0,19,20
 706 113 706 113 776 190 c 0,21,22
 835 254 835 254 835 334 c 0,23,24
 835 492 835 492 585 630 c 1,25,26
 335 492 335 492 335 334 c 0,27,16
 335 259 335 259 394 193 c 0,17,18
321 1282 m 0,29,30
 420 1360 420 1360 585 1360 c 256,31,32
 750 1360 750 1360 849 1282 c 0,33,34
 958 1196 958 1196 958 1031 c 0,35,36
 958 858 958 858 743 719 c 1,37,38
 872 632 872 632 923 570 c 0,39,40
 1006 470 1006 470 1006 334 c 0,41,42
 1006 190 1006 190 904 84 c 0,43,44
 786 -40 786 -40 585 -40 c 0,45,46
 383 -40 383 -40 266 81 c 0,47,48
 165 186 165 186 165 334 c 0,49,50
 165 471 165 471 247 571 c 0,51,52
 298 632 298 632 427 719 c 1,53,54
 212 858 212 858 212 1031 c 0,55,28
 212 1196 212 1196 321 1282 c 0,29,30
EndSplineSet
EndChar

StartChar: nine
Encoding: 57 57 28
Width: 1174
GlyphClass: 2
Flags: W
LayerCount: 2
Fore
SplineSet
169 949 m 0,0,1
 169 1121 169 1121 284 1241 c 128,-1,2
 399 1361 399 1361 557 1361 c 0,3,4
 805 1361 805 1361 922 1119 c 0,5,6
 1010 938 1010 938 1010 672 c 0,7,8
 1010 343 1010 343 883 162 c 0,9,10
 742 -38 742 -38 456 -38 c 0,11,12
 331 -38 331 -38 225 15 c 1,13,-1
 225 186 l 1,14,15
 344 130 344 130 458 130 c 0,16,17
 832 130 832 130 832 662 c 1,18,19
 707 529 707 529 543 529 c 0,20,21
 385 529 385 529 277 648.5 c 128,-1,22
 169 768 169 768 169 949 c 0,0,1
334 947 m 0,23,24
 334 836 334 836 393.5 764.5 c 128,-1,25
 453 693 453 693 545 693 c 0,26,27
 633 693 633 693 710 743 c 0,28,29
 784 789 784 789 816 858 c 1,30,31
 811 984 811 984 749 1081 c 0,32,33
 675 1195 675 1195 554 1195 c 0,34,35
 463 1195 463 1195 400 1127 c 0,36,37
 334 1056 334 1056 334 947 c 0,23,24
EndSplineSet
EndChar

StartChar: colon
Encoding: 58 58 29
Width: 560
GlyphClass: 2
Flags: W
LayerCount: 2
Fore
SplineSet
164 588 m 1,0,-1
 164 810 l 1,1,-1
 396 810 l 1,2,-1
 396 588 l 1,3,-1
 164 588 l 1,0,-1
164 0 m 1,4,-1
 164 222 l 1,5,-1
 396 222 l 1,6,-1
 396 0 l 1,7,-1
 164 0 l 1,4,-1
EndSplineSet
EndChar

StartChar: semicolon
Encoding: 59 59 30
Width: 560
GlyphClass: 2
Flags: W
LayerCount: 2
Fore
SplineSet
396 27 m 2,0,1
 396 12 396 12 388 0 c 2,2,-1
 209 -267 l 1,3,-1
 137 -216 l 1,4,-1
 278 0 l 1,5,-1
 164 0 l 1,6,-1
 164 222 l 1,7,-1
 396 222 l 1,8,-1
 396 27 l 2,0,1
164 588 m 1,9,-1
 164 810 l 1,10,-1
 396 810 l 1,11,-1
 396 588 l 1,12,-1
 164 588 l 1,9,-1
EndSplineSet
EndChar

StartChar: less
Encoding: 60 60 31
Width: 1496
GlyphClass: 2
Flags: W
LayerCount: 2
Fore
SplineSet
1237 96 m 1,0,-1
 201 592 l 1,1,-1
 201 712 l 1,2,-1
 1237 1205 l 1,3,-1
 1275 1047 l 1,4,-1
 442 652 l 1,5,-1
 1275 257 l 1,6,-1
 1237 96 l 1,0,-1
EndSplineSet
EndChar

StartChar: equal
Encoding: 61 61 32
Width: 1282
GlyphClass: 2
Flags: W
LayerCount: 2
Fore
SplineSet
961 515 m 1,0,-1
 961 336 l 1,1,-1
 320 336 l 1,2,-1
 320 515 l 1,3,-1
 961 515 l 1,0,-1
961 943 m 1,4,-1
 961 764 l 1,5,-1
 320 764 l 1,6,-1
 320 943 l 1,7,-1
 961 943 l 1,4,-1
EndSplineSet
EndChar

StartChar: greater
Encoding: 62 62 33
Width: 1496
GlyphClass: 2
Flags: W
LayerCount: 2
Fore
SplineSet
221 257 m 1,0,-1
 1054 652 l 1,1,-1
 221 1047 l 1,2,-1
 259 1205 l 1,3,-1
 1295 712 l 1,4,-1
 1295 592 l 1,5,-1
 259 96 l 1,6,-1
 221 257 l 1,0,-1
EndSplineSet
EndChar

StartChar: question
Encoding: 63 63 34
Width: 1174
GlyphClass: 2
Flags: W
LayerCount: 2
Fore
SplineSet
415 0 m 1,0,-1
 415 199 l 1,1,-1
 624 199 l 1,2,-1
 624 0 l 1,3,-1
 415 0 l 1,0,-1
526 815 m 1,5,6
 612 880 612 880 697 946 c 0,7,8
 789 1019 789 1019 789 1140 c 0,9,10
 789 1220 789 1220 715 1278 c 0,11,12
 646 1331 646 1331 564 1331 c 0,13,14
 341 1331 341 1331 341 1075 c 1,15,-1
 173 1075 l 1,16,17
 173 1266 173 1266 275 1381 c 0,18,19
 381 1499 381 1499 564 1499 c 0,20,21
 718 1499 718 1499 841 1397 c 0,22,23
 972 1290 972 1290 972 1139 c 0,24,25
 972 986 972 986 877 886 c 1,26,27
 788 813 788 813 699 740 c 1,28,29
 604 653 604 653 604 529 c 2,30,-1
 604 400 l 1,31,-1
 434 400 l 1,32,-1
 434 529 l 2,33,4
 434 715 434 715 526 815 c 1,5,6
EndSplineSet
EndChar

StartChar: at
Encoding: 64 64 35
Width: 2028
GlyphClass: 2
Flags: W
LayerCount: 2
Fore
SplineSet
1818 705 m 0,0,1
 1818 447 1818 447 1742 284 c 0,2,3
 1650 86 1650 86 1465 86 c 0,4,5
 1344 86 1344 86 1267 178 c 0,6,7
 1212 245 1212 245 1212 285 c 1,8,9
 1104 156 1104 156 944 157 c 0,10,11
 766 158 766 158 655 311 c 0,12,13
 557 445 557 445 557 612 c 0,14,15
 557 792 557 792 661 925 c 0,16,17
 773 1068 773 1068 944 1068 c 0,18,19
 1008 1068 1008 1068 1077 1040 c 0,20,21
 1151 1009 1151 1009 1193 960 c 1,22,-1
 1193 1082 l 1,23,-1
 1352 1082 l 1,24,-1
 1352 370 l 2,25,26
 1352 227 1352 227 1466 227 c 0,27,28
 1560 227 1560 227 1618 352 c 0,29,30
 1680 483 1680 483 1680 705 c 0,31,32
 1680 973 1680 973 1501 1162 c 0,33,34
 1311 1363 1311 1363 1015 1363 c 0,35,36
 732 1363 732 1363 541 1152 c 0,37,38
 353 945 353 945 353 645 c 0,39,40
 353 348 353 348 530 134 c 0,41,42
 720 -94 720 -94 1015 -94 c 0,43,44
 1215 -94 1215 -94 1370 -48 c 1,45,-1
 1370 -190 l 1,46,47
 1216 -226 1216 -226 1015 -226 c 0,48,49
 660 -226 660 -226 430 41 c 0,50,51
 212 293 212 293 212 645 c 0,52,53
 212 996 212 996 439 1245 c 0,54,55
 671 1499 671 1499 1015 1499 c 0,56,57
 1370 1499 1370 1499 1602 1251 c 0,58,59
 1818 1020 1818 1020 1818 705 c 0,0,1
990 919 m 0,60,61
 872 919 872 919 796 821 c 0,62,63
 728 733 728 733 728 618 c 0,64,65
 728 515 728 515 787 426 c 0,66,67
 861 315 861 315 987 315 c 0,68,69
 1084 315 1084 315 1153 404 c 128,-1,70
 1222 493 1222 493 1222 617 c 0,71,72
 1222 763 1222 763 1136 849 c 0,73,74
 1066 919 1066 919 990 919 c 0,60,61
EndSplineSet
EndChar

StartChar: A
Encoding: 65 65 36
Width: 1262
GlyphClass: 2
Flags: W
LayerCount: 2
Fore
SplineSet
852 555 m 1,0,-1
 613 1181 l 1,1,-1
 386 555 l 1,2,-1
 852 555 l 1,0,-1
1264 0 m 1,3,-1
 1061 0 l 1,4,-1
 904 411 l 1,5,-1
 337 411 l 1,6,-1
 188 0 l 1,7,-1
 -1 0 l 1,8,-1
 518 1353 l 1,9,-1
 712 1353 l 1,10,-1
 1264 0 l 1,3,-1
EndSplineSet
EndChar

StartChar: B
Encoding: 66 66 37
Width: 1262
GlyphClass: 2
Flags: W
LayerCount: 2
Fore
SplineSet
1164 394 m 0,0,1
 1164 202 1164 202 1036 101 c 128,-1,2
 908 0 908 0 659 0 c 2,3,-1
 151 0 l 1,4,-1
 151 1353 l 1,5,-1
 632 1353 l 2,6,7
 738 1353 738 1353 824 1329 c 128,-1,8
 910 1305 910 1305 970.5 1260.5 c 128,-1,9
 1031 1216 1031 1216 1064 1152 c 128,-1,10
 1097 1088 1097 1088 1097 1008 c 0,11,12
 1097 908 1097 908 1048.5 837.5 c 128,-1,13
 1000 767 1000 767 902 720 c 1,14,15
 968 704 968 704 1017 672 c 128,-1,16
 1066 640 1066 640 1098.5 597 c 128,-1,17
 1131 554 1131 554 1147.5 502 c 128,-1,18
 1164 450 1164 450 1164 394 c 0,0,1
330 786 m 1,19,-1
 631 786 l 2,20,21
 779 786 779 786 849.5 833.5 c 128,-1,22
 920 881 920 881 920 992 c 0,23,24
 920 1042 920 1042 904 1079.5 c 128,-1,25
 888 1117 888 1117 852 1142 c 128,-1,26
 816 1167 816 1167 757.5 1179.5 c 128,-1,27
 699 1192 699 1192 614 1192 c 2,28,-1
 330 1192 l 1,29,-1
 330 786 l 1,19,-1
330 161 m 1,30,-1
 658 161 l 2,31,32
 978 161 978 161 978 394 c 0,33,34
 978 454 978 454 961.5 498 c 128,-1,35
 945 542 945 542 905 570.5 c 128,-1,36
 865 599 865 599 798.5 613 c 128,-1,37
 732 627 732 627 632 627 c 2,38,-1
 330 627 l 1,39,-1
 330 161 l 1,30,-1
EndSplineSet
EndChar

StartChar: C
Encoding: 67 67 38
Width: 1365
GlyphClass: 2
Flags: W
LayerCount: 2
Fore
SplineSet
1268 943 m 1,0,-1
 1084 943 l 1,1,2
 1080 1007 1080 1007 1050.5 1059 c 128,-1,3
 1021 1111 1021 1111 972.5 1147.5 c 128,-1,4
 924 1184 924 1184 859.5 1203.5 c 128,-1,5
 795 1223 795 1223 721 1223 c 0,6,7
 619 1223 619 1223 536.5 1187.5 c 128,-1,8
 454 1152 454 1152 396 1082.5 c 128,-1,9
 338 1013 338 1013 306.5 911.5 c 128,-1,10
 275 810 275 810 275 678 c 256,11,12
 275 546 275 546 306 444 c 128,-1,13
 337 342 337 342 395 272.5 c 128,-1,14
 453 203 453 203 534 166.5 c 128,-1,15
 615 130 615 130 716 130 c 0,16,17
 795 130 795 130 860.5 149.5 c 128,-1,18
 926 169 926 169 973.5 207.5 c 128,-1,19
 1021 246 1021 246 1049.5 301.5 c 128,-1,20
 1078 357 1078 357 1084 429 c 1,21,-1
 1268 429 l 1,22,23
 1258 321 1258 321 1213.5 237 c 128,-1,24
 1169 153 1169 153 1097 95 c 128,-1,25
 1025 37 1025 37 929 6.5 c 128,-1,26
 833 -24 833 -24 720 -24 c 0,27,28
 575 -24 575 -24 458 25.5 c 128,-1,29
 341 75 341 75 259 166.5 c 128,-1,30
 177 258 177 258 133 387.5 c 128,-1,31
 89 517 89 517 89 678 c 0,32,33
 89 838 89 838 133.5 967.5 c 128,-1,34
 178 1097 178 1097 260.5 1188.5 c 128,-1,35
 343 1280 343 1280 459.5 1329.5 c 128,-1,36
 576 1379 576 1379 720 1379 c 0,37,38
 827 1379 827 1379 922.5 1348 c 128,-1,39
 1018 1317 1018 1317 1091.5 1260 c 128,-1,40
 1165 1203 1165 1203 1211.5 1122.5 c 128,-1,41
 1258 1042 1258 1042 1268 943 c 1,0,-1
EndSplineSet
EndChar

StartChar: D
Encoding: 68 68 39
Width: 1365
GlyphClass: 2
Flags: W
LayerCount: 2
Fore
SplineSet
1270 684 m 0,0,1
 1270 0 1270 0 580 0 c 2,2,-1
 151 0 l 1,3,-1
 151 1353 l 1,4,-1
 580 1353 l 2,5,6
 1270 1353 1270 1353 1270 684 c 0,0,1
1085 684 m 0,7,8
 1085 802 1085 802 1061.5 896.5 c 128,-1,9
 1038 991 1038 991 980.5 1056.5 c 128,-1,10
 923 1122 923 1122 825 1157 c 128,-1,11
 727 1192 727 1192 578 1192 c 2,12,-1
 330 1192 l 1,13,-1
 330 161 l 1,14,-1
 578 161 l 2,15,16
 726 161 726 161 824 196.5 c 128,-1,17
 922 232 922 232 980 299.5 c 128,-1,18
 1038 367 1038 367 1061.5 464 c 128,-1,19
 1085 561 1085 561 1085 684 c 0,7,8
EndSplineSet
EndChar

StartChar: E
Encoding: 69 69 40
Width: 1262
GlyphClass: 2
Flags: W
LayerCount: 2
Fore
SplineSet
1161 0 m 1,0,-1
 151 0 l 1,1,-1
 151 1353 l 1,2,-1
 1131 1353 l 1,3,-1
 1131 1192 l 1,4,-1
 330 1192 l 1,5,-1
 330 781 l 1,6,-1
 1078 781 l 1,7,-1
 1078 620 l 1,8,-1
 330 620 l 1,9,-1
 330 161 l 1,10,-1
 1161 161 l 1,11,-1
 1161 0 l 1,0,-1
EndSplineSet
EndChar

StartChar: F
Encoding: 70 70 41
Width: 1155
GlyphClass: 2
Flags: W
LayerCount: 2
Fore
SplineSet
1065 1192 m 1,0,-1
 330 1192 l 1,1,-1
 330 774 l 1,2,-1
 969 774 l 1,3,-1
 969 613 l 1,4,-1
 330 613 l 1,5,-1
 330 0 l 1,6,-1
 151 0 l 1,7,-1
 151 1353 l 1,8,-1
 1065 1353 l 1,9,-1
 1065 1192 l 1,0,-1
EndSplineSet
EndChar

StartChar: G
Encoding: 71 71 42
Width: 1472
GlyphClass: 2
Flags: W
LayerCount: 2
Fore
SplineSet
743 -24 m 0,0,1
 596 -24 596 -24 475.5 26.5 c 128,-1,2
 355 77 355 77 269 169 c 128,-1,3
 183 261 183 261 136 390.5 c 128,-1,4
 89 520 89 520 89 678 c 0,5,6
 89 838 89 838 136.5 967 c 128,-1,7
 184 1096 184 1096 269.5 1187 c 128,-1,8
 355 1278 355 1278 474 1327.5 c 128,-1,9
 593 1377 593 1377 737 1377 c 0,10,11
 858 1377 858 1377 961.5 1346 c 128,-1,12
 1065 1315 1065 1315 1143 1258.5 c 128,-1,13
 1221 1202 1221 1202 1269 1121.5 c 128,-1,14
 1317 1041 1317 1041 1326 942 c 1,15,-1
 1140 942 l 1,16,17
 1135 1008 1135 1008 1104.5 1060 c 128,-1,18
 1074 1112 1074 1112 1022 1148 c 128,-1,19
 970 1184 970 1184 898.5 1203 c 128,-1,20
 827 1222 827 1222 740 1222 c 0,21,22
 636 1222 636 1222 550.5 1186 c 128,-1,23
 465 1150 465 1150 404 1080.5 c 128,-1,24
 343 1011 343 1011 309 909.5 c 128,-1,25
 275 808 275 808 275 678 c 0,26,27
 275 549 275 549 309 447 c 128,-1,28
 343 345 343 345 404.5 274.5 c 128,-1,29
 466 204 466 204 551.5 167 c 128,-1,30
 637 130 637 130 741 130 c 0,31,32
 890 130 890 130 997.5 178 c 128,-1,33
 1105 226 1105 226 1177 322 c 1,34,-1
 1177 529 l 1,35,-1
 820 529 l 1,36,-1
 820 691 l 1,37,-1
 1352 691 l 1,38,-1
 1352 0 l 1,39,-1
 1223 0 l 1,40,-1
 1177 142 l 1,41,42
 1037 -24 1037 -24 743 -24 c 0,0,1
EndSplineSet
EndChar

StartChar: H
Encoding: 72 72 43
Width: 1365
GlyphClass: 2
Flags: W
LayerCount: 2
Fore
SplineSet
1215 0 m 1,0,-1
 1034 0 l 1,1,-1
 1034 638 l 1,2,-1
 330 638 l 1,3,-1
 330 0 l 1,4,-1
 151 0 l 1,5,-1
 151 1353 l 1,6,-1
 330 1353 l 1,7,-1
 330 798 l 1,8,-1
 1034 798 l 1,9,-1
 1034 1353 l 1,10,-1
 1215 1353 l 1,11,-1
 1215 0 l 1,0,-1
EndSplineSet
EndChar

StartChar: I
Encoding: 73 73 44
Width: 526
GlyphClass: 2
Flags: W
LayerCount: 2
Fore
SplineSet
354 0 m 1,0,-1
 175 0 l 1,1,-1
 175 1353 l 1,2,-1
 354 1353 l 1,3,-1
 354 0 l 1,0,-1
EndSplineSet
EndChar

StartChar: J
Encoding: 74 74 45
Width: 946
GlyphClass: 2
Flags: W
LayerCount: 2
Fore
SplineSet
794 434 m 2,0,1
 794 309 794 309 770 222 c 128,-1,2
 746 135 746 135 699 80.5 c 128,-1,3
 652 26 652 26 580.5 1 c 128,-1,4
 509 -24 509 -24 415 -24 c 0,5,6
 332 -24 332 -24 264.5 2.5 c 128,-1,7
 197 29 197 29 150 77.5 c 128,-1,8
 103 126 103 126 77.5 195 c 128,-1,9
 52 264 52 264 52 350 c 2,10,-1
 52 386 l 1,11,-1
 231 386 l 1,12,13
 231 137 231 137 415 137 c 0,14,15
 462 137 462 137 499 148 c 128,-1,16
 536 159 536 159 561.5 190.5 c 128,-1,17
 587 222 587 222 600.5 278 c 128,-1,18
 614 334 614 334 614 424 c 2,19,-1
 614 1353 l 1,20,-1
 794 1353 l 1,21,-1
 794 434 l 2,0,1
EndSplineSet
EndChar

StartChar: K
Encoding: 75 75 46
Width: 1262
GlyphClass: 2
Flags: W
LayerCount: 2
Fore
SplineSet
1258 0 m 1,0,-1
 1023 0 l 1,1,-1
 541 675 l 1,2,-1
 330 470 l 1,3,-1
 330 0 l 1,4,-1
 151 0 l 1,5,-1
 151 1353 l 1,6,-1
 330 1353 l 1,7,-1
 330 683 l 1,8,-1
 992 1353 l 1,9,-1
 1233 1353 l 1,10,-1
 666 798 l 1,11,-1
 1258 0 l 1,0,-1
EndSplineSet
EndChar

StartChar: L
Encoding: 76 76 47
Width: 1052
GlyphClass: 2
Flags: W
LayerCount: 2
Fore
SplineSet
989 0 m 1,0,-1
 151 0 l 1,1,-1
 151 1353 l 1,2,-1
 330 1353 l 1,3,-1
 330 161 l 1,4,-1
 989 161 l 1,5,-1
 989 0 l 1,0,-1
EndSplineSet
EndChar

StartChar: M
Encoding: 77 77 48
Width: 1576
GlyphClass: 2
Flags: W
LayerCount: 2
Fore
SplineSet
1425 0 m 1,0,-1
 1254 0 l 1,1,-1
 1254 1150 l 1,2,-1
 867 0 l 1,3,-1
 706 0 l 1,4,-1
 321 1150 l 1,5,-1
 321 0 l 1,6,-1
 151 0 l 1,7,-1
 151 1353 l 1,8,-1
 421 1353 l 1,9,-1
 786 225 l 1,10,-1
 1155 1353 l 1,11,-1
 1425 1353 l 1,12,-1
 1425 0 l 1,0,-1
EndSplineSet
EndChar

StartChar: N
Encoding: 78 78 49
Width: 1365
GlyphClass: 2
Flags: W
LayerCount: 2
Fore
SplineSet
1215 0 m 1,0,-1
 1031 0 l 1,1,-1
 321 1067 l 1,2,-1
 321 0 l 1,3,-1
 151 0 l 1,4,-1
 151 1353 l 1,5,-1
 336 1353 l 1,6,-1
 1043 284 l 1,7,-1
 1043 1353 l 1,8,-1
 1215 1353 l 1,9,-1
 1215 0 l 1,0,-1
EndSplineSet
EndChar

StartChar: O
Encoding: 79 79 50
Width: 1472
GlyphClass: 2
Flags: W
LayerCount: 2
Fore
SplineSet
737 1377 m 0,0,1
 878 1377 878 1377 996.5 1326.5 c 128,-1,2
 1115 1276 1115 1276 1201 1184.5 c 128,-1,3
 1287 1093 1287 1093 1335.5 964 c 128,-1,4
 1384 835 1384 835 1384 678 c 0,5,6
 1384 522 1384 522 1336 393 c 128,-1,7
 1288 264 1288 264 1202.5 171.5 c 128,-1,8
 1117 79 1117 79 998 27.5 c 128,-1,9
 879 -24 879 -24 737 -24 c 256,10,11
 595 -24 595 -24 476 27 c 128,-1,12
 357 78 357 78 271 170 c 128,-1,13
 185 262 185 262 137 391.5 c 128,-1,14
 89 521 89 521 89 678 c 0,15,16
 89 836 89 836 137.5 965 c 128,-1,17
 186 1094 186 1094 272.5 1185.5 c 128,-1,18
 359 1277 359 1277 478 1327 c 128,-1,19
 597 1377 597 1377 737 1377 c 0,0,1
736 130 m 256,20,21
 837 130 837 130 922 167 c 128,-1,22
 1007 204 1007 204 1068.5 274.5 c 128,-1,23
 1130 345 1130 345 1164.5 447 c 128,-1,24
 1199 549 1199 549 1199 678 c 256,25,26
 1199 807 1199 807 1164.5 908.5 c 128,-1,27
 1130 1010 1130 1010 1068.5 1079.5 c 128,-1,28
 1007 1149 1007 1149 923 1185.5 c 128,-1,29
 839 1222 839 1222 740 1222 c 0,30,31
 639 1222 639 1222 553.5 1185 c 128,-1,32
 468 1148 468 1148 406 1078 c 128,-1,33
 344 1008 344 1008 309.5 907 c 128,-1,34
 275 806 275 806 275 678 c 0,35,36
 275 549 275 549 309 447 c 128,-1,37
 343 345 343 345 404.5 274.5 c 128,-1,38
 466 204 466 204 550.5 167 c 128,-1,39
 635 130 635 130 736 130 c 256,20,21
EndSplineSet
EndChar

StartChar: P
Encoding: 80 80 51
Width: 1262
GlyphClass: 2
Flags: W
LayerCount: 2
Fore
SplineSet
151 1353 m 1,0,-1
 658 1353 l 2,1,2
 760 1353 760 1353 854 1335.5 c 128,-1,3
 948 1318 948 1318 1020 1273.5 c 128,-1,4
 1092 1229 1092 1229 1135 1152.5 c 128,-1,5
 1178 1076 1178 1076 1178 958 c 0,6,7
 1178 753 1178 753 1048.5 647 c 128,-1,8
 919 541 919 541 670 541 c 2,9,-1
 330 541 l 1,10,-1
 330 0 l 1,11,-1
 151 0 l 1,12,-1
 151 1353 l 1,0,-1
330 702 m 1,13,-1
 674 702 l 2,14,15
 760 702 760 702 820.5 718 c 128,-1,16
 881 734 881 734 919.5 766 c 128,-1,17
 958 798 958 798 975.5 845 c 128,-1,18
 993 892 993 892 993 954 c 0,19,20
 993 1029 993 1029 967 1075.5 c 128,-1,21
 941 1122 941 1122 896.5 1148 c 128,-1,22
 852 1174 852 1174 793 1183 c 128,-1,23
 734 1192 734 1192 668 1192 c 2,24,-1
 330 1192 l 1,25,-1
 330 702 l 1,13,-1
EndSplineSet
EndChar

StartChar: Q
Encoding: 81 81 52
Width: 1472
GlyphClass: 2
Flags: W
LayerCount: 2
Fore
SplineSet
1407 18 m 1,0,-1
 1301 -108 l 1,1,-1
 1078 69 l 1,2,3
 1002 23 1002 23 917 -0.5 c 128,-1,4
 832 -24 832 -24 737 -24 c 0,5,6
 595 -24 595 -24 476 27 c 128,-1,7
 357 78 357 78 271 170 c 128,-1,8
 185 262 185 262 137 391.5 c 128,-1,9
 89 521 89 521 89 678 c 0,10,11
 89 836 89 836 137.5 965 c 128,-1,12
 186 1094 186 1094 272.5 1185.5 c 128,-1,13
 359 1277 359 1277 478 1327 c 128,-1,14
 597 1377 597 1377 737 1377 c 0,15,16
 878 1377 878 1377 996.5 1326.5 c 128,-1,17
 1115 1276 1115 1276 1201 1184.5 c 128,-1,18
 1287 1093 1287 1093 1335.5 964 c 128,-1,19
 1384 835 1384 835 1384 678 c 0,20,21
 1384 371 1384 371 1208 175 c 1,22,-1
 1407 18 l 1,0,-1
1074 280 m 1,23,24
 1199 426 1199 426 1199 678 c 0,25,26
 1199 807 1199 807 1164.5 908.5 c 128,-1,27
 1130 1010 1130 1010 1068.5 1079.5 c 128,-1,28
 1007 1149 1007 1149 923 1185.5 c 128,-1,29
 839 1222 839 1222 740 1222 c 0,30,31
 639 1222 639 1222 553.5 1185 c 128,-1,32
 468 1148 468 1148 406 1078 c 128,-1,33
 344 1008 344 1008 309.5 907 c 128,-1,34
 275 806 275 806 275 678 c 0,35,36
 275 549 275 549 309 447 c 128,-1,37
 343 345 343 345 404.5 274.5 c 128,-1,38
 466 204 466 204 550.5 167 c 128,-1,39
 635 130 635 130 736 130 c 0,40,41
 790 130 790 130 840.5 142 c 128,-1,42
 891 154 891 154 940 176 c 1,43,-1
 805 283 l 1,44,-1
 911 409 l 1,45,-1
 1074 280 l 1,23,24
EndSplineSet
EndChar

StartChar: R
Encoding: 82 82 53
Width: 1365
GlyphClass: 2
Flags: W
LayerCount: 2
Fore
SplineSet
1280 0 m 1,0,-1
 1085 0 l 1,1,-1
 958 363 l 2,2,3
 941 410 941 410 912.5 449.5 c 128,-1,4
 884 489 884 489 845.5 517.5 c 128,-1,5
 807 546 807 546 760.5 562 c 128,-1,6
 714 578 714 578 662 578 c 2,7,-1
 330 578 l 1,8,-1
 330 0 l 1,9,-1
 151 0 l 1,10,-1
 151 1353 l 1,11,-1
 750 1353 l 2,12,13
 805 1353 805 1353 854.5 1350.5 c 128,-1,14
 904 1348 904 1348 948.5 1339 c 128,-1,15
 993 1330 993 1330 1032.5 1312.5 c 128,-1,16
 1072 1295 1072 1295 1108 1265 c 0,17,18
 1169 1211 1169 1211 1201 1133.5 c 128,-1,19
 1233 1056 1233 1056 1233 975 c 0,20,21
 1233 904 1233 904 1212 844.5 c 128,-1,22
 1191 785 1191 785 1151.5 739 c 128,-1,23
 1112 693 1112 693 1055.5 661.5 c 128,-1,24
 999 630 999 630 929 616 c 1,25,-1
 929 613 l 1,26,27
 1071 568 1071 568 1146 368 c 2,28,-1
 1280 0 l 1,0,-1
330 740 m 1,29,-1
 732 740 l 2,30,31
 815 740 815 740 875 752.5 c 128,-1,32
 935 765 935 765 973.5 792.5 c 128,-1,33
 1012 820 1012 820 1030 865 c 128,-1,34
 1048 910 1048 910 1048 975 c 0,35,36
 1048 1092 1048 1092 976 1147.5 c 128,-1,37
 904 1203 904 1203 758 1203 c 2,38,-1
 330 1203 l 1,39,-1
 330 740 l 1,29,-1
EndSplineSet
EndChar

StartChar: S
Encoding: 83 83 54
Width: 1262
GlyphClass: 2
Flags: W
LayerCount: 2
Fore
SplineSet
662 -24 m 0,0,1
 519 -24 519 -24 412 10 c 128,-1,2
 305 44 305 44 233.5 105 c 128,-1,3
 162 166 162 166 125 250.5 c 128,-1,4
 88 335 88 335 85 436 c 1,5,-1
 257 436 l 1,6,7
 264 359 264 359 298 302.5 c 128,-1,8
 332 246 332 246 385 209 c 128,-1,9
 438 172 438 172 506.5 154.5 c 128,-1,10
 575 137 575 137 653 137 c 0,11,12
 729 137 729 137 791 153 c 128,-1,13
 853 169 853 169 897 199 c 128,-1,14
 941 229 941 229 965 271.5 c 128,-1,15
 989 314 989 314 989 368 c 0,16,17
 989 424 989 424 967 462.5 c 128,-1,18
 945 501 945 501 895.5 530 c 128,-1,19
 846 559 846 559 765 582 c 128,-1,20
 684 605 684 605 567 629 c 0,21,22
 453 655 453 655 370.5 688 c 128,-1,23
 288 721 288 721 235 765.5 c 128,-1,24
 182 810 182 810 156.5 868 c 128,-1,25
 131 926 131 926 131 1001 c 0,26,27
 131 1083 131 1083 166 1152 c 128,-1,28
 201 1221 201 1221 264.5 1271 c 128,-1,29
 328 1321 328 1321 416.5 1349 c 128,-1,30
 505 1377 505 1377 613 1377 c 0,31,32
 727 1377 727 1377 820.5 1349 c 128,-1,33
 914 1321 914 1321 982 1268.5 c 128,-1,34
 1050 1216 1050 1216 1089 1140.5 c 128,-1,35
 1128 1065 1128 1065 1131 970 c 1,36,-1
 957 970 l 1,37,38
 930 1215 930 1215 621 1215 c 0,39,40
 470 1215 470 1215 388.5 1159 c 128,-1,41
 307 1103 307 1103 307 1008 c 0,42,43
 307 965 307 965 322 934.5 c 128,-1,44
 337 904 337 904 373 881 c 128,-1,45
 409 858 409 858 469 839.5 c 128,-1,46
 529 821 529 821 618 802 c 0,47,48
 679 789 679 789 743 774.5 c 128,-1,49
 807 760 807 760 867.5 739 c 128,-1,50
 928 718 928 718 982 688.5 c 128,-1,51
 1036 659 1036 659 1076.5 617 c 128,-1,52
 1117 575 1117 575 1140.5 517.5 c 128,-1,53
 1164 460 1164 460 1164 383 c 0,54,55
 1164 294 1164 294 1126.5 219.5 c 128,-1,56
 1089 145 1089 145 1022 91 c 128,-1,57
 955 37 955 37 863 6.5 c 128,-1,58
 771 -24 771 -24 662 -24 c 0,0,1
EndSplineSet
EndChar

StartChar: T
Encoding: 84 84 55
Width: 1155
GlyphClass: 2
Flags: W
LayerCount: 2
Fore
SplineSet
1114 1192 m 1,0,-1
 666 1192 l 1,1,-1
 666 0 l 1,2,-1
 487 0 l 1,3,-1
 487 1192 l 1,4,-1
 42 1192 l 1,5,-1
 42 1353 l 1,6,-1
 1114 1353 l 1,7,-1
 1114 1192 l 1,0,-1
EndSplineSet
EndChar

StartChar: U
Encoding: 85 85 56
Width: 1365
GlyphClass: 2
Flags: W
LayerCount: 2
Fore
SplineSet
683 -24 m 0,0,1
 557 -24 557 -24 469 1.5 c 128,-1,2
 381 27 381 27 322 70.5 c 128,-1,3
 263 114 263 114 229 172 c 128,-1,4
 195 230 195 230 177.5 296 c 128,-1,5
 160 362 160 362 155.5 432.5 c 128,-1,6
 151 503 151 503 151 571 c 2,7,-1
 151 1353 l 1,8,-1
 330 1353 l 1,9,-1
 330 574 l 2,10,11
 330 438 330 438 353.5 352.5 c 128,-1,12
 377 267 377 267 422 219 c 128,-1,13
 467 171 467 171 532.5 154 c 128,-1,14
 598 137 598 137 683 137 c 256,15,16
 768 137 768 137 834 154.5 c 128,-1,17
 900 172 900 172 944 220.5 c 128,-1,18
 988 269 988 269 1011 354 c 128,-1,19
 1034 439 1034 439 1034 574 c 2,20,-1
 1034 1353 l 1,21,-1
 1215 1353 l 1,22,-1
 1215 571 l 2,23,24
 1215 431 1215 431 1191 320.5 c 128,-1,25
 1167 210 1167 210 1107 133.5 c 128,-1,26
 1047 57 1047 57 944 16.5 c 128,-1,27
 841 -24 841 -24 683 -24 c 0,0,1
EndSplineSet
EndChar

StartChar: V
Encoding: 86 86 57
Width: 1262
GlyphClass: 2
Flags: W
LayerCount: 2
Fore
SplineSet
1249 1353 m 1,0,-1
 722 0 l 1,1,-1
 537 0 l 1,2,-1
 10 1353 l 1,3,-1
 203 1353 l 1,4,-1
 629 193 l 1,5,-1
 1058 1353 l 1,6,-1
 1249 1353 l 1,0,-1
EndSplineSet
EndChar

StartChar: W
Encoding: 87 87 58
Width: 1786
GlyphClass: 2
Flags: W
LayerCount: 2
Fore
SplineSet
1767 1353 m 1,0,-1
 1391 0 l 1,1,-1
 1220 0 l 1,2,-1
 894 1177 l 1,3,-1
 570 0 l 1,4,-1
 398 0 l 1,5,-1
 24 1353 l 1,6,-1
 212 1353 l 1,7,-1
 482 250 l 1,8,-1
 786 1353 l 1,9,-1
 1003 1353 l 1,10,-1
 1307 250 l 1,11,-1
 1578 1353 l 1,12,-1
 1767 1353 l 1,0,-1
EndSplineSet
EndChar

StartChar: X
Encoding: 88 88 59
Width: 1262
GlyphClass: 2
Flags: W
LayerCount: 2
Fore
SplineSet
1253 0 m 1,0,-1
 1032 0 l 1,1,-1
 631 574 l 1,2,-1
 230 0 l 1,3,-1
 8 0 l 1,4,-1
 529 713 l 1,5,-1
 60 1353 l 1,6,-1
 280 1353 l 1,7,-1
 629 854 l 1,8,-1
 981 1353 l 1,9,-1
 1200 1353 l 1,10,-1
 732 713 l 1,11,-1
 1253 0 l 1,0,-1
EndSplineSet
EndChar

StartChar: Y
Encoding: 89 89 60
Width: 1262
GlyphClass: 2
Flags: W
LayerCount: 2
Fore
SplineSet
1253 1353 m 1,0,-1
 721 574 l 1,1,-1
 721 0 l 1,2,-1
 541 0 l 1,3,-1
 541 574 l 1,4,-1
 8 1353 l 1,5,-1
 227 1353 l 1,6,-1
 631 732 l 1,7,-1
 1034 1353 l 1,8,-1
 1253 1353 l 1,0,-1
EndSplineSet
EndChar

StartChar: Z
Encoding: 90 90 61
Width: 1155
GlyphClass: 2
Flags: W
LayerCount: 2
Fore
SplineSet
1105 0 m 1,0,-1
 35 0 l 1,1,-1
 35 168 l 1,2,-1
 874 1192 l 1,3,-1
 112 1192 l 1,4,-1
 112 1353 l 1,5,-1
 1080 1353 l 1,6,-1
 1080 1184 l 1,7,-1
 241 161 l 1,8,-1
 1105 161 l 1,9,-1
 1105 0 l 1,0,-1
EndSplineSet
EndChar

StartChar: bracketleft
Encoding: 91 91 62
Width: 960
GlyphClass: 2
Flags: W
LayerCount: 2
Fore
SplineSet
176 1583 m 1,0,-1
 748 1583 l 1,1,-1
 748 1415 l 1,2,-1
 375 1415 l 1,3,-1
 375 -135 l 1,4,-1
 748 -135 l 1,5,-1
 748 -304 l 1,6,-1
 176 -304 l 1,7,-1
 176 1583 l 1,0,-1
EndSplineSet
EndChar

StartChar: backslash
Encoding: 92 92 63
Width: 1282
GlyphClass: 2
Flags: W
LayerCount: 2
Fore
SplineSet
995 -111 m 1,0,-1
 156 1230 l 1,1,-1
 291 1318 l 1,2,-1
 1131 -25 l 1,3,-1
 995 -111 l 1,0,-1
EndSplineSet
EndChar

StartChar: bracketright
Encoding: 93 93 64
Width: 960
GlyphClass: 2
Flags: W
LayerCount: 2
Fore
SplineSet
583 1415 m 1,0,-1
 214 1415 l 1,1,-1
 214 1583 l 1,2,-1
 782 1583 l 1,3,-1
 782 -304 l 1,4,-1
 214 -304 l 1,5,-1
 214 -135 l 1,6,-1
 583 -135 l 1,7,-1
 583 1415 l 1,0,-1
EndSplineSet
EndChar

StartChar: asciicircum
Encoding: 94 94 65
Width: 1176
GlyphClass: 2
Flags: W
LayerCount: 2
Fore
SplineSet
588 1572 m 1,0,-1
 946 1281 l 1,1,-1
 861 1179 l 1,2,-1
 588 1406 l 1,3,-1
 315 1179 l 1,4,-1
 230 1281 l 1,5,-1
 588 1572 l 1,0,-1
EndSplineSet
EndChar

StartChar: underscore
Encoding: 95 95 66
Width: 1112
GlyphClass: 2
Flags: W
LayerCount: 2
Fore
SplineSet
-4 -160 m 1,0,-1
 1116 -160 l 1,1,-1
 1116 -320 l 1,2,-1
 -4 -320 l 1,3,-1
 -4 -160 l 1,0,-1
EndSplineSet
EndChar

StartChar: grave
Encoding: 96 96 67
Width: 693
GlyphClass: 2
Flags: W
LayerCount: 2
Fore
SplineSet
518 1119 m 1,0,-1
 379 1119 l 1,1,-1
 175 1380 l 1,2,-1
 394 1380 l 1,3,-1
 518 1119 l 1,0,-1
EndSplineSet
EndChar

StartChar: a
Encoding: 97 97 68
Width: 1052
GlyphClass: 2
Flags: W
LayerCount: 2
Fore
SplineSet
750 257 m 1,0,-1
 750 475 l 1,1,-1
 629 475 l 2,2,3
 250 475 250 475 250 269 c 0,4,5
 250 194 250 194 306.5 154 c 128,-1,6
 363 114 363 114 456 114 c 0,7,8
 499 114 499 114 541.5 124 c 128,-1,9
 584 134 584 134 622.5 152.5 c 128,-1,10
 661 171 661 171 693.5 197.5 c 128,-1,11
 726 224 726 224 750 257 c 1,0,-1
750 99 m 1,12,13
 613 -24 613 -24 406 -24 c 0,14,15
 335 -24 335 -24 274.5 -3.5 c 128,-1,16
 214 17 214 17 169 54 c 128,-1,17
 124 91 124 91 98.5 143 c 128,-1,18
 73 195 73 195 73 259 c 0,19,20
 73 603 73 603 664 603 c 2,21,-1
 750 603 l 1,22,23
 750 666 750 666 746 715 c 128,-1,24
 742 764 742 764 720 797.5 c 128,-1,25
 698 831 698 831 650 848.5 c 128,-1,26
 602 866 602 866 515 866 c 0,27,28
 283 866 283 866 275 699 c 1,29,-1
 99 699 l 1,30,31
 118 1003 118 1003 525 1003 c 0,32,33
 617 1003 617 1003 691 987 c 128,-1,34
 765 971 765 971 816.5 929 c 128,-1,35
 868 887 868 887 896 815 c 128,-1,36
 924 743 924 743 924 632 c 2,37,-1
 924 0 l 1,38,-1
 750 0 l 1,39,-1
 750 99 l 1,12,13
EndSplineSet
EndChar

StartChar: b
Encoding: 98 98 69
Width: 1052
GlyphClass: 2
Flags: W
LayerCount: 2
Fore
SplineSet
302 863 m 1,0,1
 361 934 361 934 431 968.5 c 128,-1,2
 501 1003 501 1003 582 1003 c 0,3,4
 679 1003 679 1003 754 967 c 128,-1,5
 829 931 829 931 880.5 864.5 c 128,-1,6
 932 798 932 798 959 705 c 128,-1,7
 986 612 986 612 986 498 c 0,8,9
 986 379 986 379 954.5 282.5 c 128,-1,10
 923 186 923 186 867.5 118 c 128,-1,11
 812 50 812 50 736 13 c 128,-1,12
 660 -24 660 -24 571 -24 c 0,13,14
 490 -24 490 -24 423.5 0.5 c 128,-1,15
 357 25 357 25 302 76 c 1,16,-1
 302 0 l 1,17,-1
 129 0 l 1,18,-1
 129 1353 l 1,19,-1
 302 1353 l 1,20,-1
 302 863 l 1,0,1
302 233 m 1,21,22
 416 114 416 114 561 114 c 0,23,24
 616 114 616 114 661.5 138.5 c 128,-1,25
 707 163 707 163 738.5 211 c 128,-1,26
 770 259 770 259 787.5 331 c 128,-1,27
 805 403 805 403 805 498 c 0,28,29
 805 678 805 678 742.5 772 c 128,-1,30
 680 866 680 866 568 866 c 0,31,32
 422 866 422 866 302 698 c 1,33,-1
 302 233 l 1,21,22
EndSplineSet
EndChar

StartChar: c
Encoding: 99 99 70
Width: 946
GlyphClass: 2
Flags: W
LayerCount: 2
Fore
SplineSet
526 -24 m 0,0,1
 423 -24 423 -24 338.5 10 c 128,-1,2
 254 44 254 44 193.5 110 c 128,-1,3
 133 176 133 176 99.5 271.5 c 128,-1,4
 66 367 66 367 66 490 c 0,5,6
 66 611 66 611 99 706.5 c 128,-1,7
 132 802 132 802 192 868 c 128,-1,8
 252 934 252 934 337 968.5 c 128,-1,9
 422 1003 422 1003 526 1003 c 0,10,11
 605 1003 605 1003 672.5 982.5 c 128,-1,12
 740 962 740 962 791.5 922 c 128,-1,13
 843 882 843 882 876.5 822.5 c 128,-1,14
 910 763 910 763 920 686 c 1,15,-1
 741 686 l 1,16,17
 739 730 739 730 722 764 c 128,-1,18
 705 798 705 798 676 820.5 c 128,-1,19
 647 843 647 843 608.5 854.5 c 128,-1,20
 570 866 570 866 526 866 c 0,21,22
 464 866 464 866 412.5 842.5 c 128,-1,23
 361 819 361 819 324 771.5 c 128,-1,24
 287 724 287 724 266.5 653.5 c 128,-1,25
 246 583 246 583 246 490 c 256,26,27
 246 397 246 397 266.5 326.5 c 128,-1,28
 287 256 287 256 324 208.5 c 128,-1,29
 361 161 361 161 412.5 137.5 c 128,-1,30
 464 114 464 114 526 114 c 0,31,32
 568 114 568 114 606 125 c 128,-1,33
 644 136 644 136 673.5 158.5 c 128,-1,34
 703 181 703 181 721 214 c 128,-1,35
 739 247 739 247 741 292 c 1,36,-1
 920 292 l 1,37,38
 910 214 910 214 876.5 155 c 128,-1,39
 843 96 843 96 791 56.5 c 128,-1,40
 739 17 739 17 671.5 -3.5 c 128,-1,41
 604 -24 604 -24 526 -24 c 0,0,1
EndSplineSet
EndChar

StartChar: d
Encoding: 100 100 71
Width: 1052
GlyphClass: 2
Flags: W
LayerCount: 2
Fore
SplineSet
750 283 m 1,0,-1
 750 747 l 1,1,2
 633 866 633 866 491 866 c 0,3,4
 435 866 435 866 390 842 c 128,-1,5
 345 818 345 818 313 770 c 128,-1,6
 281 722 281 722 263.5 650 c 128,-1,7
 246 578 246 578 246 482 c 0,8,9
 246 301 246 301 309 207.5 c 128,-1,10
 372 114 372 114 484 114 c 0,11,12
 556 114 556 114 623 155.5 c 128,-1,13
 690 197 690 197 750 283 c 1,0,-1
750 116 m 1,14,15
 630 -24 630 -24 470 -24 c 0,16,17
 372 -24 372 -24 296.5 12 c 128,-1,18
 221 48 221 48 170 114.5 c 128,-1,19
 119 181 119 181 92.5 274.5 c 128,-1,20
 66 368 66 368 66 482 c 0,21,22
 66 603 66 603 98 699.5 c 128,-1,23
 130 796 130 796 185.5 863.5 c 128,-1,24
 241 931 241 931 316.5 967 c 128,-1,25
 392 1003 392 1003 480 1003 c 0,26,27
 637 1003 637 1003 750 904 c 1,28,-1
 750 1353 l 1,29,-1
 924 1353 l 1,30,-1
 924 0 l 1,31,-1
 750 0 l 1,32,-1
 750 116 l 1,14,15
EndSplineSet
EndChar

StartChar: e
Encoding: 101 101 72
Width: 1052
GlyphClass: 2
Flags: W
LayerCount: 2
Fore
SplineSet
544 -24 m 0,0,1
 437 -24 437 -24 349 10.5 c 128,-1,2
 261 45 261 45 198 111 c 128,-1,3
 135 177 135 177 100.5 272.5 c 128,-1,4
 66 368 66 368 66 490 c 0,5,6
 66 610 66 610 99.5 705 c 128,-1,7
 133 800 133 800 194 866 c 128,-1,8
 255 932 255 932 339.5 967.5 c 128,-1,9
 424 1003 424 1003 526 1003 c 0,10,11
 632 1003 632 1003 717 968 c 128,-1,12
 802 933 802 933 862 867 c 128,-1,13
 922 801 922 801 954 706 c 128,-1,14
 986 611 986 611 986 490 c 2,15,-1
 986 448 l 1,16,-1
 248 448 l 1,17,18
 254 363 254 363 278.5 300 c 128,-1,19
 303 237 303 237 342 196 c 128,-1,20
 381 155 381 155 432.5 134.5 c 128,-1,21
 484 114 484 114 544 114 c 0,22,23
 587 114 587 114 630 125.5 c 128,-1,24
 673 137 673 137 707.5 159.5 c 128,-1,25
 742 182 742 182 763.5 215.5 c 128,-1,26
 785 249 785 249 786 292 c 1,27,-1
 969 292 l 1,28,29
 958 216 958 216 921.5 157 c 128,-1,30
 885 98 885 98 829 58 c 128,-1,31
 773 18 773 18 700 -3 c 128,-1,32
 627 -24 627 -24 544 -24 c 0,0,1
802 585 m 1,33,34
 791 655 791 655 767 707.5 c 128,-1,35
 743 760 743 760 707 795 c 128,-1,36
 671 830 671 830 625 848 c 128,-1,37
 579 866 579 866 526 866 c 256,38,39
 473 866 473 866 427.5 849 c 128,-1,40
 382 832 382 832 346 797 c 128,-1,41
 310 762 310 762 285 709 c 128,-1,42
 260 656 260 656 250 585 c 1,43,-1
 802 585 l 1,33,34
EndSplineSet
EndChar

StartChar: f
Encoding: 102 102 73
Width: 526
GlyphClass: 2
Flags: W
LayerCount: 2
Fore
SplineSet
333 844 m 1,0,-1
 333 0 l 1,1,-1
 160 0 l 1,2,-1
 160 844 l 1,3,-1
 15 844 l 1,4,-1
 15 979 l 1,5,-1
 160 979 l 1,6,-1
 160 1067 l 2,7,8
 160 1379 160 1379 434 1379 c 0,9,10
 476 1379 476 1379 508 1375 c 128,-1,11
 540 1371 540 1371 563 1365 c 1,12,-1
 563 1215 l 1,13,14
 537 1219 537 1219 511 1221 c 128,-1,15
 485 1223 485 1223 459 1223 c 0,16,17
 393 1223 393 1223 363 1187.5 c 128,-1,18
 333 1152 333 1152 333 1065 c 2,19,-1
 333 979 l 1,20,-1
 518 979 l 1,21,-1
 518 844 l 1,22,-1
 333 844 l 1,0,-1
EndSplineSet
EndChar

StartChar: g
Encoding: 103 103 74
Width: 1052
GlyphClass: 2
Flags: W
LayerCount: 2
Fore
SplineSet
924 76 m 2,0,1
 924 -398 924 -398 497 -398 c 0,2,3
 405 -398 405 -398 331 -377.5 c 128,-1,4
 257 -357 257 -357 205.5 -318.5 c 128,-1,5
 154 -280 154 -280 126 -224.5 c 128,-1,6
 98 -169 98 -169 98 -99 c 1,7,-1
 279 -99 l 1,8,9
 279 -261 279 -261 492 -261 c 0,10,11
 554 -261 554 -261 602 -246 c 128,-1,12
 650 -231 650 -231 683 -193.5 c 128,-1,13
 716 -156 716 -156 733 -92.5 c 128,-1,14
 750 -29 750 -29 750 69 c 2,15,-1
 750 116 l 1,16,17
 630 -24 630 -24 470 -24 c 0,18,19
 372 -24 372 -24 296.5 12 c 128,-1,20
 221 48 221 48 170 114.5 c 128,-1,21
 119 181 119 181 92.5 274.5 c 128,-1,22
 66 368 66 368 66 482 c 0,23,24
 66 603 66 603 98 699.5 c 128,-1,25
 130 796 130 796 185.5 863.5 c 128,-1,26
 241 931 241 931 316.5 967 c 128,-1,27
 392 1003 392 1003 480 1003 c 0,28,29
 637 1003 637 1003 750 904 c 1,30,-1
 750 979 l 1,31,-1
 924 979 l 1,32,-1
 924 76 l 2,0,1
750 283 m 1,33,-1
 750 747 l 1,34,35
 633 866 633 866 491 866 c 0,36,37
 435 866 435 866 390 842 c 128,-1,38
 345 818 345 818 313 770 c 128,-1,39
 281 722 281 722 263.5 650 c 128,-1,40
 246 578 246 578 246 482 c 0,41,42
 246 301 246 301 309 207.5 c 128,-1,43
 372 114 372 114 484 114 c 0,44,45
 556 114 556 114 623 155.5 c 128,-1,46
 690 197 690 197 750 283 c 1,33,-1
EndSplineSet
EndChar

StartChar: h
Encoding: 104 104 75
Width: 1052
GlyphClass: 2
Flags: W
LayerCount: 2
Fore
SplineSet
302 855 m 1,0,1
 367 930 367 930 440.5 966.5 c 128,-1,2
 514 1003 514 1003 594 1003 c 0,3,4
 927 1003 927 1003 927 641 c 2,5,-1
 927 0 l 1,6,-1
 751 0 l 1,7,-1
 751 632 l 2,8,9
 751 753 751 753 708.5 805.5 c 128,-1,10
 666 858 666 858 570 858 c 0,11,12
 437 858 437 858 302 702 c 1,13,-1
 302 0 l 1,14,-1
 129 0 l 1,15,-1
 129 1353 l 1,16,-1
 302 1353 l 1,17,-1
 302 855 l 1,0,1
EndSplineSet
EndChar

StartChar: i
Encoding: 105 105 76
Width: 430
GlyphClass: 2
Flags: W
LayerCount: 2
Fore
SplineSet
302 0 m 1,0,-1
 129 0 l 1,1,-1
 129 979 l 1,2,-1
 302 979 l 1,3,-1
 302 0 l 1,0,-1
302 1164 m 1,4,-1
 129 1164 l 1,5,-1
 129 1353 l 1,6,-1
 302 1353 l 1,7,-1
 302 1164 l 1,4,-1
EndSplineSet
EndChar

StartChar: j
Encoding: 106 106 77
Width: 430
GlyphClass: 2
Flags: W
LayerCount: 2
Fore
SplineSet
302 -53 m 2,0,1
 302 -160 302 -160 284.5 -226.5 c 128,-1,2
 267 -293 267 -293 234.5 -330.5 c 128,-1,3
 202 -368 202 -368 156 -381.5 c 128,-1,4
 110 -395 110 -395 52 -395 c 0,5,6
 -20 -395 -20 -395 -66 -386 c 1,7,-1
 -66 -238 l 1,8,9
 -42 -246 -42 -246 -17.5 -248 c 128,-1,10
 7 -250 7 -250 30 -250 c 0,11,12
 60 -250 60 -250 79 -241 c 128,-1,13
 98 -232 98 -232 109 -209.5 c 128,-1,14
 120 -187 120 -187 124.5 -147.5 c 128,-1,15
 129 -108 129 -108 129 -47 c 2,16,-1
 129 979 l 1,17,-1
 302 979 l 1,18,-1
 302 -53 l 2,0,1
302 1164 m 1,19,-1
 129 1164 l 1,20,-1
 129 1353 l 1,21,-1
 302 1353 l 1,22,-1
 302 1164 l 1,19,-1
EndSplineSet
EndChar

StartChar: k
Encoding: 107 107 78
Width: 946
GlyphClass: 2
Flags: W
LayerCount: 2
Fore
SplineSet
939 0 m 1,0,-1
 732 0 l 1,1,-1
 411 498 l 1,2,-1
 302 388 l 1,3,-1
 302 0 l 1,4,-1
 129 0 l 1,5,-1
 129 1353 l 1,6,-1
 302 1353 l 1,7,-1
 302 586 l 1,8,-1
 682 979 l 1,9,-1
 901 979 l 1,10,-1
 529 614 l 1,11,-1
 939 0 l 1,0,-1
EndSplineSet
EndChar

StartChar: l
Encoding: 108 108 79
Width: 430
GlyphClass: 2
Flags: W
LayerCount: 2
Fore
SplineSet
302 0 m 1,0,-1
 129 0 l 1,1,-1
 129 1353 l 1,2,-1
 302 1353 l 1,3,-1
 302 0 l 1,0,-1
EndSplineSet
EndChar

StartChar: m
Encoding: 109 109 80
Width: 1576
GlyphClass: 2
Flags: W
LayerCount: 2
Fore
SplineSet
1453 0 m 1,0,-1
 1277 0 l 1,1,-1
 1277 632 l 2,2,3
 1277 694 1277 694 1268.5 737 c 128,-1,4
 1260 780 1260 780 1242 807 c 128,-1,5
 1224 834 1224 834 1195.5 846 c 128,-1,6
 1167 858 1167 858 1126 858 c 0,7,8
 998 858 998 858 875 702 c 1,9,-1
 875 0 l 1,10,-1
 704 0 l 1,11,-1
 704 632 l 2,12,13
 704 694 704 694 695.5 737 c 128,-1,14
 687 780 687 780 668.5 807 c 128,-1,15
 650 834 650 834 621 846 c 128,-1,16
 592 858 592 858 551 858 c 0,17,18
 425 858 425 858 302 702 c 1,19,-1
 302 0 l 1,20,-1
 129 0 l 1,21,-1
 129 979 l 1,22,-1
 302 979 l 1,23,-1
 302 855 l 1,24,25
 428 1003 428 1003 578 1003 c 0,26,27
 792 1003 792 1003 852 825 c 1,28,29
 902 884 902 884 942.5 919 c 128,-1,30
 983 954 983 954 1018 973 c 128,-1,31
 1053 992 1053 992 1085 997.5 c 128,-1,32
 1117 1003 1117 1003 1151 1003 c 0,33,34
 1453 1003 1453 1003 1453 641 c 2,35,-1
 1453 0 l 1,0,-1
EndSplineSet
EndChar

StartChar: n
Encoding: 110 110 81
Width: 1052
GlyphClass: 2
Flags: W
LayerCount: 2
Fore
SplineSet
302 855 m 1,0,1
 367 930 367 930 440.5 966.5 c 128,-1,2
 514 1003 514 1003 594 1003 c 0,3,4
 927 1003 927 1003 927 641 c 2,5,-1
 927 0 l 1,6,-1
 751 0 l 1,7,-1
 751 632 l 2,8,9
 751 753 751 753 708.5 805.5 c 128,-1,10
 666 858 666 858 570 858 c 0,11,12
 437 858 437 858 302 702 c 1,13,-1
 302 0 l 1,14,-1
 129 0 l 1,15,-1
 129 979 l 1,16,-1
 302 979 l 1,17,-1
 302 855 l 1,0,1
EndSplineSet
EndChar

StartChar: o
Encoding: 111 111 82
Width: 1052
GlyphClass: 2
Flags: W
LayerCount: 2
Fore
SplineSet
526 1003 m 0,0,1
 632 1003 632 1003 717 968 c 128,-1,2
 802 933 802 933 862 867 c 128,-1,3
 922 801 922 801 954 706 c 128,-1,4
 986 611 986 611 986 490 c 0,5,6
 986 368 986 368 953 272.5 c 128,-1,7
 920 177 920 177 860 111 c 128,-1,8
 800 45 800 45 715 10.5 c 128,-1,9
 630 -24 630 -24 526 -24 c 0,10,11
 423 -24 423 -24 338.5 10 c 128,-1,12
 254 44 254 44 193.5 110 c 128,-1,13
 133 176 133 176 99.5 271.5 c 128,-1,14
 66 367 66 367 66 490 c 0,15,16
 66 611 66 611 99 706.5 c 128,-1,17
 132 802 132 802 192 868 c 128,-1,18
 252 934 252 934 337 968.5 c 128,-1,19
 422 1003 422 1003 526 1003 c 0,0,1
526 114 m 256,20,21
 588 114 588 114 639.5 137.5 c 128,-1,22
 691 161 691 161 727.5 208.5 c 128,-1,23
 764 256 764 256 784.5 326.5 c 128,-1,24
 805 397 805 397 805 490 c 256,25,26
 805 583 805 583 784.5 653.5 c 128,-1,27
 764 724 764 724 727.5 771.5 c 128,-1,28
 691 819 691 819 639.5 842.5 c 128,-1,29
 588 866 588 866 526 866 c 256,30,31
 464 866 464 866 412.5 842.5 c 128,-1,32
 361 819 361 819 324 771.5 c 128,-1,33
 287 724 287 724 266.5 653.5 c 128,-1,34
 246 583 246 583 246 490 c 256,35,36
 246 397 246 397 266.5 326.5 c 128,-1,37
 287 256 287 256 324 208.5 c 128,-1,38
 361 161 361 161 412.5 137.5 c 128,-1,39
 464 114 464 114 526 114 c 256,20,21
EndSplineSet
EndChar

StartChar: p
Encoding: 112 112 83
Width: 1052
GlyphClass: 2
Flags: W
LayerCount: 2
Fore
SplineSet
302 863 m 1,0,1
 361 934 361 934 431 968.5 c 128,-1,2
 501 1003 501 1003 582 1003 c 0,3,4
 679 1003 679 1003 754 967 c 128,-1,5
 829 931 829 931 880.5 864.5 c 128,-1,6
 932 798 932 798 959 705 c 128,-1,7
 986 612 986 612 986 498 c 0,8,9
 986 379 986 379 954.5 282.5 c 128,-1,10
 923 186 923 186 867.5 118 c 128,-1,11
 812 50 812 50 736 13 c 128,-1,12
 660 -24 660 -24 571 -24 c 0,13,14
 490 -24 490 -24 423.5 0.5 c 128,-1,15
 357 25 357 25 302 76 c 1,16,-1
 302 -376 l 1,17,-1
 129 -376 l 1,18,-1
 129 979 l 1,19,-1
 302 979 l 1,20,-1
 302 863 l 1,0,1
302 233 m 1,21,22
 416 114 416 114 561 114 c 0,23,24
 616 114 616 114 661.5 138.5 c 128,-1,25
 707 163 707 163 738.5 211 c 128,-1,26
 770 259 770 259 787.5 331 c 128,-1,27
 805 403 805 403 805 498 c 0,28,29
 805 678 805 678 742.5 772 c 128,-1,30
 680 866 680 866 568 866 c 0,31,32
 422 866 422 866 302 698 c 1,33,-1
 302 233 l 1,21,22
EndSplineSet
EndChar

StartChar: q
Encoding: 113 113 84
Width: 1052
GlyphClass: 2
Flags: W
LayerCount: 2
Fore
SplineSet
924 -376 m 1,0,-1
 750 -376 l 1,1,-1
 750 116 l 1,2,3
 630 -24 630 -24 470 -24 c 0,4,5
 372 -24 372 -24 296.5 12 c 128,-1,6
 221 48 221 48 170 114.5 c 128,-1,7
 119 181 119 181 92.5 274.5 c 128,-1,8
 66 368 66 368 66 482 c 0,9,10
 66 603 66 603 98 699.5 c 128,-1,11
 130 796 130 796 185.5 863.5 c 128,-1,12
 241 931 241 931 316.5 967 c 128,-1,13
 392 1003 392 1003 480 1003 c 0,14,15
 637 1003 637 1003 750 904 c 1,16,-1
 750 979 l 1,17,-1
 924 979 l 1,18,-1
 924 -376 l 1,0,-1
750 283 m 1,19,-1
 750 747 l 1,20,21
 633 866 633 866 491 866 c 0,22,23
 435 866 435 866 390 842 c 128,-1,24
 345 818 345 818 313 770 c 128,-1,25
 281 722 281 722 263.5 650 c 128,-1,26
 246 578 246 578 246 482 c 0,27,28
 246 301 246 301 309 207.5 c 128,-1,29
 372 114 372 114 484 114 c 0,30,31
 556 114 556 114 623 155.5 c 128,-1,32
 690 197 690 197 750 283 c 1,19,-1
EndSplineSet
EndChar

StartChar: r
Encoding: 114 114 85
Width: 629
GlyphClass: 2
Flags: W
LayerCount: 2
Fore
SplineSet
638 820 m 1,0,1
 600 832 600 832 532 832 c 256,2,3
 464 832 464 832 407.5 797 c 128,-1,4
 351 762 351 762 302 693 c 1,5,-1
 302 0 l 1,6,-1
 129 0 l 1,7,-1
 129 979 l 1,8,-1
 302 979 l 1,9,-1
 302 844 l 1,10,11
 413 1003 413 1003 559 1003 c 0,12,13
 576 1003 576 1003 596.5 1001 c 128,-1,14
 617 999 617 999 638 995 c 1,15,-1
 638 820 l 1,0,1
EndSplineSet
EndChar

StartChar: s
Encoding: 115 115 86
Width: 946
GlyphClass: 2
Flags: W
LayerCount: 2
Fore
SplineSet
479 -24 m 0,0,1
 79 -24 79 -24 57 292 c 1,2,-1
 233 292 l 1,3,4
 234 114 234 114 477 114 c 0,5,6
 531 114 531 114 572.5 125.5 c 128,-1,7
 614 137 614 137 641.5 158 c 128,-1,8
 669 179 669 179 683.5 207.5 c 128,-1,9
 698 236 698 236 698 270 c 0,10,11
 698 305 698 305 687 326.5 c 128,-1,12
 676 348 676 348 645 364.5 c 128,-1,13
 614 381 614 381 558.5 396.5 c 128,-1,14
 503 412 503 412 414 436 c 0,15,16
 327 458 327 458 264 479 c 128,-1,17
 201 500 201 500 160.5 531 c 128,-1,18
 120 562 120 562 100.5 607 c 128,-1,19
 81 652 81 652 81 721 c 0,20,21
 81 781 81 781 106.5 832.5 c 128,-1,22
 132 884 132 884 179.5 922 c 128,-1,23
 227 960 227 960 294.5 981.5 c 128,-1,24
 362 1003 362 1003 446 1003 c 0,25,26
 832 1003 832 1003 838 729 c 1,27,-1
 666 729 l 1,28,29
 657 866 657 866 459 866 c 0,30,31
 415 866 415 866 377.5 857.5 c 128,-1,32
 340 849 340 849 312.5 832.5 c 128,-1,33
 285 816 285 816 269.5 791.5 c 128,-1,34
 254 767 254 767 254 736 c 0,35,36
 254 707 254 707 261.5 688.5 c 128,-1,37
 269 670 269 670 296 654.5 c 128,-1,38
 323 639 323 639 376.5 623 c 128,-1,39
 430 607 430 607 522 585 c 0,40,41
 611 564 611 564 677 541 c 128,-1,42
 743 518 743 518 786 485 c 128,-1,43
 829 452 829 452 850 404.5 c 128,-1,44
 871 357 871 357 871 287 c 0,45,46
 871 221 871 221 843.5 164 c 128,-1,47
 816 107 816 107 765 65.5 c 128,-1,48
 714 24 714 24 641.5 0 c 128,-1,49
 569 -24 569 -24 479 -24 c 0,0,1
EndSplineSet
EndChar

StartChar: t
Encoding: 116 116 87
Width: 526
GlyphClass: 2
Flags: W
LayerCount: 2
Fore
SplineSet
509 -1 m 1,0,1
 454 -14 454 -14 384 -14 c 0,2,3
 306 -14 306 -14 260.5 5 c 128,-1,4
 215 24 215 24 191 61.5 c 128,-1,5
 167 99 167 99 160 155.5 c 128,-1,6
 153 212 153 212 153 287 c 2,7,-1
 153 844 l 1,8,-1
 32 844 l 1,9,-1
 32 979 l 1,10,-1
 153 979 l 1,11,-1
 153 1223 l 1,12,-1
 327 1223 l 1,13,-1
 327 979 l 1,14,-1
 487 979 l 1,15,-1
 487 844 l 1,16,-1
 327 844 l 1,17,-1
 327 279 l 2,18,19
 327 227 327 227 333.5 196.5 c 128,-1,20
 340 166 340 166 352.5 149.5 c 128,-1,21
 365 133 365 133 382.5 128 c 128,-1,22
 400 123 400 123 422 123 c 0,23,24
 445 123 445 123 467 125 c 128,-1,25
 489 127 489 127 509 130 c 1,26,-1
 509 -1 l 1,0,1
EndSplineSet
EndChar

StartChar: u
Encoding: 117 117 88
Width: 1052
GlyphClass: 2
Flags: W
LayerCount: 2
Fore
SplineSet
750 124 m 1,0,1
 619 -24 619 -24 456 -24 c 0,2,3
 124 -24 124 -24 124 338 c 2,4,-1
 124 979 l 1,5,-1
 300 979 l 1,6,-1
 300 347 l 2,7,8
 300 286 300 286 310.5 243 c 128,-1,9
 321 200 321 200 343 173 c 128,-1,10
 365 146 365 146 399.5 134 c 128,-1,11
 434 122 434 122 482 122 c 0,12,13
 629 122 629 122 750 279 c 1,14,-1
 750 979 l 1,15,-1
 924 979 l 1,16,-1
 924 0 l 1,17,-1
 750 0 l 1,18,-1
 750 124 l 1,0,1
EndSplineSet
EndChar

StartChar: v
Encoding: 118 118 89
Width: 946
GlyphClass: 2
Flags: W
LayerCount: 2
Fore
SplineSet
920 979 m 1,0,-1
 551 0 l 1,1,-1
 395 0 l 1,2,-1
 26 979 l 1,3,-1
 214 979 l 1,4,-1
 473 214 l 1,5,-1
 733 979 l 1,6,-1
 920 979 l 1,0,-1
EndSplineSet
EndChar

StartChar: w
Encoding: 119 119 90
Width: 1365
GlyphClass: 2
Flags: W
LayerCount: 2
Fore
SplineSet
1354 979 m 1,0,-1
 1061 0 l 1,1,-1
 894 0 l 1,2,-1
 683 721 l 1,3,-1
 471 0 l 1,4,-1
 303 0 l 1,5,-1
 8 979 l 1,6,-1
 203 979 l 1,7,-1
 383 233 l 1,8,-1
 603 979 l 1,9,-1
 763 979 l 1,10,-1
 984 233 l 1,11,-1
 1164 979 l 1,12,-1
 1354 979 l 1,0,-1
EndSplineSet
EndChar

StartChar: x
Encoding: 120 120 91
Width: 946
GlyphClass: 2
Flags: W
LayerCount: 2
Fore
SplineSet
933 0 m 1,0,-1
 716 0 l 1,1,-1
 473 383 l 1,2,-1
 230 0 l 1,3,-1
 14 0 l 1,4,-1
 375 509 l 1,5,-1
 42 979 l 1,6,-1
 257 979 l 1,7,-1
 473 638 l 1,8,-1
 687 979 l 1,9,-1
 904 979 l 1,10,-1
 571 509 l 1,11,-1
 933 0 l 1,0,-1
EndSplineSet
EndChar

StartChar: y
Encoding: 121 121 92
Width: 946
GlyphClass: 2
Flags: W
LayerCount: 2
Fore
SplineSet
183 -237 m 0,0,1
 312 -237 312 -237 395 0 c 1,2,-1
 26 979 l 1,3,-1
 214 979 l 1,4,-1
 473 214 l 1,5,-1
 733 979 l 1,6,-1
 920 979 l 1,7,-1
 551 0 l 2,8,9
 518 -88 518 -88 487 -161 c 128,-1,10
 456 -234 456 -234 418.5 -286.5 c 128,-1,11
 381 -339 381 -339 332 -368.5 c 128,-1,12
 283 -398 283 -398 214 -398 c 0,13,14
 182 -398 182 -398 152.5 -395 c 128,-1,15
 123 -392 123 -392 99 -384 c 1,16,-1
 99 -223 l 1,17,18
 120 -231 120 -231 141.5 -234 c 128,-1,19
 163 -237 163 -237 183 -237 c 0,0,1
EndSplineSet
EndChar

StartChar: z
Encoding: 122 122 93
Width: 946
GlyphClass: 2
Flags: W
LayerCount: 2
Fore
SplineSet
905 0 m 1,0,-1
 38 0 l 1,1,-1
 38 149 l 1,2,-1
 648 832 l 1,3,-1
 74 832 l 1,4,-1
 74 979 l 1,5,-1
 874 979 l 1,6,-1
 874 832 l 1,7,-1
 265 149 l 1,8,-1
 905 149 l 1,9,-1
 905 0 l 1,0,-1
EndSplineSet
EndChar

StartChar: braceleft
Encoding: 123 123 94
Width: 1176
GlyphClass: 2
Flags: W
LayerCount: 2
Fore
SplineSet
66 726 m 1,0,1
 265 725 265 725 352 815 c 128,-1,2
 439 905 439 905 439 1105 c 0,3,4
 439 1383 439 1383 501 1471 c 0,5,6
 580 1583 580 1583 847 1583 c 2,7,-1
 975 1583 l 1,8,-1
 975 1431 l 1,9,-1
 887 1431 l 2,10,11
 717 1431 717 1431 665 1384 c 0,12,13
 609 1334 609 1334 609 1168 c 0,14,15
 609 932 609 932 572 845 c 0,16,17
 517 716 517 716 326 640 c 1,18,19
 530 559 530 559 581 408 c 0,20,21
 608 328 608 328 608 54 c 0,22,23
 608 -80 608 -80 663 -120 c 0,24,25
 706 -152 706 -152 844 -152 c 2,26,-1
 975 -152 l 1,27,-1
 975 -304 l 1,28,-1
 847 -304 l 2,29,30
 580 -304 580 -304 501 -191 c 0,31,32
 439 -104 439 -104 439 175 c 0,33,34
 439 375 439 375 352 465 c 128,-1,35
 265 555 265 555 66 554 c 1,36,-1
 66 726 l 1,0,1
EndSplineSet
EndChar

StartChar: bar
Encoding: 124 124 95
Width: 783
GlyphClass: 2
Flags: W
LayerCount: 2
Fore
SplineSet
471 -376 m 1,0,-1
 311 -376 l 1,1,-1
 311 1564 l 1,2,-1
 471 1564 l 1,3,-1
 471 -376 l 1,0,-1
EndSplineSet
EndChar

StartChar: braceright
Encoding: 125 125 96
Width: 1176
GlyphClass: 2
Flags: W
LayerCount: 2
Fore
SplineSet
1110 554 m 1,0,1
 911 555 911 555 824 465 c 128,-1,2
 737 375 737 375 737 175 c 0,3,4
 737 -104 737 -104 675 -191 c 0,5,6
 596 -304 596 -304 329 -304 c 2,7,-1
 201 -304 l 1,8,-1
 201 -152 l 1,9,-1
 332 -152 l 2,10,11
 470 -152 470 -152 513 -120 c 0,12,13
 568 -80 568 -80 568 54 c 0,14,15
 568 328 568 328 595 408 c 0,16,17
 646 559 646 559 850 640 c 1,18,19
 659 716 659 716 604 844 c 0,20,21
 567 932 567 932 567 1167 c 0,22,23
 567 1334 567 1334 511 1384 c 0,24,25
 459 1431 459 1431 289 1431 c 2,26,-1
 201 1431 l 1,27,-1
 201 1583 l 1,28,-1
 329 1583 l 2,29,30
 596 1583 596 1583 675 1471 c 0,31,32
 737 1383 737 1383 737 1105 c 0,33,34
 737 905 737 905 824 815 c 128,-1,35
 911 725 911 725 1110 726 c 1,36,-1
 1110 554 l 1,0,1
EndSplineSet
EndChar

StartChar: asciitilde
Encoding: 126 126 97
Width: 1496
GlyphClass: 2
Flags: W
LayerCount: 2
Fore
SplineSet
724 832 m 0,1,2
 732 824 732 824 863 650 c 0,3,4
 937 552 937 552 1016 552 c 0,5,6
 1140 552 1140 552 1176 690 c 0,7,8
 1190 741 1190 741 1195 927 c 1,9,-1
 1354 927 l 1,10,-1
 1354 870 l 2,11,12
 1354 643 1354 643 1302 540 c 0,13,14
 1227 392 1227 392 1021 392 c 0,15,16
 873 392 873 392 775 490 c 0,17,18
 769 496 769 496 641 672 c 0,19,20
 570 770 570 770 487 770 c 0,21,22
 363 770 363 770 327 632 c 0,23,24
 313 581 313 581 308 395 c 1,25,-1
 149 395 l 1,26,-1
 149 452 l 2,27,28
 149 679 149 679 201 782 c 0,29,30
 276 930 276 930 482 930 c 0,31,0
 624 930 624 930 724 832 c 0,1,2
EndSplineSet
EndChar

StartChar: exclamdown
Encoding: 161 161 99
Width: 525
GlyphClass: 2
Flags: W
LayerCount: 2
Fore
SplineSet
357 789 m 1,0,-1
 168 789 l 1,1,-1
 168 979 l 1,2,-1
 357 979 l 1,3,-1
 357 789 l 1,0,-1
357 -374 m 1,4,-1
 168 -374 l 1,5,-1
 168 -81 l 1,6,-1
 204 642 l 1,7,-1
 321 642 l 1,8,-1
 357 -81 l 1,9,-1
 357 -374 l 1,4,-1
EndSplineSet
EndChar

StartChar: cent
Encoding: 162 162 100
Width: 1051
GlyphClass: 2
Flags: W
LayerCount: 2
Fore
SplineSet
957 292 m 1,0,1
 947 215 947 215 914.5 156.5 c 128,-1,2
 882 98 882 98 830.5 57.5 c 128,-1,3
 779 17 779 17 711 -3.5 c 128,-1,4
 643 -24 643 -24 563 -24 c 0,5,6
 514 -24 514 -24 461 -13 c 1,7,-1
 401 -231 l 1,8,-1
 304 -204 l 1,9,-1
 364 14 l 1,10,11
 105 132 105 132 105 489 c 0,12,13
 105 611 105 611 137.5 706 c 128,-1,14
 170 801 170 801 230 866.5 c 128,-1,15
 290 932 290 932 374.5 966 c 128,-1,16
 459 1000 459 1000 563 1000 c 0,17,18
 582 1000 582 1000 601 998.5 c 128,-1,19
 620 997 620 997 639 995 c 1,20,-1
 697 1209 l 1,21,-1
 793 1183 l 1,22,-1
 735 973 l 1,23,24
 935 896 935 896 957 686 c 1,25,-1
 779 686 l 1,26,27
 776 781 776 781 696 831 c 1,28,-1
 499 121 l 1,29,30
 526 114 526 114 563 114 c 0,31,32
 604 114 604 114 642 125 c 128,-1,33
 680 136 680 136 710 158.5 c 128,-1,34
 740 181 740 181 758.5 214 c 128,-1,35
 777 247 777 247 779 292 c 1,36,-1
 957 292 l 1,0,1
601 863 m 1,37,38
 596 864 596 864 586.5 864.5 c 128,-1,39
 577 865 577 865 563 865 c 0,40,41
 501 865 501 865 450 842 c 128,-1,42
 399 819 399 819 361.5 772 c 128,-1,43
 324 725 324 725 303.5 654.5 c 128,-1,44
 283 584 283 584 283 489 c 0,45,46
 283 252 283 252 406 164 c 1,47,-1
 601 863 l 1,37,38
EndSplineSet
EndChar

StartChar: sterling
Encoding: 163 163 101
Width: 1051
GlyphClass: 2
Flags: W
LayerCount: 2
Fore
SplineSet
975 18 m 1,0,1
 883 -24 883 -24 779 -24 c 0,2,3
 710 -24 710 -24 574 18 c 0,4,5
 439 60 439 60 372 60 c 0,6,7
 222 60 222 60 45 -24 c 1,8,-1
 45 143 l 1,9,10
 93 169 93 169 129 201.5 c 128,-1,11
 165 234 165 234 190 274 c 0,12,13
 240 354 240 354 240 495 c 0,14,15
 240 551 240 551 225 611 c 1,16,-1
 45 611 l 1,17,-1
 45 746 l 1,18,-1
 188 746 l 1,19,20
 140 903 140 903 140 990 c 0,21,22
 140 1080 140 1080 170.5 1151.5 c 128,-1,23
 201 1223 201 1223 256.5 1273 c 128,-1,24
 312 1323 312 1323 389 1349.5 c 128,-1,25
 466 1376 466 1376 559 1376 c 0,26,27
 643 1376 643 1376 715 1353 c 128,-1,28
 787 1330 787 1330 841 1286 c 128,-1,29
 895 1242 895 1242 928 1176.5 c 128,-1,30
 961 1111 961 1111 968 1026 c 1,31,-1
 788 1026 l 1,32,33
 770 1239 770 1239 556 1239 c 0,34,35
 503 1239 503 1239 459 1220.5 c 128,-1,36
 415 1202 415 1202 384 1170 c 128,-1,37
 353 1138 353 1138 336 1095.5 c 128,-1,38
 319 1053 319 1053 319 1006 c 0,39,40
 319 903 319 903 370 746 c 1,41,-1
 659 746 l 1,42,-1
 659 611 l 1,43,-1
 401 611 l 1,44,45
 416 567 416 567 416 529 c 0,46,47
 416 410 416 410 378 332 c 0,48,49
 340 253 340 253 249 183 c 1,50,51
 316 204 316 204 383 204 c 0,52,53
 406 204 406 204 439.5 199.5 c 128,-1,54
 473 195 473 195 511.5 188 c 128,-1,55
 550 181 550 181 590.5 173.5 c 128,-1,56
 631 166 631 166 666.5 159 c 128,-1,57
 702 152 702 152 729.5 147.5 c 128,-1,58
 757 143 757 143 771 143 c 0,59,60
 875 143 875 143 975 195 c 1,61,-1
 975 18 l 1,0,1
EndSplineSet
EndChar

StartChar: currency
Encoding: 164 164 102
Width: 1138
GlyphClass: 2
Flags: W
LayerCount: 2
Fore
SplineSet
1061 353 m 1,0,-1
 944 235 l 1,1,-1
 806 373 l 1,2,3
 695 300 695 300 568 300 c 0,4,5
 502 300 502 300 443.5 319 c 128,-1,6
 385 338 385 338 333 375 c 1,7,-1
 193 235 l 1,8,-1
 76 353 l 1,9,-1
 214 491 l 1,10,11
 145 600 145 600 145 724 c 0,12,13
 145 847 145 847 214 955 c 0,14,15
 216 955 216 955 76 1097 c 1,16,-1
 193 1213 l 1,17,18
 333 1077 333 1077 333 1074 c 1,19,20
 436 1147 436 1147 568 1147 c 256,21,22
 700 1147 700 1147 806 1074 c 1,23,-1
 944 1213 l 1,24,-1
 1061 1097 l 1,25,-1
 924 955 l 1,26,27
 992 849 992 849 992 724 c 0,28,29
 992 597 992 597 920 491 c 1,30,-1
 1061 353 l 1,0,-1
568 464 m 256,31,32
 621 464 621 464 668 484.5 c 128,-1,33
 715 505 715 505 750.5 540.5 c 128,-1,34
 786 576 786 576 807 623.5 c 128,-1,35
 828 671 828 671 828 724 c 256,36,37
 828 777 828 777 807 824.5 c 128,-1,38
 786 872 786 872 750.5 907.5 c 128,-1,39
 715 943 715 943 667.5 963.5 c 128,-1,40
 620 984 620 984 568 984 c 0,41,42
 515 984 515 984 468 963.5 c 128,-1,43
 421 943 421 943 385 907.5 c 128,-1,44
 349 872 349 872 328 824.5 c 128,-1,45
 307 777 307 777 307 724 c 256,46,47
 307 671 307 671 328 623.5 c 128,-1,48
 349 576 349 576 384.5 540.5 c 128,-1,49
 420 505 420 505 467.5 484.5 c 128,-1,50
 515 464 515 464 568 464 c 256,31,32
EndSplineSet
EndChar

StartChar: yen
Encoding: 165 165 103
Width: 1052
GlyphClass: 2
Flags: W
LayerCount: 2
Fore
SplineSet
1052 1353 m 1,0,-1
 698 736 l 1,1,-1
 992 736 l 1,2,-1
 992 607 l 1,3,-1
 613 607 l 1,4,-1
 613 440 l 1,5,-1
 992 440 l 1,6,-1
 992 312 l 1,7,-1
 613 312 l 1,8,-1
 613 0 l 1,9,-1
 444 0 l 1,10,-1
 444 312 l 1,11,-1
 60 312 l 1,12,-1
 60 440 l 1,13,-1
 444 440 l 1,14,-1
 444 607 l 1,15,-1
 60 607 l 1,16,-1
 60 736 l 1,17,-1
 356 736 l 1,18,-1
 1 1353 l 1,19,-1
 199 1353 l 1,20,-1
 526 754 l 1,21,-1
 855 1353 l 1,22,-1
 1052 1353 l 1,0,-1
EndSplineSet
EndChar

StartChar: brokenbar
Encoding: 166 166 104
Width: 532
GlyphClass: 2
Flags: W
LayerCount: 2
Fore
SplineSet
344 -429 m 1,0,-1
 189 -429 l 1,1,-1
 189 336 l 1,2,-1
 344 336 l 1,3,-1
 344 -429 l 1,0,-1
344 699 m 1,4,-1
 189 699 l 1,5,-1
 189 1464 l 1,6,-1
 344 1464 l 1,7,-1
 344 699 l 1,4,-1
EndSplineSet
EndChar

StartChar: section
Encoding: 167 167 105
Width: 1051
GlyphClass: 2
Flags: W
LayerCount: 2
Fore
SplineSet
710 1056 m 1,0,1
 693 1239 693 1239 514 1239 c 0,2,3
 429 1239 429 1239 383.5 1198 c 128,-1,4
 338 1157 338 1157 338 1093 c 0,5,6
 338 1032 338 1032 396 977 c 0,7,8
 424 950 424 950 489.5 906 c 128,-1,9
 555 862 555 862 658 799 c 256,10,11
 761 736 761 736 825.5 686.5 c 128,-1,12
 890 637 890 637 916 597 c 256,13,14
 942 557 942 557 956.5 515.5 c 128,-1,15
 971 474 971 474 970 428 c 0,16,17
 970 261 970 261 760 162 c 1,18,19
 905 71 905 71 905 -94 c 0,20,21
 905 -160 905 -160 877.5 -215.5 c 128,-1,22
 850 -271 850 -271 801.5 -311.5 c 128,-1,23
 753 -352 753 -352 685.5 -374.5 c 128,-1,24
 618 -397 618 -397 539 -397 c 0,25,26
 455 -397 455 -397 385.5 -375.5 c 128,-1,27
 316 -354 316 -354 264 -312 c 128,-1,28
 212 -270 212 -270 179 -208 c 128,-1,29
 146 -146 146 -146 135 -65 c 1,30,-1
 316 -65 l 1,31,32
 335 -257 335 -257 539 -257 c 0,33,34
 584 -257 584 -257 619.5 -244.5 c 128,-1,35
 655 -232 655 -232 680 -210.5 c 128,-1,36
 705 -189 705 -189 718.5 -159.5 c 128,-1,37
 732 -130 732 -130 732 -96 c 0,38,39
 732 -31 732 -31 663 25 c 0,40,41
 628 53 628 53 559.5 97.5 c 128,-1,42
 491 142 491 142 385 208 c 0,43,44
 280 272 280 272 216 323.5 c 128,-1,45
 152 375 152 375 127 417 c 0,46,47
 79 499 79 499 79 593 c 0,48,49
 79 762 79 762 287 856 c 1,50,51
 164 961 164 961 164 1084 c 0,52,53
 164 1139 164 1139 187 1191.5 c 128,-1,54
 210 1244 210 1244 254 1285 c 128,-1,55
 298 1326 298 1326 361 1351 c 128,-1,56
 424 1376 424 1376 504 1376 c 0,57,58
 590 1376 590 1376 657.5 1354 c 128,-1,59
 725 1332 725 1332 774 1291 c 128,-1,60
 823 1250 823 1250 852 1190.5 c 128,-1,61
 881 1131 881 1131 890 1056 c 1,62,-1
 710 1056 l 1,0,1
678 227 m 1,63,64
 803 290 803 290 803 397 c 0,65,66
 803 429 803 429 791 458.5 c 128,-1,67
 779 488 779 488 751 518.5 c 128,-1,68
 723 549 723 549 678.5 582 c 128,-1,69
 634 615 634 615 569 655 c 0,70,71
 502 696 502 696 452 730 c 128,-1,72
 402 764 402 764 368 791 c 1,73,74
 245 732 245 732 245 613 c 0,75,76
 245 578 245 578 253.5 550 c 128,-1,77
 262 522 262 522 287.5 493 c 128,-1,78
 313 464 313 464 359 430.5 c 128,-1,79
 405 397 405 397 479 351 c 0,80,81
 551 306 551 306 600.5 276 c 128,-1,82
 650 246 650 246 678 227 c 1,63,64
EndSplineSet
EndChar

StartChar: dieresis
Encoding: 168 168 106
Width: 684
GlyphClass: 2
Flags: W
LayerCount: 2
Fore
SplineSet
606 1161 m 1,0,-1
 437 1161 l 1,1,-1
 437 1352 l 1,2,-1
 606 1352 l 1,3,-1
 606 1161 l 1,0,-1
250 1161 m 1,4,-1
 78 1161 l 1,5,-1
 78 1352 l 1,6,-1
 250 1352 l 1,7,-1
 250 1161 l 1,4,-1
EndSplineSet
EndChar

StartChar: copyright
Encoding: 169 169 107
Width: 1392
GlyphClass: 2
Flags: W
LayerCount: 2
Fore
SplineSet
698 1379 m 0,0,1
 792 1379 792 1379 880 1353.5 c 128,-1,2
 968 1328 968 1328 1045 1282.5 c 128,-1,3
 1122 1237 1122 1237 1186 1173 c 128,-1,4
 1250 1109 1250 1109 1295.5 1031.5 c 128,-1,5
 1341 954 1341 954 1366.5 865.5 c 128,-1,6
 1392 777 1392 777 1392 682 c 0,7,8
 1392 586 1392 586 1367 497.5 c 128,-1,9
 1342 409 1342 409 1297 331.5 c 128,-1,10
 1252 254 1252 254 1188.5 190 c 128,-1,11
 1125 126 1125 126 1048 80 c 128,-1,12
 971 34 971 34 882 9 c 128,-1,13
 793 -16 793 -16 698 -16 c 256,14,15
 603 -16 603 -16 514.5 9 c 128,-1,16
 426 34 426 34 348.5 79 c 128,-1,17
 271 124 271 124 206.5 187.5 c 128,-1,18
 142 251 142 251 96.5 329 c 128,-1,19
 51 407 51 407 25.5 496 c 128,-1,20
 0 585 0 585 0 682 c 0,21,22
 0 826 0 826 55.5 952.5 c 128,-1,23
 111 1079 111 1079 206.5 1174 c 128,-1,24
 302 1269 302 1269 428.5 1324 c 128,-1,25
 555 1379 555 1379 698 1379 c 0,0,1
697 98 m 0,26,27
 815 98 815 98 920.5 144 c 128,-1,28
 1026 190 1026 190 1105 269.5 c 128,-1,29
 1184 349 1184 349 1230.5 455.5 c 128,-1,30
 1277 562 1277 562 1277 682 c 0,31,32
 1277 799 1277 799 1231 904.5 c 128,-1,33
 1185 1010 1185 1010 1106.5 1089.5 c 128,-1,34
 1028 1169 1028 1169 922.5 1215.5 c 128,-1,35
 817 1262 817 1262 697 1262 c 256,36,37
 577 1262 577 1262 471.5 1215.5 c 128,-1,38
 366 1169 366 1169 286.5 1090 c 128,-1,39
 207 1011 207 1011 161 905.5 c 128,-1,40
 115 800 115 800 115 682 c 0,41,42
 115 562 115 562 161 455.5 c 128,-1,43
 207 349 207 349 286.5 269.5 c 128,-1,44
 366 190 366 190 471.5 144 c 128,-1,45
 577 98 577 98 697 98 c 0,26,27
1030 534 m 1,46,47
 967 280 967 280 699 280 c 0,48,49
 616 280 616 280 548.5 308.5 c 128,-1,50
 481 337 481 337 433 389 c 128,-1,51
 385 441 385 441 359 515 c 128,-1,52
 333 589 333 589 333 679 c 0,53,54
 333 770 333 770 359 842.5 c 128,-1,55
 385 915 385 915 433.5 965.5 c 128,-1,56
 482 1016 482 1016 550.5 1043 c 128,-1,57
 619 1070 619 1070 705 1070 c 0,58,59
 767 1070 767 1070 821 1054 c 128,-1,60
 875 1038 875 1038 916.5 1008 c 128,-1,61
 958 978 958 978 985.5 934.5 c 128,-1,62
 1013 891 1013 891 1023 836 c 1,63,-1
 893 836 l 1,64,65
 879 903 879 903 832 936.5 c 128,-1,66
 785 970 785 970 702 970 c 0,67,68
 644 970 644 970 599 949 c 128,-1,69
 554 928 554 928 523 890 c 128,-1,70
 492 852 492 852 476 797 c 128,-1,71
 460 742 460 742 460 675 c 0,72,73
 460 612 460 612 477 559 c 128,-1,74
 494 506 494 506 525.5 468 c 128,-1,75
 557 430 557 430 600.5 409 c 128,-1,76
 644 388 644 388 698 388 c 0,77,78
 866 388 866 388 901 534 c 1,79,-1
 1030 534 l 1,46,47
EndSplineSet
EndChar

StartChar: ordfeminine
Encoding: 170 170 108
Width: 756
GlyphClass: 2
Flags: W
LayerCount: 2
Fore
SplineSet
539 970 m 1,0,-1
 539 1092 l 1,1,-1
 449 1092 l 2,2,3
 193 1092 193 1092 193 955 c 0,4,5
 193 865 193 865 325 865 c 0,6,7
 351 865 351 865 382 873 c 128,-1,8
 413 881 413 881 442.5 895.5 c 128,-1,9
 472 910 472 910 498 929 c 128,-1,10
 524 948 524 948 539 970 c 1,0,-1
539 763 m 1,11,-1
 539 835 l 1,12,13
 442 747 442 747 287 747 c 0,14,15
 234 747 234 747 189 761.5 c 128,-1,16
 144 776 144 776 111.5 803 c 128,-1,17
 79 830 79 830 60.5 867.5 c 128,-1,18
 42 905 42 905 42 951 c 0,19,20
 42 1200 42 1200 473 1200 c 2,21,-1
 539 1200 l 1,22,23
 539 1259 539 1259 526.5 1292.5 c 128,-1,24
 514 1326 514 1326 492 1343 c 128,-1,25
 470 1360 470 1360 439.5 1364.5 c 128,-1,26
 409 1369 409 1369 373 1369 c 0,27,28
 215 1369 215 1369 211 1270 c 1,29,-1
 66 1270 l 1,30,31
 84 1490 84 1490 379 1490 c 0,32,33
 453 1490 453 1490 509.5 1475.5 c 128,-1,34
 566 1461 566 1461 604.5 1429.5 c 128,-1,35
 643 1398 643 1398 662.5 1346.5 c 128,-1,36
 682 1295 682 1295 682 1222 c 2,37,-1
 682 763 l 1,38,-1
 539 763 l 1,11,-1
670 518 m 1,39,-1
 80 518 l 1,40,-1
 80 635 l 1,41,-1
 670 635 l 1,42,-1
 670 518 l 1,39,-1
EndSplineSet
EndChar

StartChar: guillemotleft
Encoding: 171 171 109
Width: 1138
GlyphClass: 2
Flags: W
LayerCount: 2
Fore
SplineSet
995 72 m 1,0,-1
 848 72 l 1,1,-1
 532 528 l 1,2,-1
 848 984 l 1,3,-1
 995 984 l 1,4,-1
 736 528 l 1,5,-1
 995 72 l 1,0,-1
606 72 m 1,6,-1
 459 72 l 1,7,-1
 141 528 l 1,8,-1
 459 984 l 1,9,-1
 606 984 l 1,10,-1
 345 528 l 1,11,-1
 606 72 l 1,6,-1
EndSplineSet
EndChar

StartChar: logicalnot
Encoding: 172 172 110
Width: 1287
GlyphClass: 2
Flags: W
LayerCount: 2
Fore
SplineSet
1115 670 m 1,0,-1
 1115 260 l 1,1,-1
 979 260 l 1,2,-1
 979 533 l 1,3,-1
 196 533 l 1,4,-1
 196 670 l 1,5,-1
 1115 670 l 1,0,-1
EndSplineSet
EndChar

StartChar: uni00AD
Encoding: 173 173 111
Width: 1280
GlyphClass: 2
Flags: W
LayerCount: 2
Fore
SplineSet
1061 571 m 1,0,-1
 219 571 l 1,1,-1
 219 706 l 1,2,-1
 1061 706 l 1,3,-1
 1061 571 l 1,0,-1
EndSplineSet
EndChar

StartChar: registered
Encoding: 174 174 112
Width: 1392
GlyphClass: 2
Flags: W
LayerCount: 2
Fore
SplineSet
698 1379 m 0,0,1
 792 1379 792 1379 880 1353.5 c 128,-1,2
 968 1328 968 1328 1045 1282.5 c 128,-1,3
 1122 1237 1122 1237 1186 1173 c 128,-1,4
 1250 1109 1250 1109 1295.5 1031.5 c 128,-1,5
 1341 954 1341 954 1366.5 865.5 c 128,-1,6
 1392 777 1392 777 1392 682 c 0,7,8
 1392 586 1392 586 1367 497.5 c 128,-1,9
 1342 409 1342 409 1297 331.5 c 128,-1,10
 1252 254 1252 254 1188.5 190 c 128,-1,11
 1125 126 1125 126 1048 80 c 128,-1,12
 971 34 971 34 882 9 c 128,-1,13
 793 -16 793 -16 698 -16 c 256,14,15
 603 -16 603 -16 514.5 9 c 128,-1,16
 426 34 426 34 348.5 79 c 128,-1,17
 271 124 271 124 206.5 187.5 c 128,-1,18
 142 251 142 251 96.5 329 c 128,-1,19
 51 407 51 407 25.5 496 c 128,-1,20
 0 585 0 585 0 682 c 0,21,22
 0 826 0 826 55.5 952.5 c 128,-1,23
 111 1079 111 1079 206.5 1174 c 128,-1,24
 302 1269 302 1269 428.5 1324 c 128,-1,25
 555 1379 555 1379 698 1379 c 0,0,1
697 98 m 0,26,27
 815 98 815 98 920.5 144 c 128,-1,28
 1026 190 1026 190 1105 269.5 c 128,-1,29
 1184 349 1184 349 1230.5 455.5 c 128,-1,30
 1277 562 1277 562 1277 682 c 0,31,32
 1277 799 1277 799 1231 904.5 c 128,-1,33
 1185 1010 1185 1010 1106.5 1089.5 c 128,-1,34
 1028 1169 1028 1169 922.5 1215.5 c 128,-1,35
 817 1262 817 1262 697 1262 c 256,36,37
 577 1262 577 1262 471.5 1215.5 c 128,-1,38
 366 1169 366 1169 286.5 1090 c 128,-1,39
 207 1011 207 1011 161 905.5 c 128,-1,40
 115 800 115 800 115 682 c 0,41,42
 115 562 115 562 161 455.5 c 128,-1,43
 207 349 207 349 286.5 269.5 c 128,-1,44
 366 190 366 190 471.5 144 c 128,-1,45
 577 98 577 98 697 98 c 0,26,27
1009 295 m 1,46,-1
 871 295 l 1,47,-1
 813 459 l 2,48,49
 787 533 787 533 738.5 569.5 c 128,-1,50
 690 606 690 606 614 606 c 2,51,-1
 519 606 l 1,52,-1
 519 295 l 1,53,-1
 400 295 l 1,54,-1
 400 1043 l 1,55,-1
 682 1043 l 2,56,57
 978 1043 978 1043 978 836 c 0,58,59
 978 637 978 637 783 624 c 1,60,61
 884 595 884 595 932 482 c 2,62,-1
 1009 295 l 1,46,-1
519 709 m 1,63,-1
 670 709 l 2,64,65
 850 709 850 709 850 827 c 0,66,67
 850 942 850 942 666 942 c 2,68,-1
 519 942 l 1,69,-1
 519 709 l 1,63,-1
EndSplineSet
EndChar

StartChar: macron
Encoding: 175 175 113
Width: 1023
GlyphClass: 2
Flags: W
LayerCount: 2
Fore
SplineSet
1034 1617 m 1,0,-1
 -11 1617 l 1,1,-1
 -11 1718 l 1,2,-1
 1034 1718 l 1,3,-1
 1034 1617 l 1,0,-1
EndSplineSet
EndChar

StartChar: degree
Encoding: 176 176 114
Width: 819
GlyphClass: 2
Flags: W
LayerCount: 2
Fore
SplineSet
409 1483 m 0,0,1
 466 1483 466 1483 516 1460.5 c 128,-1,2
 566 1438 566 1438 603.5 1399.5 c 128,-1,3
 641 1361 641 1361 662.5 1311 c 128,-1,4
 684 1261 684 1261 684 1206 c 0,5,6
 684 1149 684 1149 662 1098.5 c 128,-1,7
 640 1048 640 1048 602.5 1010 c 128,-1,8
 565 972 565 972 515 950 c 128,-1,9
 465 928 465 928 409 928 c 256,10,11
 353 928 353 928 302.5 950 c 128,-1,12
 252 972 252 972 214.5 1009.5 c 128,-1,13
 177 1047 177 1047 155 1097.5 c 128,-1,14
 133 1148 133 1148 133 1206 c 0,15,16
 133 1263 133 1263 155 1313 c 128,-1,17
 177 1363 177 1363 214.5 1401 c 128,-1,18
 252 1439 252 1439 302.5 1461 c 128,-1,19
 353 1483 353 1483 409 1483 c 0,0,1
409 1036 m 256,20,21
 444 1036 444 1036 475 1050 c 128,-1,22
 506 1064 506 1064 529 1087 c 128,-1,23
 552 1110 552 1110 565 1141 c 128,-1,24
 578 1172 578 1172 578 1206 c 0,25,26
 578 1241 578 1241 564.5 1271.5 c 128,-1,27
 551 1302 551 1302 528 1324.5 c 128,-1,28
 505 1347 505 1347 474 1360 c 128,-1,29
 443 1373 443 1373 409 1373 c 0,30,31
 374 1373 374 1373 343.5 1360.5 c 128,-1,32
 313 1348 313 1348 290.5 1325.5 c 128,-1,33
 268 1303 268 1303 255 1272.5 c 128,-1,34
 242 1242 242 1242 242 1206 c 0,35,36
 242 1172 242 1172 255 1141 c 128,-1,37
 268 1110 268 1110 290.5 1087 c 128,-1,38
 313 1064 313 1064 343.5 1050 c 128,-1,39
 374 1036 374 1036 409 1036 c 256,20,21
EndSplineSet
EndChar

StartChar: plusminus
Encoding: 177 177 115
Width: 1195
GlyphClass: 2
Flags: W
LayerCount: 2
Fore
SplineSet
1081 682 m 1,0,-1
 682 682 l 1,1,-1
 682 280 l 1,2,-1
 514 280 l 1,3,-1
 514 682 l 1,4,-1
 114 682 l 1,5,-1
 114 848 l 1,6,-1
 514 848 l 1,7,-1
 514 1249 l 1,8,-1
 682 1249 l 1,9,-1
 682 848 l 1,10,-1
 1081 848 l 1,11,-1
 1081 682 l 1,0,-1
1081 0 m 1,12,-1
 114 0 l 1,13,-1
 114 166 l 1,14,-1
 1081 166 l 1,15,-1
 1081 0 l 1,12,-1
EndSplineSet
EndChar

StartChar: uni00B2
Encoding: 178 178 116
Width: 682
GlyphClass: 2
Flags: W
LayerCount: 2
Fore
SplineSet
647 732 m 1,0,-1
 26 732 l 1,1,2
 48 898 48 898 283 1038 c 0,3,4
 348 1078 348 1078 387.5 1106.5 c 128,-1,5
 427 1135 427 1135 448.5 1159 c 128,-1,6
 470 1183 470 1183 477 1205 c 128,-1,7
 484 1227 484 1227 484 1254 c 0,8,9
 484 1364 484 1364 347 1364 c 0,10,11
 219 1364 219 1364 196 1265 c 1,12,-1
 45 1265 l 1,13,14
 87 1483 87 1483 348 1483 c 0,15,16
 417 1483 417 1483 471.5 1466.5 c 128,-1,17
 526 1450 526 1450 564.5 1421 c 128,-1,18
 603 1392 603 1392 623 1351 c 128,-1,19
 643 1310 643 1310 643 1262 c 0,20,21
 643 1218 643 1218 632.5 1183.5 c 128,-1,22
 622 1149 622 1149 597 1117.5 c 128,-1,23
 572 1086 572 1086 532 1055 c 128,-1,24
 492 1024 492 1024 433 988 c 0,25,26
 375 952 375 952 330.5 919 c 128,-1,27
 286 886 286 886 256 854 c 1,28,-1
 647 854 l 1,29,-1
 647 732 l 1,0,-1
EndSplineSet
EndChar

StartChar: uni00B3
Encoding: 179 179 117
Width: 682
GlyphClass: 2
Flags: W
LayerCount: 2
Fore
SplineSet
473 1124 m 1,0,1
 644 1092 644 1092 644 944 c 0,2,3
 644 895 644 895 623 853 c 128,-1,4
 602 811 602 811 563 780 c 128,-1,5
 524 749 524 749 468 731 c 128,-1,6
 412 713 412 713 342 713 c 0,7,8
 62 713 62 713 32 928 c 1,9,-1
 189 928 l 1,10,11
 199 829 199 829 336 829 c 0,12,13
 488 829 488 829 488 963 c 0,14,15
 488 1066 488 1066 333 1066 c 2,16,-1
 276 1066 l 1,17,-1
 276 1177 l 1,18,19
 455 1177 455 1177 455 1281 c 0,20,21
 455 1365 455 1365 334 1365 c 0,22,23
 220 1365 220 1365 204 1283 c 1,24,-1
 49 1283 l 1,25,26
 90 1483 90 1483 336 1483 c 0,27,28
 400 1483 400 1483 450.5 1468.5 c 128,-1,29
 501 1454 501 1454 536.5 1429 c 128,-1,30
 572 1404 572 1404 590.5 1370 c 128,-1,31
 609 1336 609 1336 609 1297 c 0,32,33
 609 1161 609 1161 473 1124 c 1,0,1
EndSplineSet
EndChar

StartChar: acute
Encoding: 180 180 118
Width: 693
GlyphClass: 2
Flags: W
LayerCount: 2
Fore
SplineSet
518 1380 m 1,0,-1
 314 1119 l 1,1,-1
 175 1119 l 1,2,-1
 299 1380 l 1,3,-1
 518 1380 l 1,0,-1
EndSplineSet
EndChar

StartChar: mu
Encoding: 181 181 119
AltUni2: 0003bc.ffffffff.0
Width: 1052
GlyphClass: 2
Flags: W
LayerCount: 2
Fore
SplineSet
1031 -10 m 1,0,-1
 940 -10 l 2,1,2
 780 -10 780 -10 750 124 c 1,3,4
 619 -24 619 -24 460 -24 c 0,5,6
 418 -24 418 -24 379 -12.5 c 128,-1,7
 340 -1 340 -1 302 20 c 1,8,-1
 302 -376 l 1,9,-1
 129 -376 l 1,10,-1
 129 979 l 1,11,-1
 302 979 l 1,12,-1
 302 314 l 2,13,14
 302 216 302 216 351 169 c 128,-1,15
 400 122 400 122 497 122 c 0,16,17
 534 122 534 122 564.5 129 c 128,-1,18
 595 136 595 136 623.5 153.5 c 128,-1,19
 652 171 652 171 682.5 201.5 c 128,-1,20
 713 232 713 232 750 279 c 1,21,-1
 750 979 l 1,22,-1
 924 979 l 1,23,-1
 924 219 l 2,24,25
 924 158 924 158 947 134.5 c 128,-1,26
 970 111 970 111 1031 111 c 1,27,-1
 1031 -10 l 1,0,-1
EndSplineSet
EndChar

StartChar: paragraph
Encoding: 182 182 120
Width: 1016
GlyphClass: 2
Flags: W
LayerCount: 2
Fore
SplineSet
1019 1219 m 1,0,-1
 889 1219 l 1,1,-1
 889 -376 l 1,2,-1
 733 -376 l 1,3,-1
 733 1219 l 1,4,-1
 526 1219 l 1,5,-1
 526 -376 l 1,6,-1
 371 -376 l 1,7,-1
 371 589 l 1,8,9
 279 593 279 593 209.5 624.5 c 128,-1,10
 140 656 140 656 93.5 706 c 128,-1,11
 47 756 47 756 23 822 c 128,-1,12
 -1 888 -1 888 -1 963 c 0,13,14
 -1 1057 -1 1057 29.5 1129.5 c 128,-1,15
 60 1202 60 1202 117 1252 c 128,-1,16
 174 1302 174 1302 254.5 1328 c 128,-1,17
 335 1354 335 1354 436 1354 c 2,18,-1
 1019 1354 l 1,19,-1
 1019 1219 l 1,0,-1
EndSplineSet
EndChar

StartChar: periodcentered
Encoding: 183 183 121
Width: 598
GlyphClass: 2
Flags: W
LayerCount: 2
Fore
SplineSet
119 819 m 256,0,1
 119 855 119 855 133 886.5 c 128,-1,2
 147 918 147 918 171 941.5 c 128,-1,3
 195 965 195 965 226 978.5 c 128,-1,4
 257 992 257 992 292 992 c 0,5,6
 328 992 328 992 359.5 978 c 128,-1,7
 391 964 391 964 414.5 940.5 c 128,-1,8
 438 917 438 917 452 885.5 c 128,-1,9
 466 854 466 854 466 819 c 256,10,11
 466 784 466 784 452.5 752 c 128,-1,12
 439 720 439 720 415 696 c 128,-1,13
 391 672 391 672 359.5 658 c 128,-1,14
 328 644 328 644 292 644 c 0,15,16
 257 644 257 644 225.5 658 c 128,-1,17
 194 672 194 672 170.5 696 c 128,-1,18
 147 720 147 720 133 751.5 c 128,-1,19
 119 783 119 783 119 819 c 256,0,1
EndSplineSet
EndChar

StartChar: cedilla
Encoding: 184 184 122
Width: 682
GlyphClass: 2
Flags: W
LayerCount: 2
Fore
SplineSet
369 -69 m 1,0,1
 412 -74 412 -74 440.5 -84.5 c 128,-1,2
 469 -95 469 -95 486 -112.5 c 128,-1,3
 503 -130 503 -130 510.5 -155 c 128,-1,4
 518 -180 518 -180 518 -214 c 0,5,6
 518 -263 518 -263 502.5 -298.5 c 128,-1,7
 487 -334 487 -334 453 -357.5 c 128,-1,8
 419 -381 419 -381 365 -392.5 c 128,-1,9
 311 -404 311 -404 235 -404 c 0,10,11
 213 -404 213 -404 187.5 -403 c 128,-1,12
 162 -402 162 -402 133 -400 c 1,13,-1
 133 -283 l 1,14,15
 162 -286 162 -286 189 -288 c 128,-1,16
 216 -290 216 -290 242 -290 c 0,17,18
 369 -290 369 -290 369 -211 c 0,19,20
 369 -135 369 -135 231 -135 c 1,21,-1
 231 0 l 1,22,-1
 369 0 l 1,23,-1
 369 -69 l 1,0,1
EndSplineSet
EndChar

StartChar: uni00B9
Encoding: 185 185 123
Width: 682
GlyphClass: 2
Flags: W
LayerCount: 2
Fore
SplineSet
475 732 m 1,0,-1
 329 732 l 1,1,-1
 329 1222 l 1,2,3
 261 1173 261 1173 107 1173 c 1,4,-1
 107 1297 l 1,5,6
 367 1297 367 1297 367 1483 c 1,7,-1
 475 1483 l 1,8,-1
 475 732 l 1,0,-1
EndSplineSet
EndChar

StartChar: ordmasculine
Encoding: 186 186 124
Width: 747
GlyphClass: 2
Flags: W
LayerCount: 2
Fore
SplineSet
375 1490 m 0,0,1
 447 1490 447 1490 507.5 1463.5 c 128,-1,2
 568 1437 568 1437 611.5 1388.5 c 128,-1,3
 655 1340 655 1340 679.5 1270.5 c 128,-1,4
 704 1201 704 1201 704 1115 c 0,5,6
 704 1026 704 1026 679.5 956 c 128,-1,7
 655 886 655 886 611.5 838 c 128,-1,8
 568 790 568 790 507.5 764.5 c 128,-1,9
 447 739 447 739 375 739 c 0,10,11
 300 739 300 739 239.5 764 c 128,-1,12
 179 789 179 789 135.5 837 c 128,-1,13
 92 885 92 885 68.5 955 c 128,-1,14
 45 1025 45 1025 45 1115 c 0,15,16
 45 1202 45 1202 69 1271.5 c 128,-1,17
 93 1341 93 1341 136.5 1389.5 c 128,-1,18
 180 1438 180 1438 241 1464 c 128,-1,19
 302 1490 302 1490 375 1490 c 0,0,1
375 870 m 0,20,21
 556 870 556 870 556 1115 c 0,22,23
 556 1356 556 1356 375 1356 c 0,24,25
 195 1356 195 1356 195 1115 c 0,26,27
 195 870 195 870 375 870 c 0,20,21
670 518 m 1,28,-1
 80 518 l 1,29,-1
 80 635 l 1,30,-1
 670 635 l 1,31,-1
 670 518 l 1,28,-1
EndSplineSet
EndChar

StartChar: guillemotright
Encoding: 187 187 125
Width: 1138
GlyphClass: 2
Flags: W
LayerCount: 2
Fore
SplineSet
995 528 m 1,0,-1
 680 72 l 1,1,-1
 532 72 l 1,2,-1
 792 528 l 1,3,-1
 532 984 l 1,4,-1
 680 984 l 1,5,-1
 995 528 l 1,0,-1
606 528 m 1,6,-1
 288 72 l 1,7,-1
 141 72 l 1,8,-1
 402 528 l 1,9,-1
 141 984 l 1,10,-1
 288 984 l 1,11,-1
 606 528 l 1,6,-1
EndSplineSet
EndChar

StartChar: onequarter
Encoding: 188 188 126
Width: 1578
GlyphClass: 2
Flags: W
LayerCount: 2
Fore
SplineSet
459 678 m 1,0,-1
 323 678 l 1,1,-1
 323 1131 l 1,2,3
 259 1084 259 1084 116 1084 c 1,4,-1
 116 1199 l 1,5,6
 358 1199 358 1199 358 1371 c 1,7,-1
 459 1371 l 1,8,-1
 459 678 l 1,0,-1
1357 1354 m 1,9,-1
 459 0 l 1,10,-1
 250 0 l 1,11,-1
 1212 1354 l 1,12,-1
 1357 1354 l 1,9,-1
1492 142 m 1,13,-1
 1396 142 l 1,14,-1
 1396 0 l 1,15,-1
 1264 0 l 1,16,-1
 1264 142 l 1,17,-1
 909 142 l 1,18,-1
 909 254 l 1,19,-1
 1283 693 l 1,20,-1
 1396 693 l 1,21,-1
 1396 261 l 1,22,-1
 1492 261 l 1,23,-1
 1492 142 l 1,13,-1
1264 261 m 1,24,-1
 1264 525 l 1,25,-1
 1041 261 l 1,26,-1
 1264 261 l 1,24,-1
EndSplineSet
EndChar

StartChar: onehalf
Encoding: 189 189 127
Width: 1578
GlyphClass: 2
Flags: W
LayerCount: 2
Fore
SplineSet
459 678 m 1,0,-1
 323 678 l 1,1,-1
 323 1131 l 1,2,3
 259 1084 259 1084 116 1084 c 1,4,-1
 116 1199 l 1,5,6
 358 1199 358 1199 358 1371 c 1,7,-1
 459 1371 l 1,8,-1
 459 678 l 1,0,-1
1323 1354 m 1,9,-1
 363 0 l 1,10,-1
 215 0 l 1,11,-1
 1178 1354 l 1,12,-1
 1323 1354 l 1,9,-1
1523 0 m 1,13,-1
 950 0 l 1,14,15
 968 153 968 153 1187 284 c 0,16,17
 1251 322 1251 322 1288 348.5 c 128,-1,18
 1325 375 1325 375 1344 396 c 128,-1,19
 1363 417 1363 417 1368 436.5 c 128,-1,20
 1373 456 1373 456 1373 482 c 0,21,22
 1373 585 1373 585 1248 585 c 0,23,24
 1129 585 1129 585 1108 492 c 1,25,-1
 969 492 l 1,26,27
 1005 695 1005 695 1249 695 c 0,28,29
 1313 695 1313 695 1363.5 680 c 128,-1,30
 1414 665 1414 665 1449 638 c 128,-1,31
 1484 611 1484 611 1502.5 573.5 c 128,-1,32
 1521 536 1521 536 1521 491 c 0,33,34
 1521 451 1521 451 1511.5 419 c 128,-1,35
 1502 387 1502 387 1479.5 357.5 c 128,-1,36
 1457 328 1457 328 1419.5 298.5 c 128,-1,37
 1382 269 1382 269 1326 235 c 0,38,39
 1272 203 1272 203 1231.5 172 c 128,-1,40
 1191 141 1191 141 1164 112 c 1,41,-1
 1523 112 l 1,42,-1
 1523 0 l 1,13,-1
EndSplineSet
EndChar

StartChar: threequarters
Encoding: 190 190 128
Width: 1578
GlyphClass: 2
Flags: W
LayerCount: 2
Fore
SplineSet
456 1041 m 1,0,1
 614 1009 614 1009 614 873 c 0,2,3
 614 828 614 828 594.5 789.5 c 128,-1,4
 575 751 575 751 539 722 c 128,-1,5
 503 693 503 693 451.5 676.5 c 128,-1,6
 400 660 400 660 336 660 c 0,7,8
 75 660 75 660 47 858 c 1,9,-1
 193 858 l 1,10,11
 202 768 202 768 329 768 c 0,12,13
 470 768 470 768 470 892 c 0,14,15
 470 986 470 986 326 986 c 2,16,-1
 275 986 l 1,17,-1
 275 1089 l 1,18,19
 440 1089 440 1089 440 1185 c 0,20,21
 440 1264 440 1264 327 1264 c 0,22,23
 222 1264 222 1264 207 1187 c 1,24,-1
 63 1187 l 1,25,26
 100 1371 100 1371 329 1371 c 0,27,28
 389 1371 389 1371 435.5 1358 c 128,-1,29
 482 1345 482 1345 514 1322 c 128,-1,30
 546 1299 546 1299 563 1267.5 c 128,-1,31
 580 1236 580 1236 580 1199 c 0,32,33
 580 1072 580 1072 456 1041 c 1,0,1
1373 1354 m 1,34,-1
 413 0 l 1,35,-1
 268 0 l 1,36,-1
 1230 1354 l 1,37,-1
 1373 1354 l 1,34,-1
1492 142 m 1,38,-1
 1396 142 l 1,39,-1
 1396 0 l 1,40,-1
 1264 0 l 1,41,-1
 1264 142 l 1,42,-1
 909 142 l 1,43,-1
 909 254 l 1,44,-1
 1283 693 l 1,45,-1
 1396 693 l 1,46,-1
 1396 261 l 1,47,-1
 1492 261 l 1,48,-1
 1492 142 l 1,38,-1
1264 261 m 1,49,-1
 1264 525 l 1,50,-1
 1041 261 l 1,51,-1
 1264 261 l 1,49,-1
EndSplineSet
EndChar

StartChar: questiondown
Encoding: 191 191 129
Width: 1052
GlyphClass: 2
Flags: W
LayerCount: 2
Fore
SplineSet
963 -7 m 1,0,1
 955 -97 955 -97 919.5 -169.5 c 128,-1,2
 884 -242 884 -242 827 -293 c 128,-1,3
 770 -344 770 -344 693 -371 c 128,-1,4
 616 -398 616 -398 526 -398 c 0,5,6
 430 -398 430 -398 350 -370.5 c 128,-1,7
 270 -343 270 -343 212.5 -293.5 c 128,-1,8
 155 -244 155 -244 123 -176 c 128,-1,9
 91 -108 91 -108 91 -28 c 0,10,11
 91 19 91 19 100.5 60 c 128,-1,12
 110 101 110 101 133 141 c 128,-1,13
 156 181 156 181 193.5 222 c 128,-1,14
 231 263 231 263 287 311 c 0,15,16
 345 359 345 359 378 393 c 128,-1,17
 411 427 411 427 427.5 461.5 c 128,-1,18
 444 496 444 496 448 538.5 c 128,-1,19
 452 581 452 581 452 647 c 1,20,-1
 614 647 l 1,21,22
 614 560 614 560 604.5 498 c 128,-1,23
 595 436 595 436 575 396 c 0,24,25
 554 355 554 355 518 312.5 c 128,-1,26
 482 270 482 270 428 225 c 0,27,28
 374 178 374 178 342.5 144.5 c 128,-1,29
 311 111 311 111 295 84.5 c 128,-1,30
 279 58 279 58 274.5 34.5 c 128,-1,31
 270 11 270 11 270 -16 c 0,32,33
 270 -70 270 -70 289 -115.5 c 128,-1,34
 308 -161 308 -161 341.5 -193 c 128,-1,35
 375 -225 375 -225 422 -243 c 128,-1,36
 469 -261 469 -261 525 -261 c 0,37,38
 747 -261 747 -261 785 -7 c 1,39,-1
 963 -7 l 1,0,1
622 790 m 1,40,-1
 434 790 l 1,41,-1
 434 979 l 1,42,-1
 622 979 l 1,43,-1
 622 790 l 1,40,-1
EndSplineSet
EndChar

StartChar: Aring
Encoding: 197 197 135
Width: 1262
GlyphClass: 2
Flags: W
LayerCount: 2
Fore
SplineSet
852 555 m 1,0,-1
 613 1181 l 1,1,-1
 386 555 l 1,2,-1
 852 555 l 1,0,-1
1264 0 m 1,3,-1
 1061 0 l 1,4,-1
 904 411 l 1,5,-1
 337 411 l 1,6,-1
 188 0 l 1,7,-1
 -1 0 l 1,8,-1
 518 1353 l 1,9,-1
 712 1353 l 1,10,-1
 1264 0 l 1,3,-1
616 1689 m 0,11,12
 650 1689 650 1689 680.5 1675 c 128,-1,13
 711 1661 711 1661 734 1638 c 128,-1,14
 757 1615 757 1615 770 1584.5 c 128,-1,15
 783 1554 783 1554 783 1521 c 0,16,17
 783 1487 783 1487 770 1456.5 c 128,-1,18
 757 1426 757 1426 734.5 1403 c 128,-1,19
 712 1380 712 1380 681.5 1366.5 c 128,-1,20
 651 1353 651 1353 616 1355 c 0,21,22
 581 1353 581 1353 550.5 1366 c 128,-1,23
 520 1379 520 1379 497.5 1401.5 c 128,-1,24
 475 1424 475 1424 462 1455 c 128,-1,25
 449 1486 449 1486 449 1521 c 0,26,27
 449 1555 449 1555 462 1585.5 c 128,-1,28
 475 1616 475 1616 498 1639 c 128,-1,29
 521 1662 521 1662 551 1675.5 c 128,-1,30
 581 1689 581 1689 616 1689 c 0,11,12
616 1420 m 0,31,32
 637 1420 637 1420 655 1428 c 128,-1,33
 673 1436 673 1436 686.5 1449.5 c 128,-1,34
 700 1463 700 1463 707.5 1481.5 c 128,-1,35
 715 1500 715 1500 715 1521 c 0,36,37
 715 1541 715 1541 707.5 1559 c 128,-1,38
 700 1577 700 1577 686.5 1591 c 128,-1,39
 673 1605 673 1605 655 1613 c 128,-1,40
 637 1621 637 1621 616 1621 c 0,41,42
 596 1621 596 1621 578.5 1613 c 128,-1,43
 561 1605 561 1605 547.5 1591 c 128,-1,44
 534 1577 534 1577 526 1559 c 128,-1,45
 518 1541 518 1541 518 1521 c 0,46,47
 518 1500 518 1500 526 1481.5 c 128,-1,48
 534 1463 534 1463 547.5 1449.5 c 128,-1,49
 561 1436 561 1436 578.5 1428 c 128,-1,50
 596 1420 596 1420 616 1420 c 0,31,32
EndSplineSet
EndChar

StartChar: AE
Encoding: 198 198 136
Width: 1890
GlyphClass: 2
Flags: W
LayerCount: 2
Fore
SplineSet
1787 0 m 1,0,-1
 902 0 l 1,1,-1
 902 392 l 1,2,-1
 424 392 l 1,3,-1
 207 0 l 1,4,-1
 0 0 l 1,5,-1
 781 1353 l 1,6,-1
 1756 1353 l 1,7,-1
 1756 1192 l 1,8,-1
 1080 1192 l 1,9,-1
 1080 781 l 1,10,-1
 1703 781 l 1,11,-1
 1703 620 l 1,12,-1
 1080 620 l 1,13,-1
 1080 161 l 1,14,-1
 1787 161 l 1,15,-1
 1787 0 l 1,0,-1
902 551 m 1,16,-1
 902 1192 l 1,17,-1
 863 1192 l 1,18,-1
 509 551 l 1,19,-1
 902 551 l 1,16,-1
EndSplineSet
EndChar

StartChar: Eth
Encoding: 208 208 146
Width: 1365
GlyphClass: 2
Flags: W
LayerCount: 2
Fore
SplineSet
1270 684 m 0,0,1
 1270 0 1270 0 580 0 c 2,2,-1
 151 0 l 1,3,-1
 151 598 l 1,4,-1
 1 598 l 1,5,-1
 1 758 l 1,6,-1
 151 758 l 1,7,-1
 151 1353 l 1,8,-1
 580 1353 l 2,9,10
 1270 1353 1270 1353 1270 684 c 0,0,1
1085 684 m 0,11,12
 1085 802 1085 802 1061.5 896.5 c 128,-1,13
 1038 991 1038 991 980.5 1056.5 c 128,-1,14
 923 1122 923 1122 825 1157 c 128,-1,15
 727 1192 727 1192 578 1192 c 2,16,-1
 330 1192 l 1,17,-1
 330 758 l 1,18,-1
 699 758 l 1,19,-1
 699 598 l 1,20,-1
 330 598 l 1,21,-1
 330 161 l 1,22,-1
 578 161 l 2,23,24
 726 161 726 161 824 196.5 c 128,-1,25
 922 232 922 232 980 299.5 c 128,-1,26
 1038 367 1038 367 1061.5 464 c 128,-1,27
 1085 561 1085 561 1085 684 c 0,11,12
EndSplineSet
EndChar

StartChar: multiply
Encoding: 215 215 153
Width: 1282
GlyphClass: 2
Flags: W
LayerCount: 2
Fore
SplineSet
988 311 m 1,0,-1
 891 214 l 1,1,-1
 643 462 l 1,2,-1
 395 214 l 1,3,-1
 298 311 l 1,4,-1
 546 559 l 1,5,-1
 295 810 l 1,6,-1
 392 907 l 1,7,-1
 640 659 l 1,8,-1
 888 907 l 1,9,-1
 985 810 l 1,10,-1
 737 562 l 1,11,-1
 988 311 l 1,0,-1
EndSplineSet
EndChar

StartChar: Oslash
Encoding: 216 216 154
Width: 1472
GlyphClass: 2
Flags: W
LayerCount: 2
Fore
SplineSet
1400 1326 m 1,0,-1
 1237 1146 l 1,1,2
 1384 957 1384 957 1384 678 c 0,3,4
 1384 522 1384 522 1336 393 c 128,-1,5
 1288 264 1288 264 1202.5 171.5 c 128,-1,6
 1117 79 1117 79 998 27.5 c 128,-1,7
 879 -24 879 -24 737 -24 c 0,8,9
 617 -24 617 -24 514 13 c 128,-1,10
 411 50 411 50 321 122 c 1,11,-1
 166 -52 l 1,12,-1
 74 27 l 1,13,-1
 237 207 l 1,14,15
 89 400 89 400 89 678 c 0,16,17
 89 836 89 836 137.5 965 c 128,-1,18
 186 1094 186 1094 272.5 1185.5 c 128,-1,19
 359 1277 359 1277 478 1327 c 128,-1,20
 597 1377 597 1377 737 1377 c 0,21,22
 860 1377 860 1377 962 1340 c 128,-1,23
 1064 1303 1064 1303 1151 1231 c 1,24,-1
 1307 1404 l 1,25,-1
 1400 1326 l 1,0,-1
1041 1107 m 1,26,27
 978 1164 978 1164 903.5 1193 c 128,-1,28
 829 1222 829 1222 740 1222 c 0,29,30
 639 1222 639 1222 553.5 1185 c 128,-1,31
 468 1148 468 1148 406 1078 c 128,-1,32
 344 1008 344 1008 309.5 907 c 128,-1,33
 275 806 275 806 275 678 c 0,34,35
 275 576 275 576 295 493 c 128,-1,36
 315 410 315 410 356 340 c 1,37,-1
 1041 1107 l 1,26,27
434 246 m 1,38,39
 556 130 556 130 736 130 c 0,40,41
 837 130 837 130 922 167 c 128,-1,42
 1007 204 1007 204 1068.5 274.5 c 128,-1,43
 1130 345 1130 345 1164.5 447 c 128,-1,44
 1199 549 1199 549 1199 678 c 0,45,46
 1199 779 1199 779 1179 861.5 c 128,-1,47
 1159 944 1159 944 1116 1013 c 1,48,-1
 434 246 l 1,38,39
EndSplineSet
EndChar

StartChar: Thorn
Encoding: 222 222 160
Width: 1262
GlyphClass: 2
Flags: W
LayerCount: 2
Fore
SplineSet
330 1089 m 1,0,-1
 658 1089 l 2,1,2
 739 1089 739 1089 808.5 1083 c 128,-1,3
 878 1077 878 1077 934.5 1059 c 128,-1,4
 991 1041 991 1041 1035.5 1008.5 c 128,-1,5
 1080 976 1080 976 1112 924 c 0,6,7
 1178 817 1178 817 1178 693 c 0,8,9
 1178 487 1178 487 1047.5 381 c 128,-1,10
 917 275 917 275 670 275 c 2,11,-1
 330 275 l 1,12,-1
 330 0 l 1,13,-1
 151 0 l 1,14,-1
 151 1353 l 1,15,-1
 330 1353 l 1,16,-1
 330 1089 l 1,0,-1
330 436 m 1,17,-1
 674 436 l 2,18,19
 760 436 760 436 820.5 452.5 c 128,-1,20
 881 469 881 469 919.5 500.5 c 128,-1,21
 958 532 958 532 975.5 579 c 128,-1,22
 993 626 993 626 993 686 c 0,23,24
 993 726 993 726 982 763 c 128,-1,25
 971 800 971 800 952 829.5 c 128,-1,26
 933 859 933 859 906.5 879.5 c 128,-1,27
 880 900 880 900 850 909 c 0,28,29
 818 919 818 919 773 923 c 128,-1,30
 728 927 728 927 668 927 c 2,31,-1
 330 927 l 1,32,-1
 330 436 l 1,17,-1
EndSplineSet
EndChar

StartChar: germandbls
Encoding: 223 223 161
Width: 1155
GlyphClass: 2
Flags: W
LayerCount: 2
Fore
SplineSet
129 0 m 1,0,-1
 129 924 l 2,1,2
 129 1377 129 1377 529 1377 c 0,3,4
 608 1377 608 1377 671.5 1356 c 128,-1,5
 735 1335 735 1335 780 1299 c 128,-1,6
 825 1263 825 1263 849.5 1214.5 c 128,-1,7
 874 1166 874 1166 874 1111 c 0,8,9
 874 1065 874 1065 851.5 999.5 c 128,-1,10
 829 934 829 934 781 852 c 0,11,12
 758 814 758 814 747 785 c 128,-1,13
 736 756 736 756 736 736 c 0,14,15
 736 715 736 715 741.5 698.5 c 128,-1,16
 747 682 747 682 765 664 c 128,-1,17
 783 646 783 646 816.5 622 c 128,-1,18
 850 598 850 598 907 561 c 0,19,20
 962 524 962 524 998 492 c 128,-1,21
 1034 460 1034 460 1055 427.5 c 128,-1,22
 1076 395 1076 395 1084.5 361 c 128,-1,23
 1093 327 1093 327 1093 287 c 0,24,25
 1093 224 1093 224 1068 167.5 c 128,-1,26
 1043 111 1043 111 998.5 68.5 c 128,-1,27
 954 26 954 26 891.5 1 c 128,-1,28
 829 -24 829 -24 754 -24 c 0,29,30
 685 -24 685 -24 626.5 -6 c 128,-1,31
 568 12 568 12 524.5 45 c 128,-1,32
 481 78 481 78 454.5 125 c 128,-1,33
 428 172 428 172 425 230 c 1,34,-1
 591 230 l 1,35,36
 608 114 608 114 750 114 c 0,37,38
 788 114 788 114 819 126 c 128,-1,39
 850 138 850 138 871.5 159 c 128,-1,40
 893 180 893 180 905 209.5 c 128,-1,41
 917 239 917 239 917 275 c 0,42,43
 917 307 917 307 911 329 c 128,-1,44
 905 351 905 351 887.5 370.5 c 128,-1,45
 870 390 870 390 839 411 c 128,-1,46
 808 432 808 432 758 464 c 0,47,48
 710 494 710 494 673 522.5 c 128,-1,49
 636 551 636 551 611 580.5 c 128,-1,50
 586 610 586 610 573.5 641.5 c 128,-1,51
 561 673 561 673 561 709 c 0,52,53
 561 741 561 741 578.5 787.5 c 128,-1,54
 596 834 596 834 629 894 c 0,55,56
 712 1042 712 1042 712 1094 c 0,57,58
 712 1125 712 1125 698 1151.5 c 128,-1,59
 684 1178 684 1178 659 1197.5 c 128,-1,60
 634 1217 634 1217 600 1227.5 c 128,-1,61
 566 1238 566 1238 526 1238 c 0,62,63
 475 1238 475 1238 434 1224 c 128,-1,64
 393 1210 393 1210 363.5 1174 c 128,-1,65
 334 1138 334 1138 318 1075.5 c 128,-1,66
 302 1013 302 1013 302 916 c 2,67,-1
 302 0 l 1,68,-1
 129 0 l 1,0,-1
EndSplineSet
EndChar

StartChar: aring
Encoding: 229 229 167
Width: 1052
GlyphClass: 2
Flags: W
LayerCount: 2
Fore
SplineSet
750 257 m 1,0,-1
 750 475 l 1,1,-1
 629 475 l 2,2,3
 250 475 250 475 250 269 c 0,4,5
 250 194 250 194 306.5 154 c 128,-1,6
 363 114 363 114 456 114 c 0,7,8
 499 114 499 114 541.5 124 c 128,-1,9
 584 134 584 134 622.5 152.5 c 128,-1,10
 661 171 661 171 693.5 197.5 c 128,-1,11
 726 224 726 224 750 257 c 1,0,-1
750 99 m 1,12,13
 613 -24 613 -24 406 -24 c 0,14,15
 335 -24 335 -24 274.5 -3.5 c 128,-1,16
 214 17 214 17 169 54 c 128,-1,17
 124 91 124 91 98.5 143 c 128,-1,18
 73 195 73 195 73 259 c 0,19,20
 73 603 73 603 664 603 c 2,21,-1
 750 603 l 1,22,23
 750 666 750 666 746 715 c 128,-1,24
 742 764 742 764 720 797.5 c 128,-1,25
 698 831 698 831 650 848.5 c 128,-1,26
 602 866 602 866 515 866 c 0,27,28
 283 866 283 866 275 699 c 1,29,-1
 99 699 l 1,30,31
 118 1003 118 1003 525 1003 c 0,32,33
 617 1003 617 1003 691 987 c 128,-1,34
 765 971 765 971 816.5 929 c 128,-1,35
 868 887 868 887 896 815 c 128,-1,36
 924 743 924 743 924 632 c 2,37,-1
 924 0 l 1,38,-1
 750 0 l 1,39,-1
 750 99 l 1,12,13
526 1423 m 0,40,41
 560 1423 560 1423 591 1409 c 128,-1,42
 622 1395 622 1395 644.5 1372 c 128,-1,43
 667 1349 667 1349 680.5 1318.5 c 128,-1,44
 694 1288 694 1288 694 1255 c 0,45,46
 694 1221 694 1221 681 1191 c 128,-1,47
 668 1161 668 1161 645.5 1138 c 128,-1,48
 623 1115 623 1115 592 1101.5 c 128,-1,49
 561 1088 561 1088 526 1088 c 256,50,51
 491 1088 491 1088 461 1101 c 128,-1,52
 431 1114 431 1114 408.5 1136.5 c 128,-1,53
 386 1159 386 1159 373 1189.5 c 128,-1,54
 360 1220 360 1220 360 1255 c 0,55,56
 360 1289 360 1289 373 1319.5 c 128,-1,57
 386 1350 386 1350 408.5 1373 c 128,-1,58
 431 1396 431 1396 461 1409.5 c 128,-1,59
 491 1423 491 1423 526 1423 c 0,40,41
526 1154 m 0,60,61
 547 1154 547 1154 565 1162 c 128,-1,62
 583 1170 583 1170 596.5 1183.5 c 128,-1,63
 610 1197 610 1197 617.5 1215.5 c 128,-1,64
 625 1234 625 1234 625 1255 c 0,65,66
 625 1275 625 1275 617.5 1293 c 128,-1,67
 610 1311 610 1311 596.5 1324.5 c 128,-1,68
 583 1338 583 1338 565 1346 c 128,-1,69
 547 1354 547 1354 526 1354 c 0,70,71
 506 1354 506 1354 488.5 1346 c 128,-1,72
 471 1338 471 1338 457.5 1324.5 c 128,-1,73
 444 1311 444 1311 436 1293 c 128,-1,74
 428 1275 428 1275 428 1255 c 0,75,76
 428 1234 428 1234 436 1215.5 c 128,-1,77
 444 1197 444 1197 457.5 1183.5 c 128,-1,78
 471 1170 471 1170 488.5 1162 c 128,-1,79
 506 1154 506 1154 526 1154 c 0,60,61
EndSplineSet
EndChar

StartChar: ae
Encoding: 230 230 168
Width: 1682
GlyphClass: 2
Flags: W
LayerCount: 2
Fore
SplineSet
732 404 m 2,0,-1
 732 475 l 1,1,-1
 613 475 l 2,2,3
 250 475 250 475 250 269 c 0,4,5
 250 114 250 114 446 114 c 0,6,7
 510 114 510 114 563 132.5 c 128,-1,8
 616 151 616 151 653.5 187.5 c 128,-1,9
 691 224 691 224 711.5 278.5 c 128,-1,10
 732 333 732 333 732 404 c 2,0,-1
805 166 m 1,11,12
 779 125 779 125 746.5 90 c 128,-1,13
 714 55 714 55 667 29.5 c 128,-1,14
 620 4 620 4 554.5 -10 c 128,-1,15
 489 -24 489 -24 398 -24 c 0,16,17
 325 -24 325 -24 265 -3.5 c 128,-1,18
 205 17 205 17 162.5 54.5 c 128,-1,19
 120 92 120 92 96.5 144 c 128,-1,20
 73 196 73 196 73 259 c 0,21,22
 73 603 73 603 645 603 c 2,23,-1
 732 603 l 1,24,25
 732 663 732 663 726 711.5 c 128,-1,26
 720 760 720 760 697 794.5 c 128,-1,27
 674 829 674 829 629 847.5 c 128,-1,28
 584 866 584 866 506 866 c 0,29,30
 289 866 289 866 275 699 c 1,31,-1
 99 699 l 1,32,33
 123 1003 123 1003 515 1003 c 0,34,35
 764 1003 764 1003 852 875 c 1,36,37
 974 1003 974 1003 1165 1003 c 0,38,39
 1270 1003 1270 1003 1353.5 968.5 c 128,-1,40
 1437 934 1437 934 1494.5 868 c 128,-1,41
 1552 802 1552 802 1583 706.5 c 128,-1,42
 1614 611 1614 611 1614 490 c 2,43,-1
 1614 448 l 1,44,-1
 904 448 l 1,45,46
 910 363 910 363 932.5 300 c 128,-1,47
 955 237 955 237 991.5 196 c 128,-1,48
 1028 155 1028 155 1076.5 134.5 c 128,-1,49
 1125 114 1125 114 1184 114 c 0,50,51
 1227 114 1227 114 1268 125.5 c 128,-1,52
 1309 137 1309 137 1341.5 159.5 c 128,-1,53
 1374 182 1374 182 1394.5 215 c 128,-1,54
 1415 248 1415 248 1418 292 c 1,55,-1
 1596 292 l 1,56,57
 1585 217 1585 217 1551 158 c 128,-1,58
 1517 99 1517 99 1463 58.5 c 128,-1,59
 1409 18 1409 18 1338 -3 c 128,-1,60
 1267 -24 1267 -24 1184 -24 c 0,61,62
 1056 -24 1056 -24 962 24 c 128,-1,63
 868 72 868 72 805 166 c 1,11,12
1431 585 m 1,64,65
 1389 866 1389 866 1165 866 c 0,66,67
 946 866 946 866 908 585 c 1,68,-1
 1431 585 l 1,64,65
EndSplineSet
EndChar

StartChar: igrave
Encoding: 236 236 174
Width: 430
GlyphClass: 2
Flags: W
LayerCount: 2
Fore
SplineSet
302 0 m 1,0,-1
 129 0 l 1,1,-1
 129 979 l 1,2,-1
 302 979 l 1,3,-1
 302 0 l 1,0,-1
203 1380 m 1,4,-1
 327 1119 l 1,5,-1
 189 1119 l 1,6,-1
 -15 1380 l 1,7,-1
 203 1380 l 1,4,-1
EndSplineSet
EndChar

StartChar: iacute
Encoding: 237 237 175
Width: 430
GlyphClass: 2
Flags: W
LayerCount: 2
Fore
SplineSet
302 0 m 1,0,-1
 129 0 l 1,1,-1
 129 979 l 1,2,-1
 302 979 l 1,3,-1
 302 0 l 1,0,-1
453 1380 m 1,4,-1
 249 1119 l 1,5,-1
 111 1119 l 1,6,-1
 235 1380 l 1,7,-1
 453 1380 l 1,4,-1
EndSplineSet
EndChar

StartChar: icircumflex
Encoding: 238 238 176
Width: 430
GlyphClass: 2
Flags: W
LayerCount: 2
Fore
SplineSet
302 0 m 1,0,-1
 129 0 l 1,1,-1
 129 979 l 1,2,-1
 302 979 l 1,3,-1
 302 0 l 1,0,-1
509 1119 m 1,4,-1
 321 1119 l 1,5,-1
 215 1275 l 1,6,-1
 112 1119 l 1,7,-1
 -76 1119 l 1,8,-1
 129 1379 l 1,9,-1
 305 1379 l 1,10,-1
 509 1119 l 1,4,-1
EndSplineSet
EndChar

StartChar: idieresis
Encoding: 239 239 177
Width: 430
GlyphClass: 2
Flags: W
LayerCount: 2
Fore
SplineSet
302 0 m 1,0,-1
 129 0 l 1,1,-1
 129 979 l 1,2,-1
 302 979 l 1,3,-1
 302 0 l 1,0,-1
473 1161 m 1,4,-1
 303 1161 l 1,5,-1
 303 1352 l 1,6,-1
 473 1352 l 1,7,-1
 473 1161 l 1,4,-1
118 1161 m 1,8,-1
 -54 1161 l 1,9,-1
 -54 1352 l 1,10,-1
 118 1352 l 1,11,-1
 118 1161 l 1,8,-1
EndSplineSet
EndChar

StartChar: eth
Encoding: 240 240 178
Width: 1052
GlyphClass: 2
Flags: W
LayerCount: 2
Fore
SplineSet
683 1185 m 1,0,1
 764 1092 764 1092 822 1004.5 c 128,-1,2
 880 917 880 917 915 835 c 0,3,4
 986 669 986 669 986 479 c 0,5,6
 986 361 986 361 953.5 267.5 c 128,-1,7
 921 174 921 174 861 109.5 c 128,-1,8
 801 45 801 45 716 10.5 c 128,-1,9
 631 -24 631 -24 526 -24 c 0,10,11
 423 -24 423 -24 338.5 10 c 128,-1,12
 254 44 254 44 193.5 108.5 c 128,-1,13
 133 173 133 173 99.5 266.5 c 128,-1,14
 66 360 66 360 66 479 c 0,15,16
 66 597 66 597 99 690 c 128,-1,17
 132 783 132 783 192 847 c 128,-1,18
 252 911 252 911 337 945 c 128,-1,19
 422 979 422 979 526 979 c 0,20,21
 567 979 567 979 603.5 971 c 128,-1,22
 640 963 640 963 674 946 c 1,23,24
 629 1043 629 1043 552 1130 c 1,25,-1
 327 1024 l 1,26,-1
 280 1112 l 1,27,-1
 479 1203 l 1,28,29
 441 1241 441 1241 394.5 1277.5 c 128,-1,30
 348 1314 348 1314 290 1353 c 1,31,-1
 491 1353 l 1,32,33
 534 1321 534 1321 561.5 1298.5 c 128,-1,34
 589 1276 589 1276 603 1262 c 1,35,-1
 802 1354 l 1,36,-1
 850 1266 l 1,37,-1
 683 1185 l 1,0,1
526 114 m 256,38,39
 588 114 588 114 639.5 136.5 c 128,-1,40
 691 159 691 159 727.5 205 c 128,-1,41
 764 251 764 251 784.5 319 c 128,-1,42
 805 387 805 387 805 479 c 0,43,44
 805 570 805 570 784.5 638 c 128,-1,45
 764 706 764 706 727.5 752 c 128,-1,46
 691 798 691 798 639.5 821 c 128,-1,47
 588 844 588 844 526 844 c 256,48,49
 464 844 464 844 412.5 821 c 128,-1,50
 361 798 361 798 324 752 c 128,-1,51
 287 706 287 706 266.5 638 c 128,-1,52
 246 570 246 570 246 479 c 0,53,54
 246 387 246 387 266.5 319 c 128,-1,55
 287 251 287 251 324 205 c 128,-1,56
 361 159 361 159 412.5 136.5 c 128,-1,57
 464 114 464 114 526 114 c 256,38,39
EndSplineSet
EndChar

StartChar: divide
Encoding: 247 247 185
Width: 1282
GlyphClass: 2
Flags: W
LayerCount: 2
Fore
SplineSet
243 490 m 1,0,-1
 243 631 l 1,1,-1
 1039 631 l 1,2,-1
 1039 490 l 1,3,-1
 243 490 l 1,0,-1
537 791 m 1,4,-1
 537 991 l 1,5,-1
 746 991 l 1,6,-1
 746 791 l 1,7,-1
 537 791 l 1,4,-1
537 130 m 1,8,-1
 537 330 l 1,9,-1
 746 330 l 1,10,-1
 746 130 l 1,11,-1
 537 130 l 1,8,-1
EndSplineSet
EndChar

StartChar: oslash
Encoding: 248 248 186
Width: 1052
GlyphClass: 2
Flags: W
LayerCount: 2
Fore
SplineSet
873 854 m 1,0,1
 986 717 986 717 986 490 c 0,2,3
 986 368 986 368 953 272.5 c 128,-1,4
 920 177 920 177 860 111 c 128,-1,5
 800 45 800 45 715 10.5 c 128,-1,6
 630 -24 630 -24 526 -24 c 0,7,8
 448 -24 448 -24 382.5 -4.5 c 128,-1,9
 317 15 317 15 259 53 c 1,10,-1
 166 -66 l 1,11,-1
 78 0 l 1,12,13
 129 63 129 63 153 95 c 128,-1,14
 177 127 177 127 176 127 c 0,15,16
 66 262 66 262 66 490 c 0,17,18
 66 611 66 611 99 706.5 c 128,-1,19
 132 802 132 802 192 868 c 128,-1,20
 252 934 252 934 337 968.5 c 128,-1,21
 422 1003 422 1003 526 1003 c 0,22,23
 603 1003 603 1003 669 984 c 128,-1,24
 735 965 735 965 792 927 c 1,25,-1
 885 1048 l 1,26,-1
 973 981 l 1,27,-1
 873 854 l 1,0,1
698 804 m 1,28,29
 624 866 624 866 526 866 c 0,30,31
 464 866 464 866 412.5 842.5 c 128,-1,32
 361 819 361 819 324 771.5 c 128,-1,33
 287 724 287 724 266.5 653.5 c 128,-1,34
 246 583 246 583 246 490 c 0,35,36
 246 357 246 357 284 269 c 1,37,-1
 698 804 l 1,28,29
352 176 m 1,38,39
 423 114 423 114 526 114 c 0,40,41
 588 114 588 114 639.5 137.5 c 128,-1,42
 691 161 691 161 727.5 208.5 c 128,-1,43
 764 256 764 256 784.5 326.5 c 128,-1,44
 805 397 805 397 805 490 c 0,45,46
 805 558 805 558 794.5 613.5 c 128,-1,47
 784 669 784 669 764 712 c 1,48,49
 355 176 355 176 352 176 c 1,38,39
EndSplineSet
EndChar

StartChar: thorn
Encoding: 254 254 192
Width: 1052
GlyphClass: 2
Flags: W
LayerCount: 2
Fore
SplineSet
302 863 m 1,0,1
 361 934 361 934 431 968.5 c 128,-1,2
 501 1003 501 1003 582 1003 c 0,3,4
 679 1003 679 1003 754 967 c 128,-1,5
 829 931 829 931 880.5 864.5 c 128,-1,6
 932 798 932 798 959 705 c 128,-1,7
 986 612 986 612 986 498 c 0,8,9
 986 379 986 379 954.5 282.5 c 128,-1,10
 923 186 923 186 867.5 118 c 128,-1,11
 812 50 812 50 736 13 c 128,-1,12
 660 -24 660 -24 571 -24 c 0,13,14
 490 -24 490 -24 423.5 0.5 c 128,-1,15
 357 25 357 25 302 76 c 1,16,-1
 302 -376 l 1,17,-1
 129 -376 l 1,18,-1
 129 1353 l 1,19,-1
 302 1353 l 1,20,-1
 302 863 l 1,0,1
302 233 m 1,21,22
 416 114 416 114 561 114 c 0,23,24
 616 114 616 114 661.5 138.5 c 128,-1,25
 707 163 707 163 738.5 211 c 128,-1,26
 770 259 770 259 787.5 331 c 128,-1,27
 805 403 805 403 805 498 c 0,28,29
 805 678 805 678 742.5 772 c 128,-1,30
 680 866 680 866 568 866 c 0,31,32
 422 866 422 866 302 698 c 1,33,-1
 302 233 l 1,21,22
EndSplineSet
EndChar

StartChar: dotlessi
Encoding: 305 305 194
Width: 430
GlyphClass: 2
Flags: W
LayerCount: 2
Fore
SplineSet
302 0 m 1,0,-1
 129 0 l 1,1,-1
 129 979 l 1,2,-1
 302 979 l 1,3,-1
 302 0 l 1,0,-1
EndSplineSet
EndChar

StartChar: OE
Encoding: 338 338 195
Width: 1890
GlyphClass: 2
Flags: W
LayerCount: 2
Fore
SplineSet
1791 0 m 1,0,-1
 1032 0 l 1,1,-1
 1032 179 l 1,2,3
 1002 133 1002 133 959.5 95.5 c 128,-1,4
 917 58 917 58 867.5 31.5 c 128,-1,5
 818 5 818 5 763 -9.5 c 128,-1,6
 708 -24 708 -24 653 -24 c 0,7,8
 523 -24 523 -24 418.5 23.5 c 128,-1,9
 314 71 314 71 241 161.5 c 128,-1,10
 168 252 168 252 128.5 382.5 c 128,-1,11
 89 513 89 513 89 678 c 0,12,13
 89 841 89 841 128 971 c 128,-1,14
 167 1101 167 1101 240.5 1191 c 128,-1,15
 314 1281 314 1281 418 1329 c 128,-1,16
 522 1377 522 1377 653 1377 c 0,17,18
 707 1377 707 1377 762 1362.5 c 128,-1,19
 817 1348 817 1348 866.5 1321.5 c 128,-1,20
 916 1295 916 1295 959 1258 c 128,-1,21
 1002 1221 1002 1221 1032 1176 c 1,22,-1
 1032 1353 l 1,23,-1
 1760 1353 l 1,24,-1
 1760 1192 l 1,25,-1
 1213 1192 l 1,26,-1
 1213 781 l 1,27,-1
 1709 781 l 1,28,-1
 1709 620 l 1,29,-1
 1213 620 l 1,30,-1
 1213 161 l 1,31,-1
 1791 161 l 1,32,-1
 1791 0 l 1,0,-1
652 130 m 0,33,34
 1032 130 1032 130 1032 678 c 0,35,36
 1032 1222 1032 1222 658 1222 c 0,37,38
 568 1222 568 1222 497 1186.5 c 128,-1,39
 426 1151 426 1151 376.5 1082 c 128,-1,40
 327 1013 327 1013 301 911.5 c 128,-1,41
 275 810 275 810 275 678 c 256,42,43
 275 546 275 546 300.5 443.5 c 128,-1,44
 326 341 326 341 374.5 271.5 c 128,-1,45
 423 202 423 202 493 166 c 128,-1,46
 563 130 563 130 652 130 c 0,33,34
EndSplineSet
EndChar

StartChar: oe
Encoding: 339 339 196
Width: 1786
GlyphClass: 2
Flags: W
LayerCount: 2
Fore
SplineSet
1720 448 m 1,0,-1
 981 448 l 1,1,2
 986 362 986 362 1011 299 c 128,-1,3
 1036 236 1036 236 1075.5 195 c 128,-1,4
 1115 154 1115 154 1166.5 134 c 128,-1,5
 1218 114 1218 114 1277 114 c 0,6,7
 1322 114 1322 114 1365 126 c 128,-1,8
 1408 138 1408 138 1442 160.5 c 128,-1,9
 1476 183 1476 183 1497.5 216.5 c 128,-1,10
 1519 250 1519 250 1522 292 c 1,11,-1
 1699 292 l 1,12,13
 1690 217 1690 217 1654 158 c 128,-1,14
 1618 99 1618 99 1562 58.5 c 128,-1,15
 1506 18 1506 18 1433 -3 c 128,-1,16
 1360 -24 1360 -24 1277 -24 c 0,17,18
 1030 -24 1030 -24 894 154 c 1,19,20
 772 -24 772 -24 526 -24 c 0,21,22
 423 -24 423 -24 338.5 10 c 128,-1,23
 254 44 254 44 193.5 110 c 128,-1,24
 133 176 133 176 99.5 271.5 c 128,-1,25
 66 367 66 367 66 490 c 0,26,27
 66 611 66 611 99 706.5 c 128,-1,28
 132 802 132 802 192 868 c 128,-1,29
 252 934 252 934 337 968.5 c 128,-1,30
 422 1003 422 1003 526 1003 c 0,31,32
 768 1003 768 1003 894 827 c 1,33,34
 1022 1003 1022 1003 1259 1003 c 0,35,36
 1365 1003 1365 1003 1450 968.5 c 128,-1,37
 1535 934 1535 934 1595 868 c 128,-1,38
 1655 802 1655 802 1687.5 706.5 c 128,-1,39
 1720 611 1720 611 1720 490 c 2,40,-1
 1720 448 l 1,0,-1
1534 585 m 1,41,42
 1524 655 1524 655 1500 707.5 c 128,-1,43
 1476 760 1476 760 1440 795 c 128,-1,44
 1404 830 1404 830 1358 848 c 128,-1,45
 1312 866 1312 866 1259 866 c 0,46,47
 1207 866 1207 866 1161.5 849 c 128,-1,48
 1116 832 1116 832 1080 797 c 128,-1,49
 1044 762 1044 762 1020 709 c 128,-1,50
 996 656 996 656 986 585 c 1,51,-1
 1534 585 l 1,41,42
526 114 m 256,52,53
 588 114 588 114 639.5 137.5 c 128,-1,54
 691 161 691 161 727.5 208.5 c 128,-1,55
 764 256 764 256 784.5 326.5 c 128,-1,56
 805 397 805 397 805 490 c 256,57,58
 805 583 805 583 784.5 653.5 c 128,-1,59
 764 724 764 724 727.5 771.5 c 128,-1,60
 691 819 691 819 639.5 842.5 c 128,-1,61
 588 866 588 866 526 866 c 256,62,63
 464 866 464 866 412.5 842.5 c 128,-1,64
 361 819 361 819 324 771.5 c 128,-1,65
 287 724 287 724 266.5 653.5 c 128,-1,66
 246 583 246 583 246 490 c 256,67,68
 246 397 246 397 266.5 326.5 c 128,-1,69
 287 256 287 256 324 208.5 c 128,-1,70
 361 161 361 161 412.5 137.5 c 128,-1,71
 464 114 464 114 526 114 c 256,52,53
EndSplineSet
EndChar

StartChar: Scaron
Encoding: 352 352 197
Width: 1255
GlyphClass: 2
Flags: W
LayerCount: 2
Fore
SplineSet
662 -24 m 0,0,1
 519 -24 519 -24 412 10 c 128,-1,2
 305 44 305 44 233.5 105 c 128,-1,3
 162 166 162 166 125 250.5 c 128,-1,4
 88 335 88 335 85 436 c 1,5,-1
 257 436 l 1,6,7
 264 359 264 359 298 302.5 c 128,-1,8
 332 246 332 246 385 209 c 128,-1,9
 438 172 438 172 506.5 154.5 c 128,-1,10
 575 137 575 137 653 137 c 0,11,12
 729 137 729 137 791 153 c 128,-1,13
 853 169 853 169 897 199 c 128,-1,14
 941 229 941 229 965 271.5 c 128,-1,15
 989 314 989 314 989 368 c 0,16,17
 989 424 989 424 967 462.5 c 128,-1,18
 945 501 945 501 895.5 530 c 128,-1,19
 846 559 846 559 765 582 c 128,-1,20
 684 605 684 605 567 629 c 0,21,22
 453 655 453 655 370.5 688 c 128,-1,23
 288 721 288 721 235 765.5 c 128,-1,24
 182 810 182 810 156.5 868 c 128,-1,25
 131 926 131 926 131 1001 c 0,26,27
 131 1083 131 1083 166 1152 c 128,-1,28
 201 1221 201 1221 264.5 1271 c 128,-1,29
 328 1321 328 1321 416.5 1349 c 128,-1,30
 505 1377 505 1377 613 1377 c 0,31,32
 727 1377 727 1377 820.5 1349 c 128,-1,33
 914 1321 914 1321 982 1268.5 c 128,-1,34
 1050 1216 1050 1216 1089 1140.5 c 128,-1,35
 1128 1065 1128 1065 1131 970 c 1,36,-1
 957 970 l 1,37,38
 930 1215 930 1215 621 1215 c 0,39,40
 470 1215 470 1215 388.5 1159 c 128,-1,41
 307 1103 307 1103 307 1008 c 0,42,43
 307 965 307 965 322 934.5 c 128,-1,44
 337 904 337 904 373 881 c 128,-1,45
 409 858 409 858 469 839.5 c 128,-1,46
 529 821 529 821 618 802 c 0,47,48
 709 783 709 783 780.5 762.5 c 128,-1,49
 852 742 852 742 905 722 c 0,50,51
 956 703 956 703 1003 673.5 c 128,-1,52
 1050 644 1050 644 1086 602.5 c 128,-1,53
 1122 561 1122 561 1143 506.5 c 128,-1,54
 1164 452 1164 452 1164 383 c 0,55,56
 1164 294 1164 294 1126.5 219.5 c 128,-1,57
 1089 145 1089 145 1022 91 c 128,-1,58
 955 37 955 37 863 6.5 c 128,-1,59
 771 -24 771 -24 662 -24 c 0,0,1
904 1699 m 1,60,-1
 699 1441 l 1,61,-1
 524 1441 l 1,62,-1
 319 1699 l 1,63,-1
 506 1699 l 1,64,-1
 612 1544 l 1,65,-1
 715 1699 l 1,66,-1
 904 1699 l 1,60,-1
EndSplineSet
EndChar

StartChar: scaron
Encoding: 353 353 198
Width: 946
GlyphClass: 2
Flags: W
LayerCount: 2
Fore
SplineSet
479 -24 m 0,0,1
 79 -24 79 -24 57 292 c 1,2,-1
 233 292 l 1,3,4
 234 114 234 114 477 114 c 0,5,6
 531 114 531 114 572.5 125.5 c 128,-1,7
 614 137 614 137 641.5 158 c 128,-1,8
 669 179 669 179 683.5 207.5 c 128,-1,9
 698 236 698 236 698 270 c 0,10,11
 698 305 698 305 687 326.5 c 128,-1,12
 676 348 676 348 645 364.5 c 128,-1,13
 614 381 614 381 558.5 396.5 c 128,-1,14
 503 412 503 412 414 436 c 0,15,16
 327 458 327 458 264 479 c 128,-1,17
 201 500 201 500 160.5 531 c 128,-1,18
 120 562 120 562 100.5 607 c 128,-1,19
 81 652 81 652 81 721 c 0,20,21
 81 781 81 781 106.5 832.5 c 128,-1,22
 132 884 132 884 179.5 922 c 128,-1,23
 227 960 227 960 294.5 981.5 c 128,-1,24
 362 1003 362 1003 446 1003 c 0,25,26
 832 1003 832 1003 838 729 c 1,27,-1
 666 729 l 1,28,29
 657 866 657 866 459 866 c 0,30,31
 415 866 415 866 377.5 857.5 c 128,-1,32
 340 849 340 849 312.5 832.5 c 128,-1,33
 285 816 285 816 269.5 791.5 c 128,-1,34
 254 767 254 767 254 736 c 0,35,36
 254 707 254 707 261.5 688.5 c 128,-1,37
 269 670 269 670 296 654.5 c 128,-1,38
 323 639 323 639 376.5 623 c 128,-1,39
 430 607 430 607 522 585 c 0,40,41
 611 564 611 564 677 541 c 128,-1,42
 743 518 743 518 786 485 c 128,-1,43
 829 452 829 452 850 404.5 c 128,-1,44
 871 357 871 357 871 287 c 0,45,46
 871 221 871 221 843.5 164 c 128,-1,47
 816 107 816 107 765 65.5 c 128,-1,48
 714 24 714 24 641.5 0 c 128,-1,49
 569 -24 569 -24 479 -24 c 0,0,1
729 1379 m 1,50,-1
 525 1116 l 1,51,-1
 347 1116 l 1,52,-1
 142 1379 l 1,53,-1
 330 1379 l 1,54,-1
 436 1220 l 1,55,-1
 540 1379 l 1,56,-1
 729 1379 l 1,50,-1
EndSplineSet
EndChar

StartChar: Zcaron
Encoding: 381 381 200
Width: 1157
GlyphClass: 2
Flags: W
LayerCount: 2
Fore
SplineSet
1105 0 m 1,0,-1
 35 0 l 1,1,-1
 35 168 l 1,2,-1
 874 1192 l 1,3,-1
 112 1192 l 1,4,-1
 112 1353 l 1,5,-1
 1080 1353 l 1,6,-1
 1080 1184 l 1,7,-1
 241 161 l 1,8,-1
 1105 161 l 1,9,-1
 1105 0 l 1,0,-1
870 1701 m 1,10,-1
 666 1441 l 1,11,-1
 488 1441 l 1,12,-1
 284 1701 l 1,13,-1
 473 1701 l 1,14,-1
 577 1544 l 1,15,-1
 682 1701 l 1,16,-1
 870 1701 l 1,10,-1
EndSplineSet
EndChar

StartChar: zcaron
Encoding: 382 382 201
Width: 946
GlyphClass: 2
Flags: W
LayerCount: 2
Fore
SplineSet
905 0 m 1,0,-1
 38 0 l 1,1,-1
 38 149 l 1,2,-1
 648 832 l 1,3,-1
 74 832 l 1,4,-1
 74 979 l 1,5,-1
 874 979 l 1,6,-1
 874 832 l 1,7,-1
 265 149 l 1,8,-1
 905 149 l 1,9,-1
 905 0 l 1,0,-1
768 1379 m 1,10,-1
 564 1119 l 1,11,-1
 386 1119 l 1,12,-1
 182 1379 l 1,13,-1
 371 1379 l 1,14,-1
 475 1222 l 1,15,-1
 580 1379 l 1,16,-1
 768 1379 l 1,10,-1
EndSplineSet
EndChar

StartChar: florin
Encoding: 402 402 202
Width: 1051
GlyphClass: 2
Flags: W
LayerCount: 2
Fore
SplineSet
972 1183 m 1,0,1
 897 1203 897 1203 831 1203 c 0,2,3
 810 1203 810 1203 793 1199.5 c 128,-1,4
 776 1196 776 1196 761.5 1181 c 128,-1,5
 747 1166 747 1166 735 1136.5 c 128,-1,6
 723 1107 723 1107 714 1056 c 2,7,-1
 696 959 l 1,8,-1
 884 959 l 1,9,-1
 862 831 l 1,10,-1
 672 831 l 1,11,-1
 497 -157 l 2,12,13
 486 -220 486 -220 466 -265.5 c 128,-1,14
 446 -311 446 -311 416 -340.5 c 128,-1,15
 386 -370 386 -370 345 -383.5 c 128,-1,16
 304 -397 304 -397 249 -397 c 0,17,18
 154 -397 154 -397 60 -378 c 1,19,-1
 60 -231 l 1,20,21
 111 -241 111 -241 149.5 -246 c 128,-1,22
 188 -251 188 -251 215 -251 c 0,23,24
 246 -251 246 -251 266 -242.5 c 128,-1,25
 286 -234 286 -234 298.5 -217 c 128,-1,26
 311 -200 311 -200 318.5 -173 c 128,-1,27
 326 -146 326 -146 332 -110 c 2,28,-1
 497 831 l 1,29,-1
 312 831 l 1,30,-1
 332 959 l 1,31,-1
 520 959 l 1,32,-1
 540 1084 l 2,33,34
 553 1168 553 1168 577.5 1221.5 c 128,-1,35
 602 1275 602 1275 635.5 1305.5 c 128,-1,36
 669 1336 669 1336 711 1347.5 c 128,-1,37
 753 1359 753 1359 803 1359 c 0,38,39
 849 1359 849 1359 891 1355.5 c 128,-1,40
 933 1352 933 1352 972 1345 c 1,41,-1
 972 1183 l 1,0,1
EndSplineSet
EndChar

StartChar: circumflex
Encoding: 710 710 203
Width: 713
GlyphClass: 2
Flags: W
LayerCount: 2
Fore
SplineSet
649 1119 m 1,0,-1
 460 1119 l 1,1,-1
 356 1275 l 1,2,-1
 252 1119 l 1,3,-1
 65 1119 l 1,4,-1
 269 1379 l 1,5,-1
 445 1379 l 1,6,-1
 649 1119 l 1,0,-1
EndSplineSet
EndChar

StartChar: caron
Encoding: 711 711 204
Width: 713
GlyphClass: 2
Flags: W
LayerCount: 2
Fore
SplineSet
445 1119 m 1,0,-1
 269 1119 l 1,1,-1
 65 1379 l 1,2,-1
 252 1379 l 1,3,-1
 356 1223 l 1,4,-1
 460 1379 l 1,5,-1
 649 1379 l 1,6,-1
 445 1119 l 1,0,-1
EndSplineSet
EndChar

StartChar: ring
Encoding: 730 730 205
Width: 534
GlyphClass: 2
Flags: W
LayerCount: 2
Fore
SplineSet
266 1423 m 0,0,1
 300 1423 300 1423 331 1409 c 128,-1,2
 362 1395 362 1395 384.5 1372 c 128,-1,3
 407 1349 407 1349 420.5 1318.5 c 128,-1,4
 434 1288 434 1288 434 1255 c 0,5,6
 434 1221 434 1221 421 1191 c 128,-1,7
 408 1161 408 1161 385.5 1138 c 128,-1,8
 363 1115 363 1115 332 1101.5 c 128,-1,9
 301 1088 301 1088 266 1088 c 256,10,11
 231 1088 231 1088 201 1101 c 128,-1,12
 171 1114 171 1114 148.5 1136.5 c 128,-1,13
 126 1159 126 1159 113 1189.5 c 128,-1,14
 100 1220 100 1220 100 1255 c 0,15,16
 100 1289 100 1289 113 1319.5 c 128,-1,17
 126 1350 126 1350 148.5 1373 c 128,-1,18
 171 1396 171 1396 201 1409.5 c 128,-1,19
 231 1423 231 1423 266 1423 c 0,0,1
266 1154 m 0,20,21
 287 1154 287 1154 305 1162 c 128,-1,22
 323 1170 323 1170 336.5 1183.5 c 128,-1,23
 350 1197 350 1197 357.5 1215.5 c 128,-1,24
 365 1234 365 1234 365 1255 c 0,25,26
 365 1275 365 1275 357.5 1293 c 128,-1,27
 350 1311 350 1311 336.5 1324.5 c 128,-1,28
 323 1338 323 1338 305 1346 c 128,-1,29
 287 1354 287 1354 266 1354 c 0,30,31
 246 1354 246 1354 228.5 1346 c 128,-1,32
 211 1338 211 1338 197.5 1324.5 c 128,-1,33
 184 1311 184 1311 176 1293 c 128,-1,34
 168 1275 168 1275 168 1255 c 0,35,36
 168 1234 168 1234 176 1215.5 c 128,-1,37
 184 1197 184 1197 197.5 1183.5 c 128,-1,38
 211 1170 211 1170 228.5 1162 c 128,-1,39
 246 1154 246 1154 266 1154 c 0,20,21
EndSplineSet
EndChar

StartChar: tilde
Encoding: 732 732 206
Width: 748
GlyphClass: 2
Flags: W
LayerCount: 2
Fore
SplineSet
684 1361 m 1,0,1
 684 1311 684 1311 670 1272 c 128,-1,2
 656 1233 656 1233 631 1206 c 128,-1,3
 606 1179 606 1179 571.5 1164.5 c 128,-1,4
 537 1150 537 1150 497 1150 c 0,5,6
 476 1150 476 1150 439 1162 c 128,-1,7
 402 1174 402 1174 363.5 1188.5 c 128,-1,8
 325 1203 325 1203 293 1215 c 128,-1,9
 261 1227 261 1227 252 1227 c 0,10,11
 195 1227 195 1227 187 1147 c 1,12,-1
 65 1147 l 1,13,14
 65 1196 65 1196 79.5 1235.5 c 128,-1,15
 94 1275 94 1275 119 1303 c 128,-1,16
 144 1331 144 1331 178 1345.5 c 128,-1,17
 212 1360 212 1360 252 1360 c 0,18,19
 271 1360 271 1360 307.5 1347.5 c 128,-1,20
 344 1335 344 1335 382.5 1320 c 128,-1,21
 421 1305 421 1305 453.5 1292.5 c 128,-1,22
 486 1280 486 1280 497 1280 c 0,23,24
 554 1280 554 1280 563 1361 c 1,25,-1
 684 1361 l 1,0,1
EndSplineSet
EndChar

StartChar: uni0951
Encoding: 2385 2385 207
Width: 0
GlyphClass: 2
Flags: W
LayerCount: 2
Fore
SplineSet
-290 1480 m 1,0,-1
 -386 1480 l 1,1,-1
 -386 2168 l 1,2,-1
 -290 2168 l 1,3,-1
 -290 1480 l 1,0,-1
-338 1247 m 1024,4,-1
EndSplineSet
EndChar

StartChar: uni0952
Encoding: 2386 2386 208
Width: 0
GlyphClass: 2
Flags: W
LayerCount: 2
Fore
SplineSet
-482 86 m 1024,0,-1
10 -448 m 1,1,-1
 -950 -448 l 1,2,-1
 -950 -360 l 1,3,-1
 10 -360 l 1,4,-1
 10 -448 l 1,1,-1
-482 505 m 1024,5,-1
EndSplineSet
EndChar

StartChar: uni0964
Encoding: 2404 2404 209
Width: 854
GlyphClass: 2
Flags: W
LayerCount: 2
Fore
SplineSet
592 -107 m 1,0,-1
 416 -107 l 1,1,-1
 416 1010 l 1,2,-1
 592 1010 l 1,3,-1
 592 -107 l 1,0,-1
EndSplineSet
EndChar

StartChar: uni0965
Encoding: 2405 2405 210
Width: 1254
GlyphClass: 2
Flags: W
LayerCount: 2
Fore
SplineSet
992 -107 m 1,0,-1
 816 -107 l 1,1,-1
 816 1010 l 1,2,-1
 992 1010 l 1,3,-1
 992 -107 l 1,0,-1
592 -107 m 1,4,-1
 416 -107 l 1,5,-1
 416 1010 l 1,6,-1
 592 1010 l 1,7,-1
 592 -107 l 1,4,-1
EndSplineSet
EndChar

StartChar: uni0C01
Encoding: 3073 3073 211
Width: 558
GlyphClass: 2
Flags: W
LayerCount: 2
Fore
SplineSet
493 -20 m 1,0,1
 304 -20 304 -20 183 111 c 0,2,3
 64 239 64 239 64 429 c 0,4,5
 64 608 64 608 189 733 c 128,-1,6
 314 858 314 858 493 858 c 1,7,-1
 493 698 l 1,8,9
 382 698 382 698 303 619 c 128,-1,10
 224 540 224 540 224 429 c 256,11,12
 224 318 224 318 304 248 c 0,13,14
 381 180 381 180 493 180 c 1,15,-1
 493 -20 l 1,0,1
EndSplineSet
EndChar

StartChar: uni0C02
Encoding: 3074 3074 212
Width: 986
GlyphClass: 2
Flags: W
LayerCount: 2
Fore
SplineSet
922 429 m 0,0,1
 922 239 922 239 803 111 c 0,2,3
 682 -20 682 -20 493 -20 c 256,4,5
 304 -20 304 -20 183 111 c 0,6,7
 64 239 64 239 64 429 c 0,8,9
 64 608 64 608 189 733 c 128,-1,10
 314 858 314 858 493 858 c 256,11,12
 672 858 672 858 797 733 c 128,-1,13
 922 608 922 608 922 429 c 0,0,1
762 429 m 256,14,15
 762 540 762 540 683 619 c 128,-1,16
 604 698 604 698 493 698 c 256,17,18
 382 698 382 698 303 619 c 128,-1,19
 224 540 224 540 224 429 c 256,20,21
 224 318 224 318 304 248 c 0,22,23
 381 180 381 180 493 180 c 256,24,25
 605 180 605 180 683.5 249 c 128,-1,26
 762 318 762 318 762 429 c 256,14,15
EndSplineSet
Position2: "Single Positioning lookup 30 subtable" dx=-200 dy=0 dh=-200 dv=0
EndChar

StartChar: uni0C03
Encoding: 3075 3075 213
Width: 352
GlyphClass: 2
Flags: W
LayerCount: 2
Fore
SplineSet
347 132 m 0,0,1
 347 98 347 98 333.5 67 c 128,-1,2
 320 36 320 36 297 12 c 128,-1,3
 274 -12 274 -12 243 -26 c 128,-1,4
 212 -40 212 -40 177 -40 c 256,5,6
 142 -40 142 -40 111 -26 c 128,-1,7
 80 -12 80 -12 56.5 11.5 c 128,-1,8
 33 35 33 35 19 66 c 128,-1,9
 5 97 5 97 5 132 c 256,10,11
 5 167 5 167 19 198 c 128,-1,12
 33 229 33 229 56.5 252.5 c 128,-1,13
 80 276 80 276 111 289.5 c 128,-1,14
 142 303 142 303 177 303 c 256,15,16
 212 303 212 303 243 289.5 c 128,-1,17
 274 276 274 276 297 252.5 c 128,-1,18
 320 229 320 229 333.5 198 c 128,-1,19
 347 167 347 167 347 132 c 0,0,1
282 134 m 0,20,21
 282 154 282 154 273.5 173 c 128,-1,22
 265 192 265 192 251 206.5 c 128,-1,23
 237 221 237 221 217.5 230 c 128,-1,24
 198 239 198 239 177 239 c 0,25,26
 155 239 155 239 135.5 230 c 128,-1,27
 116 221 116 221 101.5 206.5 c 128,-1,28
 87 192 87 192 78.5 173 c 128,-1,29
 70 154 70 154 70 134 c 0,30,31
 70 113 70 113 78.5 93.5 c 128,-1,32
 87 74 87 74 101.5 59 c 128,-1,33
 116 44 116 44 135.5 35.5 c 128,-1,34
 155 27 155 27 177 27 c 0,35,36
 198 27 198 27 217.5 35.5 c 128,-1,37
 237 44 237 44 251 59 c 128,-1,38
 265 74 265 74 273.5 93.5 c 128,-1,39
 282 113 282 113 282 134 c 0,20,21
347 668 m 256,40,41
 347 634 347 634 333.5 602.5 c 128,-1,42
 320 571 320 571 297 547 c 128,-1,43
 274 523 274 523 243 509 c 128,-1,44
 212 495 212 495 177 495 c 256,45,46
 142 495 142 495 111 508.5 c 128,-1,47
 80 522 80 522 56.5 545.5 c 128,-1,48
 33 569 33 569 19 600.5 c 128,-1,49
 5 632 5 632 5 668 c 0,50,51
 5 703 5 703 19 734 c 128,-1,52
 33 765 33 765 56.5 788 c 128,-1,53
 80 811 80 811 111 824.5 c 128,-1,54
 142 838 142 838 177 838 c 256,55,56
 212 838 212 838 243 824.5 c 128,-1,57
 274 811 274 811 297 787.5 c 128,-1,58
 320 764 320 764 333.5 733 c 128,-1,59
 347 702 347 702 347 668 c 256,40,41
282 668 m 256,60,61
 282 689 282 689 273.5 708 c 128,-1,62
 265 727 265 727 251 741.5 c 128,-1,63
 237 756 237 756 217.5 765 c 128,-1,64
 198 774 198 774 177 774 c 0,65,66
 155 774 155 774 135.5 765 c 128,-1,67
 116 756 116 756 101.5 741.5 c 128,-1,68
 87 727 87 727 78.5 708 c 128,-1,69
 70 689 70 689 70 668 c 256,70,71
 70 647 70 647 78.5 627.5 c 128,-1,72
 87 608 87 608 101.5 594 c 128,-1,73
 116 580 116 580 135.5 571.5 c 128,-1,74
 155 563 155 563 177 563 c 0,75,76
 198 563 198 563 217.5 571.5 c 128,-1,77
 237 580 237 580 251 594 c 128,-1,78
 265 608 265 608 273.5 627.5 c 128,-1,79
 282 647 282 647 282 668 c 256,60,61
EndSplineSet
EndChar

StartChar: uni0C05
Encoding: 3077 3077 214
Width: 1464
GlyphClass: 2
Flags: W
LayerCount: 2
Fore
SplineSet
1400 614 m 0,0,1
 1400 327 1400 327 1211 151 c 0,2,3
 1027 -20 1027 -20 737 -20 c 0,4,5
 454 -20 454 -20 262 154 c 0,6,7
 64 334 64 334 64 614 c 0,8,9
 64 762 64 762 146 875 c 0,10,11
 237 1000 237 1000 380 1000 c 0,12,13
 492 1000 492 1000 571 921 c 128,-1,14
 650 842 650 842 650 730 c 256,15,16
 650 618 650 618 571 539 c 128,-1,17
 492 460 492 460 380 460 c 0,18,19
 292 460 292 460 233 514 c 1,20,21
 299 180 299 180 737 180 c 0,22,23
 959 180 959 180 1092 284 c 0,24,25
 1240 398 1240 398 1240 614 c 0,26,27
 1240 706 1240 706 1204 766 c 0,28,29
 1160 840 1160 840 1074 840 c 0,30,31
 1029 840 1029 840 997 808 c 128,-1,32
 965 776 965 776 965 731 c 0,33,34
 965 685 965 685 996.5 652.5 c 128,-1,35
 1028 620 1028 620 1074 620 c 1,36,-1
 1074 460 l 1,37,-1
 725 460 l 1,38,-1
 725 620 l 1,39,-1
 830 620 l 1,40,41
 805 668 805 668 805 731 c 0,42,43
 805 843 805 843 883.5 921.5 c 128,-1,44
 962 1000 962 1000 1074 1000 c 0,45,46
 1220 1000 1220 1000 1314 877 c 0,47,48
 1400 765 1400 765 1400 614 c 0,0,1
490 730 m 256,49,50
 490 776 490 776 458 808 c 128,-1,51
 426 840 426 840 380 840 c 0,52,53
 332 840 332 840 293 808.5 c 128,-1,54
 254 777 254 777 241 730 c 1,55,56
 250 683 250 683 290.5 651.5 c 128,-1,57
 331 620 331 620 380 620 c 0,58,59
 426 620 426 620 458 652 c 128,-1,60
 490 684 490 684 490 730 c 256,49,50
EndSplineSet
EndChar

StartChar: uni0C06
Encoding: 3078 3078 215
Width: 1508
GlyphClass: 2
Flags: W
LayerCount: 2
Fore
SplineSet
1445 731 m 0,0,1
 1445 660 1445 660 1399.5 590.5 c 128,-1,2
 1354 521 1354 521 1289 491 c 1,3,4
 1349 433 1349 433 1349 371 c 0,5,6
 1349 172 1349 172 1134 65 c 0,7,8
 964 -20 964 -20 742 -20 c 0,9,10
 534 -20 534 -20 372 75 c 0,11,12
 203 174 203 174 120 358 c 0,13,14
 64 482 64 482 64 614 c 0,15,16
 64 762 64 762 144 874 c 0,17,18
 233 1000 233 1000 375 1000 c 0,19,20
 487 1000 487 1000 566 921 c 128,-1,21
 645 842 645 842 645 730 c 256,22,23
 645 618 645 618 566 539 c 128,-1,24
 487 460 487 460 375 460 c 0,25,26
 287 460 287 460 228 514 c 1,27,28
 263 343 263 343 419 255 c 0,29,30
 553 180 553 180 742 180 c 0,31,32
 881 180 881 180 1005 212 c 0,33,34
 1189 259 1189 259 1189 355 c 0,35,36
 1189 399 1189 399 1128 429 c 1,37,-1
 784 429 l 1,38,-1
 784 589 l 1,39,-1
 966 589 l 1,40,41
 907 645 907 645 907 731 c 0,42,43
 907 844 907 844 985 922 c 128,-1,44
 1063 1000 1063 1000 1176 1000 c 0,45,46
 1290 1000 1290 1000 1367.5 922.5 c 128,-1,47
 1445 845 1445 845 1445 731 c 0,0,1
1286 730 m 0,48,49
 1286 776 1286 776 1254 808 c 128,-1,50
 1222 840 1222 840 1176 840 c 0,51,52
 1131 840 1131 840 1098.5 807.5 c 128,-1,53
 1066 775 1066 775 1066 730 c 0,54,55
 1066 637 1066 637 1151 591 c 1,56,57
 1286 608 1286 608 1286 730 c 0,48,49
485 730 m 256,58,59
 485 776 485 776 455.5 808 c 128,-1,60
 426 840 426 840 380 840 c 0,61,62
 332 840 332 840 293 808.5 c 128,-1,63
 254 777 254 777 241 730 c 1,64,65
 250 683 250 683 290.5 651.5 c 128,-1,66
 331 620 331 620 380 620 c 0,67,68
 426 620 426 620 455.5 652 c 128,-1,69
 485 684 485 684 485 730 c 256,58,59
EndSplineSet
EndChar

StartChar: uni0C07
Encoding: 3079 3079 216
Width: 1414
GlyphClass: 2
Flags: W
LayerCount: 2
Fore
SplineSet
1350 604 m 0,0,1
 1350 357 1350 357 1145 170 c 1,2,3
 1174 128 1174 128 1196 51 c 128,-1,4
 1218 -26 1218 -26 1219 -80 c 1,5,-1
 1059 -80 l 1,6,7
 1060 24 1060 24 1016 86 c 1,8,9
 930 26 930 26 871 4 c 0,10,11
 802 -22 802 -22 707 -22 c 0,12,13
 585 -22 585 -22 507 49.5 c 128,-1,14
 429 121 429 121 429 242 c 0,15,16
 429 345 429 345 504 415.5 c 128,-1,17
 579 486 579 486 683 486 c 0,18,19
 895 486 895 486 1053 304 c 1,20,21
 1111 360 1111 360 1150 442 c 0,22,23
 1190 528 1190 528 1190 604 c 0,24,25
 1190 707 1190 707 1143 770 c 0,26,27
 1090 840 1090 840 991 840 c 0,28,29
 899 840 899 840 843 783 c 128,-1,30
 787 726 787 726 787 633 c 1,31,-1
 627 633 l 1,32,33
 627 726 627 726 570.5 783 c 128,-1,34
 514 840 514 840 422 840 c 0,35,36
 337 840 337 840 282 784 c 128,-1,37
 227 728 227 728 227 643 c 0,38,39
 227 561 227 561 281 507 c 1,40,-1
 168 394 l 1,41,42
 65 497 65 497 65 641 c 0,43,44
 65 792 65 792 168 896 c 128,-1,45
 271 1000 271 1000 422 1000 c 0,46,47
 605 1000 605 1000 707 859 c 1,48,49
 740 928 740 928 828 967 c 0,50,51
 904 1000 904 1000 991 1000 c 0,52,53
 1158 1000 1158 1000 1257 884 c 0,54,55
 1350 774 1350 774 1350 604 c 0,0,1
930 215 m 1,56,57
 834 330 834 330 683 330 c 0,58,59
 646 330 646 330 617.5 304.5 c 128,-1,60
 589 279 589 279 589 242 c 0,61,62
 589 200 589 200 628 173 c 0,63,64
 663 149 663 149 707 149 c 0,65,66
 829 149 829 149 930 215 c 1,56,57
EndSplineSet
EndChar

StartChar: uni0C08
Encoding: 3080 3080 217
Width: 1782
GlyphClass: 2
Flags: W
LayerCount: 2
Fore
SplineSet
1281 793 m 1,0,1
 1311 838 1311 838 1359.5 866 c 128,-1,2
 1408 894 1408 894 1467 894 c 0,3,4
 1514 894 1514 894 1555.5 876 c 128,-1,5
 1597 858 1597 858 1627.5 827 c 128,-1,6
 1658 796 1658 796 1676 754.5 c 128,-1,7
 1694 713 1694 713 1694 666 c 0,8,9
 1694 584 1694 584 1643 521 c 1,10,11
 1719 455 1719 455 1719 361 c 0,12,13
 1719 319 1719 319 1703 281.5 c 128,-1,14
 1687 244 1687 244 1659 215.5 c 128,-1,15
 1631 187 1631 187 1593.5 170.5 c 128,-1,16
 1556 154 1556 154 1514 154 c 256,17,18
 1472 154 1472 154 1434 170.5 c 128,-1,19
 1396 187 1396 187 1368 215 c 128,-1,20
 1340 243 1340 243 1323.5 281 c 128,-1,21
 1307 319 1307 319 1307 361 c 0,22,23
 1307 399 1307 399 1323 440 c 1,24,-1
 1202 440 l 1,25,26
 1191 346 1191 346 1147.5 262.5 c 128,-1,27
 1104 179 1104 179 1037.5 116 c 128,-1,28
 971 53 971 53 886 16.5 c 128,-1,29
 801 -20 801 -20 706 -20 c 256,30,31
 611 -20 611 -20 526 16.5 c 128,-1,32
 441 53 441 53 374 116 c 128,-1,33
 307 179 307 179 264 262.5 c 128,-1,34
 221 346 221 346 210 440 c 1,35,-1
 64 440 l 1,36,-1
 64 566 l 1,37,-1
 210 566 l 1,38,39
 217 628 217 628 241 687 c 128,-1,40
 265 746 265 746 302.5 797 c 128,-1,41
 340 848 340 848 389.5 888 c 128,-1,42
 439 928 439 928 496 954 c 1,43,44
 489 962 489 962 471 983.5 c 128,-1,45
 453 1005 453 1005 423 1041 c 1,46,-1
 514 1131 l 1,47,48
 546 1093 546 1093 566.5 1071 c 128,-1,49
 587 1049 587 1049 595 1042 c 0,50,51
 644 1000 644 1000 706 1000 c 0,52,53
 783 1000 783 1000 896 1114 c 0,54,55
 921 1139 921 1139 959 1183.5 c 128,-1,56
 997 1228 997 1228 1049 1293 c 1,57,-1
 1157 1197 l 1,58,59
 1019 1022 1019 1022 932 947 c 1,60,61
 1166 828 1166 828 1202 566 c 1,62,-1
 1467 566 l 2,63,64
 1510 566 1510 566 1539 594.5 c 128,-1,65
 1568 623 1568 623 1568 666 c 0,66,67
 1568 686 1568 686 1559.5 704.5 c 128,-1,68
 1551 723 1551 723 1537 737 c 128,-1,69
 1523 751 1523 751 1505 759.5 c 128,-1,70
 1487 768 1487 768 1467 768 c 0,71,72
 1443 768 1443 768 1422.5 755.5 c 128,-1,73
 1402 743 1402 743 1388 724 c 1,74,-1
 1281 793 l 1,0,1
1040 566 m 1,75,76
 1028 626 1028 626 997 676 c 128,-1,77
 966 726 966 726 921.5 762.5 c 128,-1,78
 877 799 877 799 821.5 819.5 c 128,-1,79
 766 840 766 840 706 840 c 256,80,81
 646 840 646 840 590.5 819.5 c 128,-1,82
 535 799 535 799 490.5 762.5 c 128,-1,83
 446 726 446 726 415 676 c 128,-1,84
 384 626 384 626 372 566 c 1,85,-1
 1040 566 l 1,75,76
1041 440 m 1,86,-1
 371 440 l 1,87,88
 382 381 382 381 412 333 c 128,-1,89
 442 285 442 285 486 251 c 128,-1,90
 530 217 530 217 586.5 198.5 c 128,-1,91
 643 180 643 180 706 180 c 256,92,93
 769 180 769 180 825.5 198.5 c 128,-1,94
 882 217 882 217 926 251 c 128,-1,95
 970 285 970 285 1000 333 c 128,-1,96
 1030 381 1030 381 1041 440 c 1,86,-1
1593 361 m 256,97,98
 1593 394 1593 394 1570 417 c 128,-1,99
 1547 440 1547 440 1514 440 c 256,100,101
 1481 440 1481 440 1457 417 c 128,-1,102
 1433 394 1433 394 1433 361 c 256,103,104
 1433 328 1433 328 1457 304 c 128,-1,105
 1481 280 1481 280 1514 280 c 256,106,107
 1547 280 1547 280 1570 304 c 128,-1,108
 1593 328 1593 328 1593 361 c 256,97,98
EndSplineSet
EndChar

StartChar: uni0C09
Encoding: 3081 3081 218
Width: 1414
GlyphClass: 2
Flags: W
LayerCount: 2
Fore
SplineSet
1378 217 m 0,0,1
 1378 113 1378 113 1284 44 c 0,2,3
 1198 -20 1198 -20 1091 -20 c 0,4,5
 855 -20 855 -20 756 187 c 1,6,7
 724 95 724 95 642.5 37.5 c 128,-1,8
 561 -20 561 -20 464 -20 c 0,9,10
 279 -20 279 -20 167 119 c 0,11,12
 64 248 64 248 64 438 c 0,13,14
 64 699 64 699 252 854 c 0,15,16
 427 1000 427 1000 693 1000 c 1,17,-1
 693 1200 l 1,18,-1
 819 1200 l 1,19,-1
 819 1000 l 1,20,21
 1014 1000 1014 1000 1215 910 c 1,22,-1
 1135 761 l 1,23,24
 954 840 954 840 749 840 c 0,25,26
 349 840 349 840 258 614 c 1,27,-1
 1350 614 l 1,28,-1
 1350 488 l 1,29,-1
 229 488 l 1,30,31
 224 472 224 472 224 438 c 0,32,33
 224 180 224 180 464 180 c 0,34,35
 670 180 670 180 669 366 c 1,36,-1
 829 366 l 1,37,38
 828 192 828 192 1020 135 c 1,39,40
 1000 175 1000 175 1000 217 c 0,41,42
 1000 295 1000 295 1055.5 350.5 c 128,-1,43
 1111 406 1111 406 1189 406 c 256,44,45
 1267 406 1267 406 1322.5 350.5 c 128,-1,46
 1378 295 1378 295 1378 217 c 0,0,1
1259 217 m 0,47,48
 1259 246 1259 246 1238.5 266.5 c 128,-1,49
 1218 287 1218 287 1189 287 c 256,50,51
 1160 287 1160 287 1139.5 266.5 c 128,-1,52
 1119 246 1119 246 1119 217 c 0,53,54
 1119 163 1119 163 1161 128 c 1,55,56
 1259 128 1259 128 1259 217 c 0,47,48
EndSplineSet
EndChar

StartChar: uni0C0A
Encoding: 3082 3082 219
Width: 1862
GlyphClass: 2
Flags: W
LayerCount: 2
Fore
SplineSet
1362 848 m 1,0,1
 1392 893 1392 893 1440 921 c 128,-1,2
 1488 949 1488 949 1547 949 c 0,3,4
 1592 949 1592 949 1632 932 c 128,-1,5
 1672 915 1672 915 1702 885 c 128,-1,6
 1732 855 1732 855 1749 815 c 128,-1,7
 1766 775 1766 775 1766 730 c 0,8,9
 1766 654 1766 654 1714 590 c 1,10,11
 1798 527 1798 527 1798 425 c 0,12,13
 1798 383 1798 383 1782 345.5 c 128,-1,14
 1766 308 1766 308 1738 280.5 c 128,-1,15
 1710 253 1710 253 1672.5 237 c 128,-1,16
 1635 221 1635 221 1593 221 c 256,17,18
 1551 221 1551 221 1513.5 237 c 128,-1,19
 1476 253 1476 253 1448.5 280.5 c 128,-1,20
 1421 308 1421 308 1405 345.5 c 128,-1,21
 1389 383 1389 383 1389 425 c 0,22,23
 1389 457 1389 457 1400 488 c 1,24,-1
 228 488 l 1,25,26
 224 476 224 476 224 438 c 0,27,28
 224 180 224 180 464 180 c 0,29,30
 669 180 669 180 669 366 c 1,31,-1
 829 366 l 1,32,33
 829 192 829 192 1020 135 c 1,34,35
 1000 177 1000 177 1000 217 c 0,36,37
 1000 256 1000 256 1015 290 c 128,-1,38
 1030 324 1030 324 1056 350 c 128,-1,39
 1082 376 1082 376 1116 391 c 128,-1,40
 1150 406 1150 406 1189 406 c 0,41,42
 1227 406 1227 406 1261.5 391 c 128,-1,43
 1296 376 1296 376 1322 350 c 128,-1,44
 1348 324 1348 324 1363 289.5 c 128,-1,45
 1378 255 1378 255 1378 217 c 0,46,47
 1378 164 1378 164 1357 120 c 128,-1,48
 1336 76 1336 76 1297.5 45 c 128,-1,49
 1259 14 1259 14 1206.5 -3 c 128,-1,50
 1154 -20 1154 -20 1091 -20 c 0,51,52
 856 -20 856 -20 756 187 c 1,53,54
 740 140 740 140 711 102 c 128,-1,55
 682 64 682 64 643.5 37 c 128,-1,56
 605 10 605 10 559 -5 c 128,-1,57
 513 -20 513 -20 464 -20 c 0,58,59
 372 -20 372 -20 298 16 c 128,-1,60
 224 52 224 52 172 114 c 128,-1,61
 120 176 120 176 92 259.5 c 128,-1,62
 64 343 64 343 64 438 c 0,63,64
 64 550 64 550 104.5 647 c 128,-1,65
 145 744 145 744 215 817 c 128,-1,66
 285 890 285 890 379.5 935 c 128,-1,67
 474 980 474 980 583 989 c 1,68,-1
 583 1200 l 1,69,-1
 709 1200 l 1,70,-1
 709 1000 l 1,71,72
 725 1001 725 1001 741 1001.5 c 128,-1,73
 757 1002 757 1002 773 1002 c 256,74,75
 789 1002 789 1002 804 1001.5 c 128,-1,76
 819 1001 819 1001 835 1000 c 1,77,-1
 835 1200 l 1,78,-1
 961 1200 l 1,79,-1
 961 990 l 1,80,81
 1094 978 1094 978 1215 910 c 1,82,-1
 1135 761 l 1,83,84
 993 840 993 840 762 840 c 0,85,86
 350 840 350 840 259 614 c 1,87,-1
 1545 614 l 2,88,89
 1566 614 1566 614 1584.5 623.5 c 128,-1,90
 1603 633 1603 633 1617 649 c 128,-1,91
 1631 665 1631 665 1639.5 686 c 128,-1,92
 1648 707 1648 707 1648 730 c 0,93,94
 1648 772 1648 772 1618.5 797.5 c 128,-1,95
 1589 823 1589 823 1547 823 c 0,96,97
 1523 823 1523 823 1503 810 c 128,-1,98
 1483 797 1483 797 1469 779 c 1,99,-1
 1362 848 l 1,0,1
1673 424 m 256,100,101
 1673 457 1673 457 1649.5 480.5 c 128,-1,102
 1626 504 1626 504 1593 504 c 256,103,104
 1560 504 1560 504 1537 480.5 c 128,-1,105
 1514 457 1514 457 1514 424 c 256,106,107
 1514 391 1514 391 1537 368 c 128,-1,108
 1560 345 1560 345 1593 345 c 256,109,110
 1626 345 1626 345 1649.5 368 c 128,-1,111
 1673 391 1673 391 1673 424 c 256,100,101
1259 217 m 0,112,113
 1259 246 1259 246 1238.5 266.5 c 128,-1,114
 1218 287 1218 287 1189 287 c 256,115,116
 1160 287 1160 287 1139.5 266.5 c 128,-1,117
 1119 246 1119 246 1119 217 c 0,118,119
 1119 162 1119 162 1161 128 c 1,120,121
 1259 128 1259 128 1259 217 c 0,112,113
EndSplineSet
EndChar

StartChar: uni0C0B
Encoding: 3083 3083 220
Width: 2602
GlyphClass: 2
Flags: W
LayerCount: 2
Fore
SplineSet
2071 1000 m 1,0,1
 2171 983 2171 983 2256.5 935 c 128,-1,2
 2342 887 2342 887 2404.5 815.5 c 128,-1,3
 2467 744 2467 744 2502.5 653 c 128,-1,4
 2538 562 2538 562 2538 459 c 256,5,6
 2538 356 2538 356 2509 268.5 c 128,-1,7
 2480 181 2480 181 2426.5 117 c 128,-1,8
 2373 53 2373 53 2298.5 16.5 c 128,-1,9
 2224 -20 2224 -20 2134 -20 c 0,10,11
 1956 -20 1956 -20 1842 138 c 1,12,13
 1716 -20 1716 -20 1540 -20 c 256,14,15
 1364 -20 1364 -20 1251 135 c 1,16,17
 1129 -20 1129 -20 956 -20 c 0,18,19
 789 -20 789 -20 677 127 c 1,20,21
 581 -20 581 -20 406 -20 c 0,22,23
 334 -20 334 -20 271.5 7 c 128,-1,24
 209 34 209 34 163 81 c 128,-1,25
 117 128 117 128 90.5 191 c 128,-1,26
 64 254 64 254 64 327 c 0,27,28
 64 362 64 362 70.5 389.5 c 128,-1,29
 77 417 77 417 90 440 c 128,-1,30
 103 463 103 463 122.5 483 c 128,-1,31
 142 503 142 503 168 523 c 0,32,33
 211 556 211 556 362 611 c 0,34,35
 388 620 388 620 407.5 631 c 128,-1,36
 427 642 427 642 440 657 c 128,-1,37
 453 672 453 672 459.5 692.5 c 128,-1,38
 466 713 466 713 466 741 c 0,39,40
 466 840 466 840 368 840 c 0,41,42
 348 840 348 840 330.5 832 c 128,-1,43
 313 824 313 824 299.5 810.5 c 128,-1,44
 286 797 286 797 278.5 779 c 128,-1,45
 271 761 271 761 271 741 c 1,46,-1
 111 741 l 1,47,48
 111 794 111 794 131.5 841 c 128,-1,49
 152 888 152 888 187 923.5 c 128,-1,50
 222 959 222 959 268.5 979.5 c 128,-1,51
 315 1000 315 1000 368 1000 c 0,52,53
 419 1000 419 1000 466 979 c 128,-1,54
 513 958 513 958 548.5 922 c 128,-1,55
 584 886 584 886 605 839 c 128,-1,56
 626 792 626 792 626 741 c 0,57,58
 626 687 626 687 612.5 647.5 c 128,-1,59
 599 608 599 608 578 579 c 128,-1,60
 557 550 557 550 530.5 530 c 128,-1,61
 504 510 504 510 478 495 c 0,62,63
 454 485 454 485 438.5 479 c 128,-1,64
 423 473 423 473 410 467.5 c 128,-1,65
 397 462 397 462 381.5 456 c 128,-1,66
 366 450 366 450 342 440 c 0,67,68
 290 417 290 417 257 391 c 128,-1,69
 224 365 224 365 224 327 c 0,70,71
 224 180 224 180 406 180 c 0,72,73
 448 180 448 180 482.5 191.5 c 128,-1,74
 517 203 517 203 542.5 224.5 c 128,-1,75
 568 246 568 246 582 277.5 c 128,-1,76
 596 309 596 309 596 350 c 1,77,-1
 756 350 l 1,78,79
 756 180 756 180 956 180 c 0,80,81
 1190 180 1190 180 1190 459 c 0,82,83
 1190 538 1190 538 1165.5 604.5 c 128,-1,84
 1141 671 1141 671 1095.5 721 c 128,-1,85
 1050 771 1050 771 986 803 c 128,-1,86
 922 835 922 835 844 844 c 1,87,-1
 881 1000 l 1,88,89
 981 983 981 983 1067 935.5 c 128,-1,90
 1153 888 1153 888 1216 816.5 c 128,-1,91
 1279 745 1279 745 1314.5 653.5 c 128,-1,92
 1350 562 1350 562 1350 459 c 0,93,94
 1350 451 1350 451 1348.5 434 c 128,-1,95
 1347 417 1347 417 1345 398 c 128,-1,96
 1343 379 1343 379 1341.5 361.5 c 128,-1,97
 1340 344 1340 344 1340 337 c 0,98,99
 1345 303 1345 303 1362.5 274.5 c 128,-1,100
 1380 246 1380 246 1406 225 c 128,-1,101
 1432 204 1432 204 1466.5 192 c 128,-1,102
 1501 180 1501 180 1540 180 c 0,103,104
 1656 180 1656 180 1720 253.5 c 128,-1,105
 1784 327 1784 327 1784 459 c 0,106,107
 1784 538 1784 538 1759.5 604.5 c 128,-1,108
 1735 671 1735 671 1690 721 c 128,-1,109
 1645 771 1645 771 1581 803 c 128,-1,110
 1517 835 1517 835 1439 844 c 1,111,-1
 1474 1000 l 1,112,113
 1574 984 1574 984 1660 936 c 128,-1,114
 1746 888 1746 888 1809 816.5 c 128,-1,115
 1872 745 1872 745 1908 653.5 c 128,-1,116
 1944 562 1944 562 1944 459 c 0,117,118
 1944 452 1944 452 1942.5 435.5 c 128,-1,119
 1941 419 1941 419 1939 400 c 128,-1,120
 1937 381 1937 381 1935.5 364.5 c 128,-1,121
 1934 348 1934 348 1934 341 c 0,122,123
 1963 180 1963 180 2134 180 c 0,124,125
 2250 180 2250 180 2314 253.5 c 128,-1,126
 2378 327 2378 327 2378 459 c 0,127,128
 2378 537 2378 537 2353.5 603.5 c 128,-1,129
 2329 670 2329 670 2284.5 720.5 c 128,-1,130
 2240 771 2240 771 2177 803 c 128,-1,131
 2114 835 2114 835 2036 845 c 1,132,-1
 2071 1000 l 1,0,1
EndSplineSet
EndChar

StartChar: uni0C0C
Encoding: 3084 3084 221
Width: 1544
GlyphClass: 2
Flags: W
LayerCount: 2
Fore
SplineSet
1480 666 m 0,0,1
 1480 377 1480 377 1273.5 178.5 c 128,-1,2
 1067 -20 1067 -20 777 -20 c 0,3,4
 581 -20 581 -20 441 51 c 0,5,6
 262 141 262 141 262 318 c 0,7,8
 262 440 262 440 356 505 c 0,9,10
 437 561 437 561 565 561 c 0,11,12
 611 561 611 561 700.5 548 c 128,-1,13
 790 535 790 535 836 535 c 0,14,15
 903 535 903 535 943.5 579.5 c 128,-1,16
 984 624 984 624 984 691 c 0,17,18
 984 751 984 751 940 795.5 c 128,-1,19
 896 840 896 840 836 840 c 0,20,21
 772 840 772 840 728 797.5 c 128,-1,22
 684 755 684 755 684 691 c 1,23,-1
 524 691 l 1,24,25
 524 756 524 756 480.5 798 c 128,-1,26
 437 840 437 840 372 840 c 0,27,28
 310 840 310 840 267 796.5 c 128,-1,29
 224 753 224 753 224 691 c 0,30,31
 224 640 224 640 247 606 c 1,32,33
 208 572 208 572 131 502 c 1,34,35
 64 584 64 584 64 691 c 0,36,37
 64 817 64 817 155 908.5 c 128,-1,38
 246 1000 246 1000 372 1000 c 0,39,40
 505 1000 505 1000 604 887 c 1,41,42
 702 1000 702 1000 836 1000 c 0,43,44
 963 1000 963 1000 1053.5 909 c 128,-1,45
 1144 818 1144 818 1144 691 c 0,46,47
 1144 563 1144 563 1053.5 469 c 128,-1,48
 963 375 963 375 836 375 c 0,49,50
 790 375 790 375 700.5 388 c 128,-1,51
 611 401 611 401 565 401 c 0,52,53
 422 401 422 401 422 318 c 0,54,55
 422 226 422 226 560 186 c 0,56,57
 650 160 650 160 777 160 c 0,58,59
 1010 160 1010 160 1169 307 c 128,-1,60
 1328 454 1328 454 1328 666 c 0,61,62
 1328 802 1328 802 1226 840 c 1,63,-1
 1226 1000 l 1,64,65
 1343 985 1343 985 1415 878 c 0,66,67
 1480 783 1480 783 1480 666 c 0,0,1
EndSplineSet
EndChar

StartChar: uni0C0E
Encoding: 3086 3086 222
Width: 1290
GlyphClass: 2
Flags: W
LayerCount: 2
Fore
SplineSet
1226 570 m 0,0,1
 1226 324 1226 324 1130 168 c 0,2,3
 1015 -20 1015 -20 784 -20 c 0,4,5
 621 -20 621 -20 552 114 c 1,6,7
 464 0 464 0 334 0 c 0,8,9
 222 0 222 0 143 79 c 128,-1,10
 64 158 64 158 64 270 c 256,11,12
 64 382 64 382 143 461 c 128,-1,13
 222 540 222 540 334 540 c 0,14,15
 523 540 523 540 598 318 c 0,16,17
 624 242 624 242 664 211 c 128,-1,18
 704 180 704 180 784 180 c 0,19,20
 1066 180 1066 180 1066 570 c 0,21,22
 1066 867 1066 867 871.5 1056.5 c 128,-1,23
 677 1246 677 1246 379 1246 c 1,24,-1
 379 1406 l 1,25,26
 736 1406 736 1406 981 1166 c 128,-1,27
 1226 926 1226 926 1226 570 c 0,0,1
462 276 m 1,28,29
 427 380 427 380 334 380 c 0,30,31
 289 380 289 380 256.5 347.5 c 128,-1,32
 224 315 224 315 224 270 c 256,33,34
 224 225 224 225 256.5 192.5 c 128,-1,35
 289 160 289 160 334 160 c 0,36,37
 385 160 385 160 421 193 c 128,-1,38
 457 226 457 226 462 276 c 1,28,29
EndSplineSet
EndChar

StartChar: uni0C0F
Encoding: 3087 3087 223
Width: 1340
GlyphClass: 2
Flags: W
LayerCount: 2
Fore
SplineSet
359 981 m 1,0,1
 230 981 230 981 139.5 1086.5 c 128,-1,2
 49 1192 49 1192 49 1321 c 0,3,4
 49 1451 49 1451 139 1540.5 c 128,-1,5
 229 1630 229 1630 359 1630 c 1,6,-1
 359 1470 l 1,7,8
 297 1470 297 1470 253 1426.5 c 128,-1,9
 209 1383 209 1383 209 1321 c 0,10,11
 209 1231 209 1231 254.5 1186 c 128,-1,12
 300 1141 300 1141 359 1141 c 1,13,-1
 359 981 l 1,0,1
1226 570 m 0,14,15
 1226 324 1226 324 1130 168 c 0,16,17
 1015 -20 1015 -20 784 -20 c 0,18,19
 622 -20 622 -20 552 114 c 1,20,21
 464 0 464 0 334 0 c 0,22,23
 222 0 222 0 143 79 c 128,-1,24
 64 158 64 158 64 270 c 256,25,26
 64 382 64 382 143 461 c 128,-1,27
 222 540 222 540 334 540 c 0,28,29
 536 540 536 540 598 318 c 0,30,31
 637 180 637 180 784 180 c 0,32,33
 1066 180 1066 180 1066 570 c 0,34,35
 1066 867 1066 867 871.5 1056.5 c 128,-1,36
 677 1246 677 1246 379 1246 c 1,37,-1
 379 1406 l 1,38,39
 736 1406 736 1406 981 1166 c 128,-1,40
 1226 926 1226 926 1226 570 c 0,14,15
462 276 m 1,41,42
 427 380 427 380 334 380 c 0,43,44
 289 380 289 380 256.5 347.5 c 128,-1,45
 224 315 224 315 224 270 c 256,46,47
 224 225 224 225 256.5 192.5 c 128,-1,48
 289 160 289 160 334 160 c 0,49,50
 382 160 382 160 419 191.5 c 128,-1,51
 456 223 456 223 462 276 c 1,41,42
EndSplineSet
EndChar

StartChar: uni0C10
Encoding: 3088 3088 224
Width: 1414
GlyphClass: 2
Flags: W
LayerCount: 2
Fore
SplineSet
1350 483 m 1,0,1
 1350 275 1350 275 1217 130 c 0,2,3
 1080 -20 1080 -20 874 -20 c 0,4,5
 702 -20 702 -20 552 114 c 1,6,7
 464 0 464 0 334 0 c 0,8,9
 223 0 223 0 143.5 79.5 c 128,-1,10
 64 159 64 159 64 270 c 0,11,12
 64 382 64 382 143 461 c 128,-1,13
 222 540 222 540 334 540 c 0,14,15
 449 540 449 540 520 454 c 0,16,17
 570 393 570 393 595 280 c 1,18,19
 662 180 662 180 874 180 c 0,20,21
 1013 180 1013 180 1101.5 262.5 c 128,-1,22
 1190 345 1190 345 1190 483 c 0,23,24
 1190 634 1190 634 1118 733 c 0,25,26
 1041 840 1041 840 954 840 c 0,27,28
 887 840 887 840 825 797 c 0,29,30
 753 750 753 750 753 690 c 1,31,-1
 593 690 l 1,32,33
 593 752 593 752 549.5 796 c 128,-1,34
 506 840 506 840 394 840 c 0,35,36
 314 840 314 840 269 795 c 128,-1,37
 224 750 224 750 224 690 c 1,38,-1
 64 690 l 1,39,40
 64 818 64 818 153.5 909 c 128,-1,41
 243 1000 243 1000 394 1000 c 0,42,43
 587 1000 587 1000 682 887 c 1,44,45
 800 1000 800 1000 953 1000 c 0,46,47
 1132 1000 1132 1000 1245 844 c 1,48,49
 1360 696 1360 696 1350 483 c 1,0,1
462 276 m 1,50,51
 427 380 427 380 334 380 c 0,52,53
 289 380 289 380 256.5 347.5 c 128,-1,54
 224 315 224 315 224 270 c 256,55,56
 224 225 224 225 256.5 192.5 c 128,-1,57
 289 160 289 160 334 160 c 0,58,59
 382 160 382 160 419 191.5 c 128,-1,60
 456 223 456 223 462 276 c 1,50,51
EndSplineSet
EndChar

StartChar: uni0C12
Encoding: 3090 3090 225
Width: 1414
GlyphClass: 2
Flags: W
LayerCount: 2
Fore
SplineSet
1350 378 m 0,0,1
 1350 295 1350 295 1323 222.5 c 128,-1,2
 1296 150 1296 150 1248 96 c 128,-1,3
 1200 42 1200 42 1134.5 11 c 128,-1,4
 1069 -20 1069 -20 992 -20 c 0,5,6
 790 -20 790 -20 707 141 c 1,7,8
 668 60 668 60 597 20 c 128,-1,9
 526 -20 526 -20 416 -20 c 0,10,11
 332 -20 332 -20 266.5 7 c 128,-1,12
 201 34 201 34 156 81 c 128,-1,13
 111 128 111 128 87.5 191 c 128,-1,14
 64 254 64 254 64 327 c 0,15,16
 64 362 64 362 70.5 389.5 c 128,-1,17
 77 417 77 417 90 440 c 128,-1,18
 103 463 103 463 122.5 483 c 128,-1,19
 142 503 142 503 168 523 c 0,20,21
 211 556 211 556 362 611 c 0,22,23
 388 620 388 620 407.5 631 c 128,-1,24
 427 642 427 642 440 657 c 128,-1,25
 453 672 453 672 459.5 692.5 c 128,-1,26
 466 713 466 713 466 741 c 0,27,28
 466 840 466 840 368 840 c 0,29,30
 348 840 348 840 330.5 832 c 128,-1,31
 313 824 313 824 299.5 810.5 c 128,-1,32
 286 797 286 797 278.5 779 c 128,-1,33
 271 761 271 761 271 741 c 1,34,-1
 111 741 l 1,35,36
 111 794 111 794 131.5 841 c 128,-1,37
 152 888 152 888 187 923.5 c 128,-1,38
 222 959 222 959 268.5 979.5 c 128,-1,39
 315 1000 315 1000 368 1000 c 0,40,41
 419 1000 419 1000 466 979 c 128,-1,42
 513 958 513 958 548.5 922 c 128,-1,43
 584 886 584 886 605 839 c 128,-1,44
 626 792 626 792 626 741 c 0,45,46
 626 687 626 687 612.5 647.5 c 128,-1,47
 599 608 599 608 578 579 c 128,-1,48
 557 550 557 550 530.5 530 c 128,-1,49
 504 510 504 510 478 495 c 0,50,51
 454 485 454 485 438.5 479 c 128,-1,52
 423 473 423 473 410 467.5 c 128,-1,53
 397 462 397 462 381.5 456 c 128,-1,54
 366 450 366 450 342 440 c 0,55,56
 290 417 290 417 257 391 c 128,-1,57
 224 365 224 365 224 327 c 0,58,59
 224 254 224 254 273.5 217.5 c 128,-1,60
 323 181 323 181 413 180 c 0,61,62
 457 180 457 180 496 193.5 c 128,-1,63
 535 207 535 207 564 232 c 128,-1,64
 593 257 593 257 610 291 c 128,-1,65
 627 325 627 325 627 367 c 1,66,-1
 787 367 l 1,67,68
 787 278 787 278 843 229 c 128,-1,69
 899 180 899 180 992 180 c 0,70,71
 1083 180 1083 180 1136.5 233 c 128,-1,72
 1190 286 1190 286 1190 377 c 0,73,74
 1190 479 1190 479 1114 540 c 1,75,-1
 1233 653 l 1,76,77
 1350 536 1350 536 1350 378 c 0,0,1
EndSplineSet
EndChar

StartChar: uni0C13
Encoding: 3091 3091 226
Width: 1414
GlyphClass: 2
Flags: W
LayerCount: 2
Fore
SplineSet
1350 378 m 0,0,1
 1350 295 1350 295 1323 222.5 c 128,-1,2
 1296 150 1296 150 1248 96 c 128,-1,3
 1200 42 1200 42 1134.5 11 c 128,-1,4
 1069 -20 1069 -20 992 -20 c 0,5,6
 790 -20 790 -20 707 141 c 1,7,8
 668 60 668 60 597 20 c 128,-1,9
 526 -20 526 -20 416 -20 c 0,10,11
 332 -20 332 -20 266.5 7 c 128,-1,12
 201 34 201 34 156 81 c 128,-1,13
 111 128 111 128 87.5 191 c 128,-1,14
 64 254 64 254 64 327 c 0,15,16
 64 362 64 362 70.5 389.5 c 128,-1,17
 77 417 77 417 90 440 c 128,-1,18
 103 463 103 463 122.5 483 c 128,-1,19
 142 503 142 503 168 523 c 0,20,21
 211 556 211 556 362 611 c 0,22,23
 388 620 388 620 407.5 631 c 128,-1,24
 427 642 427 642 440 657 c 128,-1,25
 453 672 453 672 459.5 692.5 c 128,-1,26
 466 713 466 713 466 741 c 0,27,28
 466 840 466 840 368 840 c 0,29,30
 348 840 348 840 330.5 832 c 128,-1,31
 313 824 313 824 299.5 810.5 c 128,-1,32
 286 797 286 797 278.5 779 c 128,-1,33
 271 761 271 761 271 741 c 1,34,-1
 111 741 l 1,35,36
 111 784 111 784 125 823.5 c 128,-1,37
 139 863 139 863 163.5 895.5 c 128,-1,38
 188 928 188 928 221.5 952.5 c 128,-1,39
 255 977 255 977 295 989 c 1,40,41
 289 1017 289 1017 289 1048 c 0,42,43
 289 1102 289 1102 309.5 1150 c 128,-1,44
 330 1198 330 1198 365.5 1234 c 128,-1,45
 401 1270 401 1270 449 1290.5 c 128,-1,46
 497 1311 497 1311 552 1311 c 0,47,48
 661 1311 661 1311 738 1234 c 1,49,-1
 625 1121 l 1,50,51
 595 1151 595 1151 552 1151 c 0,52,53
 531 1151 531 1151 512 1143 c 128,-1,54
 493 1135 493 1135 479 1121 c 128,-1,55
 465 1107 465 1107 457 1088 c 128,-1,56
 449 1069 449 1069 449 1048 c 0,57,58
 449 1013 449 1013 464 979 c 1,59,60
 499 964 499 964 528.5 939.5 c 128,-1,61
 558 915 558 915 580 883.5 c 128,-1,62
 602 852 602 852 614 816 c 128,-1,63
 626 780 626 780 626 741 c 0,64,65
 626 687 626 687 612.5 647.5 c 128,-1,66
 599 608 599 608 578 579 c 128,-1,67
 557 550 557 550 530.5 530 c 128,-1,68
 504 510 504 510 478 495 c 0,69,70
 454 485 454 485 438.5 479 c 128,-1,71
 423 473 423 473 410 467.5 c 128,-1,72
 397 462 397 462 381.5 456 c 128,-1,73
 366 450 366 450 342 440 c 0,74,75
 290 417 290 417 257 391 c 128,-1,76
 224 365 224 365 224 327 c 0,77,78
 224 254 224 254 273.5 217.5 c 128,-1,79
 323 181 323 181 413 180 c 0,80,81
 457 180 457 180 496 193.5 c 128,-1,82
 535 207 535 207 564 232 c 128,-1,83
 593 257 593 257 610 291 c 128,-1,84
 627 325 627 325 627 367 c 1,85,-1
 787 367 l 1,86,87
 787 278 787 278 843 229 c 128,-1,88
 899 180 899 180 992 180 c 0,89,90
 1083 180 1083 180 1136.5 233 c 128,-1,91
 1190 286 1190 286 1190 377 c 0,92,93
 1190 479 1190 479 1114 540 c 1,94,-1
 1233 653 l 1,95,96
 1350 536 1350 536 1350 378 c 0,0,1
EndSplineSet
EndChar

StartChar: uni0C14
Encoding: 3092 3092 227
Width: 1584
GlyphClass: 2
Flags: W
LayerCount: 2
Fore
SplineSet
1350 378 m 0,0,1
 1350 295 1350 295 1323 222.5 c 128,-1,2
 1296 150 1296 150 1248 96 c 128,-1,3
 1200 42 1200 42 1134.5 11 c 128,-1,4
 1069 -20 1069 -20 992 -20 c 0,5,6
 790 -20 790 -20 707 141 c 1,7,8
 668 60 668 60 597 20 c 128,-1,9
 526 -20 526 -20 416 -20 c 0,10,11
 332 -20 332 -20 266.5 7 c 128,-1,12
 201 34 201 34 156 81 c 128,-1,13
 111 128 111 128 87.5 191 c 128,-1,14
 64 254 64 254 64 327 c 0,15,16
 64 362 64 362 70.5 389.5 c 128,-1,17
 77 417 77 417 90 440 c 128,-1,18
 103 463 103 463 122.5 483 c 128,-1,19
 142 503 142 503 168 523 c 0,20,21
 211 556 211 556 362 611 c 0,22,23
 388 620 388 620 407.5 631 c 128,-1,24
 427 642 427 642 440 657 c 128,-1,25
 453 672 453 672 459.5 692.5 c 128,-1,26
 466 713 466 713 466 741 c 0,27,28
 466 840 466 840 368 840 c 0,29,30
 348 840 348 840 330.5 832 c 128,-1,31
 313 824 313 824 299.5 810.5 c 128,-1,32
 286 797 286 797 278.5 779 c 128,-1,33
 271 761 271 761 271 741 c 1,34,-1
 111 741 l 1,35,36
 111 779 111 779 121 811.5 c 128,-1,37
 131 844 131 844 150 872 c 1,38,-1
 125 872 l 1,39,-1
 125 1000 l 1,40,-1
 572 1000 l 2,41,42
 636 1000 636 1000 636 1064 c 0,43,44
 636 1089 636 1089 616.5 1108.5 c 128,-1,45
 597 1128 597 1128 572 1128 c 2,46,-1
 20 1128 l 1,47,-1
 20 1256 l 1,48,-1
 1274 1256 l 2,49,50
 1326 1256 1326 1256 1371 1235 c 128,-1,51
 1416 1214 1416 1214 1449 1178.5 c 128,-1,52
 1482 1143 1482 1143 1501 1096 c 128,-1,53
 1520 1049 1520 1049 1520 997 c 256,54,55
 1520 945 1520 945 1501 898 c 128,-1,56
 1482 851 1482 851 1449 816 c 128,-1,57
 1416 781 1416 781 1371 760 c 128,-1,58
 1326 739 1326 739 1274 739 c 0,59,60
 1221 739 1221 739 1176 759.5 c 128,-1,61
 1131 780 1131 780 1098 815.5 c 128,-1,62
 1065 851 1065 851 1046 897.5 c 128,-1,63
 1027 944 1027 944 1027 997 c 0,64,65
 1027 1075 1027 1075 1074 1128 c 1,66,-1
 754 1128 l 1,67,68
 763 1084 763 1084 763 1063 c 0,69,70
 763 1027 763 1027 751 994 c 128,-1,71
 739 961 739 961 715.5 934.5 c 128,-1,72
 692 908 692 908 659 891.5 c 128,-1,73
 626 875 626 875 584 872 c 1,74,75
 604 844 604 844 615 811 c 128,-1,76
 626 778 626 778 626 741 c 0,77,78
 626 687 626 687 612.5 647.5 c 128,-1,79
 599 608 599 608 578 579 c 128,-1,80
 557 550 557 550 530.5 530 c 128,-1,81
 504 510 504 510 478 495 c 0,82,83
 454 485 454 485 438.5 479 c 128,-1,84
 423 473 423 473 410 467.5 c 128,-1,85
 397 462 397 462 381.5 456 c 128,-1,86
 366 450 366 450 342 440 c 0,87,88
 290 417 290 417 257 391 c 128,-1,89
 224 365 224 365 224 327 c 0,90,91
 224 254 224 254 273.5 217.5 c 128,-1,92
 323 181 323 181 413 180 c 0,93,94
 457 180 457 180 496 193.5 c 128,-1,95
 535 207 535 207 564 232 c 128,-1,96
 593 257 593 257 610 291 c 128,-1,97
 627 325 627 325 627 367 c 1,98,-1
 787 367 l 1,99,100
 787 278 787 278 843 229 c 128,-1,101
 899 180 899 180 992 180 c 0,102,103
 1083 180 1083 180 1136.5 233 c 128,-1,104
 1190 286 1190 286 1190 377 c 0,105,106
 1190 479 1190 479 1114 540 c 1,107,-1
 1233 653 l 1,108,109
 1350 536 1350 536 1350 378 c 0,0,1
1396 998 m 0,110,111
 1396 1021 1396 1021 1387.5 1043 c 128,-1,112
 1379 1065 1379 1065 1364.5 1082 c 128,-1,113
 1350 1099 1350 1099 1330 1109.5 c 128,-1,114
 1310 1120 1310 1120 1286 1120 c 2,115,-1
 1234 1120 l 1,116,117
 1152 1099 1152 1099 1152 998 c 0,118,119
 1152 973 1152 973 1162 951 c 128,-1,120
 1172 929 1172 929 1188.5 912.5 c 128,-1,121
 1205 896 1205 896 1227 886 c 128,-1,122
 1249 876 1249 876 1274 876 c 256,123,124
 1299 876 1299 876 1321 886 c 128,-1,125
 1343 896 1343 896 1359.5 912.5 c 128,-1,126
 1376 929 1376 929 1386 951 c 128,-1,127
 1396 973 1396 973 1396 998 c 0,110,111
EndSplineSet
EndChar

StartChar: uni0C15
Encoding: 3093 3093 228
Width: 1128
GlyphClass: 2
Flags: W
AnchorPoint: "Anchor-9" 564 91 basechar 0
AnchorPoint: "Anchor-7" 564 91 basechar 0
LayerCount: 2
Fore
SplineSet
976 698 m 1,0,-1
 816 698 l 1,1,2
 816 759 816 759 752.5 799.5 c 128,-1,3
 689 840 689 840 564 840 c 0,4,5
 479 840 479 840 423 831 c 128,-1,6
 367 822 367 822 334 804.5 c 128,-1,7
 301 787 301 787 287.5 760.5 c 128,-1,8
 274 734 274 734 274 698 c 0,9,10
 274 648 274 648 300 623 c 128,-1,11
 326 598 326 598 367 588.5 c 128,-1,12
 408 579 408 579 460 579.5 c 128,-1,13
 512 580 512 580 564 580 c 0,14,15
 693 580 693 580 783 563.5 c 128,-1,16
 873 547 873 547 929 513 c 128,-1,17
 985 479 985 479 1010.5 426.5 c 128,-1,18
 1036 374 1036 374 1036 302 c 0,19,20
 1036 227 1036 227 1002 167 c 128,-1,21
 968 107 968 107 906.5 65.5 c 128,-1,22
 845 24 845 24 757.5 2 c 128,-1,23
 670 -20 670 -20 564 -20 c 0,24,25
 514 -20 514 -20 457.5 -11.5 c 128,-1,26
 401 -3 401 -3 345.5 14 c 128,-1,27
 290 31 290 31 239 57 c 128,-1,28
 188 83 188 83 149 119 c 128,-1,29
 110 155 110 155 87 200.5 c 128,-1,30
 64 246 64 246 64 302 c 1,31,-1
 237 302 l 1,32,33
 237 272 237 272 264.5 246.5 c 128,-1,34
 292 221 292 221 338 201.5 c 128,-1,35
 384 182 384 182 442.5 171 c 128,-1,36
 501 160 501 160 564 160 c 0,37,38
 876 160 876 160 876 302 c 0,39,40
 876 334 876 334 860.5 356.5 c 128,-1,41
 845 379 845 379 808.5 393 c 128,-1,42
 772 407 772 407 712 413.5 c 128,-1,43
 652 420 652 420 564 420 c 0,44,45
 439 420 439 420 353 434 c 128,-1,46
 267 448 267 448 214 480.5 c 128,-1,47
 161 513 161 513 137.5 566 c 128,-1,48
 114 619 114 619 114 698 c 0,49,50
 114 804 114 804 170.5 874 c 128,-1,51
 227 944 227 944 334 976 c 1,52,-1
 281 1041 l 1,53,-1
 372 1131 l 1,54,55
 444 1047 444 1047 453 1040 c 0,56,57
 499 1000 499 1000 564 1000 c 0,58,59
 693 1000 693 1000 947 1333 c 1,60,-1
 1055 1237 l 1,61,62
 1005 1173 1005 1173 977 1137 c 128,-1,63
 949 1101 949 1101 942 1093 c 0,64,65
 873 1011 873 1011 815 961 c 1,66,67
 861 938 861 938 892 910.5 c 128,-1,68
 923 883 923 883 941.5 850 c 128,-1,69
 960 817 960 817 968 779 c 128,-1,70
 976 741 976 741 976 698 c 1,0,-1
EndSplineSet
Substitution2: "Single Substitution lookup 92 subtable" glyph293
EndChar

StartChar: uni0C16
Encoding: 3094 3094 229
Width: 1536
GlyphClass: 2
Flags: W
AnchorPoint: "Anchor-22" 0 0 basechar 0
AnchorPoint: "Anchor-10" 768 91 basechar 0
AnchorPoint: "Anchor-7" 768 -44 basechar 0
AnchorPoint: "Anchor-2" 0 0 basechar 0
LayerCount: 2
Fore
SplineSet
1482 472 m 0,0,1
 1482 257 1482 257 1359 121 c 0,2,3
 1232 -20 1232 -20 1020 -20 c 0,4,5
 833 -20 833 -20 678 118 c 1,6,7
 540 -20 540 -20 343 -20 c 0,8,9
 232 -20 232 -20 161 44 c 0,10,11
 86 111 86 111 86 220 c 0,12,13
 86 312 86 312 148 376.5 c 128,-1,14
 210 441 210 441 301 441 c 0,15,16
 495 441 495 441 645 326 c 1,17,18
 694 406 694 406 694 507 c 0,19,20
 694 646 694 646 617 736 c 1,21,22
 601 659 601 659 540.5 609.5 c 128,-1,23
 480 560 480 560 401 560 c 0,24,25
 310 560 310 560 245.5 624.5 c 128,-1,26
 181 689 181 689 181 780 c 0,27,28
 181 874 181 874 250.5 937 c 128,-1,29
 320 1000 320 1000 433 1000 c 0,30,31
 610 1000 610 1000 734 851 c 0,32,33
 854 706 854 706 854 507 c 0,34,35
 854 376 854 376 776 239 c 1,36,37
 858 180 858 180 1020 180 c 0,38,39
 1160 180 1160 180 1241 256.5 c 128,-1,40
 1322 333 1322 333 1322 472 c 0,41,42
 1322 629 1322 629 1225 734.5 c 128,-1,43
 1128 840 1128 840 963 840 c 1,44,-1
 975 1000 l 1,45,46
 1205 999 1205 999 1350 842 c 1,47,48
 1482 693 1482 693 1482 472 c 0,0,1
763 -158 m 0,49,50
 763 -193 763 -193 738.5 -217.5 c 128,-1,51
 714 -242 714 -242 679 -242 c 0,52,53
 645 -242 645 -242 620 -217 c 128,-1,54
 595 -192 595 -192 595 -158 c 0,55,56
 595 -84 595 -84 679 0 c 1,57,58
 763 -84 763 -84 763 -158 c 0,49,50
519 819 m 1,59,60
 464 862 464 862 419 862 c 0,61,62
 377 862 377 862 349 838 c 128,-1,63
 321 814 321 814 321 780 c 0,64,65
 321 748 321 748 345 724.5 c 128,-1,66
 369 701 369 701 401 700 c 0,67,68
 448 698 448 698 483.5 734 c 128,-1,69
 519 770 519 770 519 819 c 1,59,60
544 214 m 1,70,71
 442 301 442 301 304 301 c 0,72,73
 273 301 273 301 251 276 c 128,-1,74
 229 251 229 251 229 220 c 0,75,76
 229 140 229 140 343 140 c 0,77,78
 464 140 464 140 544 214 c 1,70,71
EndSplineSet
Substitution2: "Single Substitution lookup 164 subtable" glyph319
Substitution2: "Single Substitution lookup 163 subtable" glyph319
EndChar

StartChar: uni0C17
Encoding: 3095 3095 230
Width: 1128
GlyphClass: 2
Flags: W
AnchorPoint: "Anchor-9" 564 41 basechar 0
AnchorPoint: "Anchor-7" 564 91 basechar 0
LayerCount: 2
Fore
SplineSet
1064 470 m 0,0,1
 1064 231 1064 231 944 0 c 1,2,-1
 796 82 l 1,3,4
 904 282 904 282 904 470 c 0,5,6
 904 611 904 611 805 723 c 0,7,8
 703 840 703 840 564 840 c 256,9,10
 425 840 425 840 323 723 c 0,11,12
 224 611 224 611 224 470 c 0,13,14
 224 282 224 282 332 82 c 1,15,-1
 184 0 l 1,16,17
 64 231 64 231 64 470 c 0,18,19
 64 618 64 618 144 752 c 128,-1,20
 224 886 224 886 356 952 c 1,21,22
 343 967 343 967 281 1041 c 1,23,-1
 372 1131 l 1,24,25
 445 1047 445 1047 453 1040 c 0,26,27
 499 1000 499 1000 564 1000 c 0,28,29
 653 1000 653 1000 778 1129 c 0,30,31
 824 1177 824 1177 947 1333 c 1,32,-1
 1055 1237 l 1,33,34
 958 1110 958 1110 933 1080 c 0,35,36
 858 992 858 992 791 942 c 1,37,38
 916 873 916 873 990 743.5 c 128,-1,39
 1064 614 1064 614 1064 470 c 0,0,1
564 91 m 1024,40,-1
EndSplineSet
Substitution2: "Single Substitution lookup 92 subtable" glyph294
EndChar

StartChar: uni0C18
Encoding: 3096 3096 231
Width: 2158
GlyphClass: 2
Flags: W
AnchorPoint: "Anchor-21" 1178 91 basechar 0
AnchorPoint: "Anchor-11" 1178 91 basechar 0
AnchorPoint: "Anchor-7" 1178 91 basechar 0
LayerCount: 2
Fore
SplineSet
2100 483 m 0,0,1
 2100 275 2100 275 1971 130 c 0,2,3
 1837 -20 1837 -20 1631 -20 c 0,4,5
 1495 -20 1495 -20 1410.5 21.5 c 128,-1,6
 1326 63 1326 63 1247 172 c 1,7,8
 1098 -20 1098 -20 874 -20 c 0,9,10
 759 -20 759 -20 696 6.5 c 128,-1,11
 633 33 633 33 552 114 c 1,12,13
 464 0 464 0 334 0 c 0,14,15
 222 0 222 0 143 79 c 128,-1,16
 64 158 64 158 64 270 c 256,17,18
 64 382 64 382 143.5 461 c 128,-1,19
 223 540 223 540 334 540 c 0,20,21
 449 540 449 540 526 448 c 1,22,23
 576 382 576 382 595 280 c 1,24,25
 685 180 685 180 874 180 c 0,26,27
 1013 180 1013 180 1101.5 262.5 c 128,-1,28
 1190 345 1190 345 1190 483 c 0,29,30
 1190 633 1190 633 1094 736.5 c 128,-1,31
 998 840 998 840 859 840 c 1,32,-1
 889 1000 l 1,33,34
 1060 1000 1060 1000 1205 847.5 c 128,-1,35
 1350 695 1350 695 1350 483 c 0,36,37
 1350 462 1350 462 1343 422 c 128,-1,38
 1336 382 1336 382 1336 361 c 0,39,40
 1336 269 1336 269 1440 220 c 0,41,42
 1523 180 1523 180 1631 180 c 0,43,44
 1770 180 1770 180 1855 262 c 128,-1,45
 1940 344 1940 344 1940 483 c 0,46,47
 1940 633 1940 633 1842.5 736.5 c 128,-1,48
 1745 840 1745 840 1606 840 c 1,49,-1
 1636 1000 l 1,50,51
 1807 1000 1807 1000 1953.5 847.5 c 128,-1,52
 2100 695 2100 695 2100 483 c 0,0,1
838 1213 m 1,53,54
 702 1035 702 1035 625 962 c 0,55,56
 473 816 473 816 347 816 c 0,57,58
 261 816 261 816 184 882 c 0,59,60
 152 910 152 910 64 1017 c 1,61,-1
 155 1107 l 1,62,63
 220 1030 220 1030 236 1017 c 0,64,65
 284 976 284 976 347 976 c 0,66,67
 435 976 435 976 561 1105 c 0,68,69
 619 1164 619 1164 730 1309 c 1,70,-1
 838 1213 l 1,53,54
626 -160 m 0,71,72
 626 -195 626 -195 601.5 -219.5 c 128,-1,73
 577 -244 577 -244 542 -244 c 0,74,75
 508 -244 508 -244 483 -219 c 128,-1,76
 458 -194 458 -194 458 -160 c 0,77,78
 458 -66 458 -66 542 -2 c 1,79,80
 626 -86 626 -86 626 -160 c 0,71,72
462 276 m 1,81,82
 427 380 427 380 334 380 c 0,83,84
 289 380 289 380 256.5 347.5 c 128,-1,85
 224 315 224 315 224 270 c 256,86,87
 224 225 224 225 256.5 192.5 c 128,-1,88
 289 160 289 160 334 160 c 0,89,90
 382 160 382 160 419 191.5 c 128,-1,91
 456 223 456 223 462 276 c 1,81,82
EndSplineSet
Substitution2: "Single Substitution lookup 163 subtable" glyph320
Substitution2: "Single Substitution lookup 93 subtable" glyph295
EndChar

StartChar: uni0C19
Encoding: 3097 3097 232
Width: 1414
GlyphClass: 2
Flags: W
AnchorPoint: "Anchor-18" 902 -15 basechar 0
AnchorPoint: "Anchor-14" 707 91 basechar 0
AnchorPoint: "Anchor-7" 707 91 basechar 0
LayerCount: 2
Fore
SplineSet
1350 378 m 0,0,1
 1350 295 1350 295 1323 222.5 c 128,-1,2
 1296 150 1296 150 1248 96 c 128,-1,3
 1200 42 1200 42 1134.5 11 c 128,-1,4
 1069 -20 1069 -20 992 -20 c 0,5,6
 790 -20 790 -20 707 141 c 1,7,8
 668 60 668 60 597 20 c 128,-1,9
 526 -20 526 -20 416 -20 c 0,10,11
 332 -20 332 -20 266.5 7 c 128,-1,12
 201 34 201 34 156 81 c 128,-1,13
 111 128 111 128 87.5 191 c 128,-1,14
 64 254 64 254 64 327 c 0,15,16
 64 362 64 362 70.5 389.5 c 128,-1,17
 77 417 77 417 90 440 c 128,-1,18
 103 463 103 463 122.5 483 c 128,-1,19
 142 503 142 503 168 523 c 0,20,21
 211 556 211 556 362 611 c 0,22,23
 388 620 388 620 407.5 631 c 128,-1,24
 427 642 427 642 440 657 c 128,-1,25
 453 672 453 672 459.5 692.5 c 128,-1,26
 466 713 466 713 466 741 c 0,27,28
 466 840 466 840 368 840 c 0,29,30
 348 840 348 840 330.5 832 c 128,-1,31
 313 824 313 824 299.5 810.5 c 128,-1,32
 286 797 286 797 278.5 779 c 128,-1,33
 271 761 271 761 271 741 c 1,34,-1
 111 741 l 1,35,36
 111 794 111 794 131.5 841 c 128,-1,37
 152 888 152 888 187 923.5 c 128,-1,38
 222 959 222 959 268.5 979.5 c 128,-1,39
 315 1000 315 1000 368 1000 c 0,40,41
 413 1000 413 1000 454 984 c 128,-1,42
 495 968 495 968 529 940 c 128,-1,43
 563 912 563 912 586.5 874.5 c 128,-1,44
 610 837 610 837 620 794 c 1,45,-1
 795 794 l 1,46,-1
 795 1000 l 1,47,-1
 929 1000 l 1,48,-1
 929 794 l 1,49,-1
 1101 794 l 1,50,-1
 1101 660 l 1,51,-1
 616 660 l 1,52,53
 607 627 607 627 592 601.5 c 128,-1,54
 577 576 577 576 558.5 556.5 c 128,-1,55
 540 537 540 537 519 522 c 128,-1,56
 498 507 498 507 478 495 c 0,57,58
 454 485 454 485 438.5 479 c 128,-1,59
 423 473 423 473 410 467.5 c 128,-1,60
 397 462 397 462 381.5 456 c 128,-1,61
 366 450 366 450 342 440 c 0,62,63
 290 417 290 417 257 391 c 128,-1,64
 224 365 224 365 224 327 c 0,65,66
 224 254 224 254 273.5 217.5 c 128,-1,67
 323 181 323 181 413 180 c 0,68,69
 457 180 457 180 496 193.5 c 128,-1,70
 535 207 535 207 564 232 c 128,-1,71
 593 257 593 257 610 291 c 128,-1,72
 627 325 627 325 627 367 c 1,73,-1
 787 367 l 1,74,75
 787 278 787 278 843 229 c 128,-1,76
 899 180 899 180 992 180 c 0,77,78
 1083 180 1083 180 1136.5 233 c 128,-1,79
 1190 286 1190 286 1190 377 c 0,80,81
 1190 479 1190 479 1114 540 c 1,82,-1
 1233 653 l 1,83,84
 1350 536 1350 536 1350 378 c 0,0,1
EndSplineSet
EndChar

StartChar: uni0C1A
Encoding: 3098 3098 233
Width: 1414
GlyphClass: 2
Flags: W
AnchorPoint: "Anchor-18" 902 -15 basechar 0
AnchorPoint: "Anchor-14" 707 91 basechar 0
AnchorPoint: "Anchor-7" 707 91 basechar 0
LayerCount: 2
Fore
SplineSet
1350 377 m 0,0,1
 1350 207 1350 207 1257 97 c 0,2,3
 1158 -20 1158 -20 992 -20 c 0,4,5
 776 -20 776 -20 707 141 c 1,6,7
 636 -20 636 -20 422 -20 c 0,8,9
 263 -20 263 -20 161 98 c 0,10,11
 64 210 64 210 64 372 c 0,12,13
 64 501 64 501 141 578 c 1,14,-1
 9 578 l 1,15,-1
 9 725 l 1,16,-1
 424 725 l 1,17,-1
 424 578 l 1,18,19
 339 578 339 578 281.5 518 c 128,-1,20
 224 458 224 458 224 372 c 0,21,22
 224 285 224 285 279 232.5 c 128,-1,23
 334 180 334 180 422 180 c 0,24,25
 509 180 509 180 568 231 c 128,-1,26
 627 282 627 282 627 367 c 1,27,-1
 787 367 l 1,28,29
 787 279 787 279 847 228 c 0,30,31
 903 180 903 180 992 180 c 0,32,33
 1084 180 1084 180 1137 232.5 c 128,-1,34
 1190 285 1190 285 1190 377 c 0,35,36
 1190 619 1190 619 1061 733 c 1,37,38
 922 840 922 840 677 840 c 0,39,40
 590 840 590 840 514 906 c 0,41,42
 484 932 484 932 394 1041 c 1,43,-1
 485 1131 l 1,44,45
 554 1051 554 1051 566 1041 c 0,46,47
 613 1000 613 1000 677 1000 c 0,48,49
 804 1000 804 1000 1060 1333 c 1,50,-1
 1168 1237 l 1,51,52
 1090 1134 1090 1134 1050 1086 c 0,53,54
 980 1004 980 1004 936 960 c 1,55,56
 1126 909 1126 909 1239 766 c 1,57,58
 1350 618 1350 618 1350 377 c 0,0,1
707 91 m 1024,59,-1
EndSplineSet
Substitution2: "Single Substitution lookup 92 subtable" glyph296
EndChar

StartChar: uni0C1B
Encoding: 3099 3099 234
Width: 1414
GlyphClass: 2
Flags: W
AnchorPoint: "Anchor-18" 902 -15 basechar 0
AnchorPoint: "Anchor-14" 707 91 basechar 0
AnchorPoint: "Anchor-7" 707 91 basechar 0
LayerCount: 2
Fore
SplineSet
1350 377 m 0,0,1
 1350 207 1350 207 1257 97 c 0,2,3
 1158 -20 1158 -20 992 -20 c 0,4,5
 776 -20 776 -20 707 141 c 1,6,7
 636 -20 636 -20 422 -20 c 0,8,9
 263 -20 263 -20 161 98 c 0,10,11
 64 210 64 210 64 372 c 0,12,13
 64 501 64 501 141 578 c 1,14,-1
 9 578 l 1,15,-1
 9 725 l 1,16,-1
 424 725 l 1,17,-1
 424 578 l 1,18,19
 339 578 339 578 281.5 518 c 128,-1,20
 224 458 224 458 224 372 c 0,21,22
 224 285 224 285 279 232.5 c 128,-1,23
 334 180 334 180 422 180 c 0,24,25
 509 180 509 180 568 231 c 128,-1,26
 627 282 627 282 627 367 c 1,27,-1
 787 367 l 1,28,29
 787 279 787 279 847 228 c 0,30,31
 903 180 903 180 992 180 c 0,32,33
 1084 180 1084 180 1137 232.5 c 128,-1,34
 1190 285 1190 285 1190 377 c 0,35,36
 1190 619 1190 619 1061 733 c 1,37,38
 922 840 922 840 677 840 c 0,39,40
 590 840 590 840 514 906 c 0,41,42
 484 932 484 932 394 1041 c 1,43,-1
 485 1131 l 1,44,45
 554 1051 554 1051 566 1041 c 0,46,47
 613 1000 613 1000 677 1000 c 0,48,49
 804 1000 804 1000 1060 1333 c 1,50,-1
 1168 1237 l 1,51,52
 1090 1134 1090 1134 1050 1086 c 0,53,54
 980 1004 980 1004 936 960 c 1,55,56
 1126 909 1126 909 1239 766 c 1,57,58
 1350 618 1350 618 1350 377 c 0,0,1
794 -158 m 0,59,60
 794 -193 794 -193 769.5 -217.5 c 128,-1,61
 745 -242 745 -242 710 -242 c 0,62,63
 676 -242 676 -242 651 -217 c 128,-1,64
 626 -192 626 -192 626 -158 c 0,65,66
 626 -76 626 -76 710 0 c 1,67,68
 794 -84 794 -84 794 -158 c 0,59,60
EndSplineSet
Substitution2: "Single Substitution lookup 163 subtable" glyph321
Substitution2: "Single Substitution lookup 92 subtable" glyph297
EndChar

StartChar: uni0C1C
Encoding: 3100 3100 235
Width: 1414
GlyphClass: 2
Flags: W
AnchorPoint: "Anchor-18" 902 -15 basechar 0
AnchorPoint: "Anchor-14" 707 91 basechar 0
AnchorPoint: "Anchor-7" 707 91 basechar 0
LayerCount: 2
Fore
SplineSet
1350 378 m 0,0,1
 1350 295 1350 295 1323 222.5 c 128,-1,2
 1296 150 1296 150 1248 96 c 128,-1,3
 1200 42 1200 42 1134.5 11 c 128,-1,4
 1069 -20 1069 -20 992 -20 c 0,5,6
 790 -20 790 -20 707 141 c 1,7,8
 668 60 668 60 597 20 c 128,-1,9
 526 -20 526 -20 416 -20 c 0,10,11
 332 -20 332 -20 266.5 7 c 128,-1,12
 201 34 201 34 156 81 c 128,-1,13
 111 128 111 128 87.5 191 c 128,-1,14
 64 254 64 254 64 327 c 0,15,16
 64 362 64 362 70.5 389.5 c 128,-1,17
 77 417 77 417 90 440 c 128,-1,18
 103 463 103 463 122.5 483 c 128,-1,19
 142 503 142 503 168 523 c 0,20,21
 211 556 211 556 362 611 c 0,22,23
 388 620 388 620 407.5 631 c 128,-1,24
 427 642 427 642 440 657 c 128,-1,25
 453 672 453 672 459.5 692.5 c 128,-1,26
 466 713 466 713 466 741 c 0,27,28
 466 840 466 840 368 840 c 0,29,30
 348 840 348 840 330.5 832 c 128,-1,31
 313 824 313 824 299.5 810.5 c 128,-1,32
 286 797 286 797 278.5 779 c 128,-1,33
 271 761 271 761 271 741 c 1,34,-1
 111 741 l 1,35,36
 111 794 111 794 131.5 841 c 128,-1,37
 152 888 152 888 187 923.5 c 128,-1,38
 222 959 222 959 268.5 979.5 c 128,-1,39
 315 1000 315 1000 368 1000 c 0,40,41
 419 1000 419 1000 466 979 c 128,-1,42
 513 958 513 958 548.5 922 c 128,-1,43
 584 886 584 886 605 839 c 128,-1,44
 626 792 626 792 626 741 c 0,45,46
 626 731 626 731 625.5 722.5 c 128,-1,47
 625 714 625 714 624 706 c 1,48,49
 669 672 669 672 723 649 c 128,-1,50
 777 626 777 626 824 626 c 0,51,52
 856 626 856 626 885 633.5 c 128,-1,53
 914 641 914 641 936 654.5 c 128,-1,54
 958 668 958 668 971 688 c 128,-1,55
 984 708 984 708 984 732 c 0,56,57
 984 840 984 840 820 840 c 1,58,-1
 820 1000 l 1,59,60
 889 1000 889 1000 946 982.5 c 128,-1,61
 1003 965 1003 965 1044 932 c 128,-1,62
 1085 899 1085 899 1107.5 851.5 c 128,-1,63
 1130 804 1130 804 1130 745 c 0,64,65
 1130 689 1130 689 1106 642.5 c 128,-1,66
 1082 596 1082 596 1041 562.5 c 128,-1,67
 1000 529 1000 529 944 510.5 c 128,-1,68
 888 492 888 492 824 492 c 0,69,70
 746 492 746 492 683 515 c 128,-1,71
 620 538 620 538 571 570 c 1,72,73
 550 545 550 545 526 527 c 128,-1,74
 502 509 502 509 478 495 c 0,75,76
 454 485 454 485 438.5 479 c 128,-1,77
 423 473 423 473 410 467.5 c 128,-1,78
 397 462 397 462 381.5 456 c 128,-1,79
 366 450 366 450 342 440 c 0,80,81
 290 417 290 417 257 391 c 128,-1,82
 224 365 224 365 224 327 c 0,83,84
 224 254 224 254 273.5 217.5 c 128,-1,85
 323 181 323 181 413 180 c 0,86,87
 457 180 457 180 496 193.5 c 128,-1,88
 535 207 535 207 564 232 c 128,-1,89
 593 257 593 257 610 291 c 128,-1,90
 627 325 627 325 627 367 c 1,91,-1
 787 367 l 1,92,93
 787 278 787 278 843 229 c 128,-1,94
 899 180 899 180 992 180 c 0,95,96
 1083 180 1083 180 1136.5 233 c 128,-1,97
 1190 286 1190 286 1190 377 c 0,98,99
 1190 479 1190 479 1114 540 c 1,100,-1
 1233 653 l 1,101,102
 1350 536 1350 536 1350 378 c 0,0,1
EndSplineSet
EndChar

StartChar: uni0C1D
Encoding: 3101 3101 236
Width: 2602
GlyphClass: 2
Flags: W
AnchorPoint: "Anchor-20" 0 0 basechar 0
AnchorPoint: "Anchor-12" 1301 91 basechar 0
AnchorPoint: "Anchor-7" 1301 91 basechar 0
LayerCount: 2
Fore
SplineSet
2543 483 m 0,0,1
 2543 268 2543 268 2416 127 c 0,2,3
 2285 -20 2285 -20 2072 -20 c 0,4,5
 1943 -20 1943 -20 1861 26 c 0,6,7
 1785 69 1785 69 1707 178 c 1,8,9
 1623 68 1623 68 1549 26 c 0,10,11
 1466 -20 1466 -20 1335 -20 c 0,12,13
 1203 -20 1203 -20 1116 30 c 0,14,15
 1036 76 1036 76 955 188 c 1,16,17
 905 90 905 90 789 33 c 0,18,19
 682 -20 682 -20 564 -20 c 0,20,21
 349 -20 349 -20 205 134 c 0,22,23
 64 284 64 284 64 500 c 0,24,25
 64 646 64 646 143 769.5 c 128,-1,26
 222 893 222 893 354 954 c 1,27,-1
 281 1041 l 1,28,-1
 372 1131 l 1,29,30
 427 1062 427 1062 453 1041 c 0,31,32
 502 1000 502 1000 564 1000 c 0,33,34
 697 1000 697 1000 947 1333 c 1,35,-1
 1055 1237 l 1,36,37
 952 1103 952 1103 934 1081 c 0,38,39
 860 993 860 993 794 944 c 1,40,41
 920 881 920 881 992 761.5 c 128,-1,42
 1064 642 1064 642 1064 500 c 0,43,44
 1064 477 1064 477 1058 433 c 128,-1,45
 1052 389 1052 389 1052 368 c 1,46,47
 1085 289 1085 289 1167 234.5 c 128,-1,48
 1249 180 1249 180 1335 180 c 0,49,50
 1475 180 1475 180 1562 262 c 128,-1,51
 1649 344 1649 344 1649 483 c 0,52,53
 1649 633 1649 633 1553 736.5 c 128,-1,54
 1457 840 1457 840 1318 840 c 1,55,-1
 1348 1000 l 1,56,57
 1519 1000 1519 1000 1664 847.5 c 128,-1,58
 1809 695 1809 695 1809 483 c 0,59,60
 1809 461 1809 461 1806 425 c 0,61,62
 1802 380 1802 380 1801 368 c 1,63,64
 1881 180 1881 180 2072 180 c 0,65,66
 2216 180 2216 180 2299.5 260 c 128,-1,67
 2383 340 2383 340 2383 483 c 0,68,69
 2383 632 2383 632 2284.5 736 c 128,-1,70
 2186 840 2186 840 2047 840 c 1,71,-1
 2077 1000 l 1,72,73
 2248 1000 2248 1000 2395.5 847.5 c 128,-1,74
 2543 695 2543 695 2543 483 c 0,0,1
1792 -158 m 0,75,76
 1792 -192 1792 -192 1767 -217 c 128,-1,77
 1742 -242 1742 -242 1708 -242 c 0,78,79
 1675 -242 1675 -242 1649.5 -216.5 c 128,-1,80
 1624 -191 1624 -191 1624 -158 c 0,81,82
 1624 -80 1624 -80 1708 0 c 1,83,84
 1792 -83 1792 -83 1792 -158 c 0,75,76
904 500 m 0,85,86
 904 642 904 642 805 741 c 128,-1,87
 706 840 706 840 564 840 c 256,88,89
 422 840 422 840 323 741 c 128,-1,90
 224 642 224 642 224 500 c 0,91,92
 224 359 224 359 325 268 c 0,93,94
 422 180 422 180 564 180 c 256,95,96
 706 180 706 180 803 268 c 0,97,98
 904 359 904 359 904 500 c 0,85,86
EndSplineSet
Substitution2: "Single Substitution lookup 163 subtable" glyph322
Substitution2: "Single Substitution lookup 93 subtable" glyph298
EndChar

StartChar: uni0C1E
Encoding: 3102 3102 237
Width: 1768
GlyphClass: 2
Flags: W
AnchorPoint: "Anchor-19" 0 0 basechar 0
AnchorPoint: "Anchor-13" 884 91 basechar 0
AnchorPoint: "Anchor-7" 884 91 basechar 0
LayerCount: 2
Fore
SplineSet
1704 660 m 1,0,-1
 1348 660 l 1,1,2
 1350 637 1350 637 1350 604 c 0,3,4
 1350 357 1350 357 1145 170 c 1,5,6
 1174 128 1174 128 1196.5 51 c 128,-1,7
 1219 -26 1219 -26 1219 -80 c 1,8,-1
 1059 -80 l 1,9,10
 1059 25 1059 25 1016 86 c 1,11,12
 929 26 929 26 871 5 c 0,13,14
 801 -22 801 -22 707 -22 c 0,15,16
 594 -22 594 -22 513 53 c 0,17,18
 429 130 429 130 429 242 c 0,19,20
 429 345 429 345 504 415.5 c 128,-1,21
 579 486 579 486 683 486 c 0,22,23
 895 486 895 486 1053 304 c 1,24,25
 1111 360 1111 360 1150 442 c 0,26,27
 1190 528 1190 528 1190 604 c 0,28,29
 1190 707 1190 707 1143 770 c 0,30,31
 1090 840 1090 840 991 840 c 0,32,33
 899 840 899 840 843 783 c 128,-1,34
 787 726 787 726 787 633 c 1,35,-1
 627 633 l 1,36,37
 627 726 627 726 570.5 783 c 128,-1,38
 514 840 514 840 422 840 c 0,39,40
 337 840 337 840 282 784 c 128,-1,41
 227 728 227 728 227 643 c 0,42,43
 227 561 227 561 281 507 c 1,44,-1
 168 394 l 1,45,46
 65 497 65 497 65 641 c 0,47,48
 65 792 65 792 168 896 c 128,-1,49
 271 1000 271 1000 422 1000 c 0,50,51
 605 1000 605 1000 707 859 c 1,52,53
 740 928 740 928 828 967 c 0,54,55
 904 1000 904 1000 991 1000 c 0,56,57
 1223 1000 1223 1000 1314 794 c 1,58,-1
 1428 794 l 1,59,-1
 1428 1000 l 1,60,-1
 1562 1000 l 1,61,-1
 1562 794 l 1,62,-1
 1704 794 l 1,63,-1
 1704 660 l 1,0,-1
930 215 m 1,64,65
 834 330 834 330 683 330 c 0,66,67
 646 330 646 330 617.5 304.5 c 128,-1,68
 589 279 589 279 589 242 c 0,69,70
 589 200 589 200 628 173 c 0,71,72
 663 149 663 149 707 149 c 0,73,74
 829 149 829 149 930 215 c 1,64,65
884 91 m 1024,75,-1
EndSplineSet
EndChar

StartChar: uni0C1F
Encoding: 3103 3103 238
Width: 1414
GlyphClass: 2
Flags: W
AnchorPoint: "Anchor-18" 902 -15 basechar 0
AnchorPoint: "Anchor-14" 707 91 basechar 0
AnchorPoint: "Anchor-7" 707 91 basechar 0
AnchorPoint: "Anchor-5" 902 -15 basechar 0
LayerCount: 2
Fore
SplineSet
1367 459 m 256,0,1
 1367 356 1367 356 1339 268 c 128,-1,2
 1311 180 1311 180 1261 116 c 128,-1,3
 1211 52 1211 52 1140 16 c 128,-1,4
 1069 -20 1069 -20 984 -20 c 0,5,6
 798 -20 798 -20 719 127 c 1,7,8
 654 -20 654 -20 458 -20 c 0,9,10
 370 -20 370 -20 296 19 c 128,-1,11
 222 58 222 58 168 126 c 128,-1,12
 114 194 114 194 84 285.5 c 128,-1,13
 54 377 54 377 54 483 c 0,14,15
 54 907 54 907 319 989 c 1,16,-1
 319 1242 l 1,17,-1
 452 1242 l 1,18,-1
 452 992 l 1,19,20
 497 981 497 981 534.5 955.5 c 128,-1,21
 572 930 572 930 599 895.5 c 128,-1,22
 626 861 626 861 641.5 818.5 c 128,-1,23
 657 776 657 776 657 730 c 0,24,25
 657 674 657 674 635.5 625 c 128,-1,26
 614 576 614 576 577.5 539.5 c 128,-1,27
 541 503 541 503 491.5 481.5 c 128,-1,28
 442 460 442 460 387 460 c 0,29,30
 290 460 290 460 222 540 c 1,31,32
 216 519 216 519 216 454 c 0,33,34
 216 396 216 396 234 346 c 128,-1,35
 252 296 252 296 284 259 c 128,-1,36
 316 222 316 222 360.5 201 c 128,-1,37
 405 180 405 180 458 180 c 0,38,39
 496 180 496 180 529 192 c 128,-1,40
 562 204 562 204 586 226.5 c 128,-1,41
 610 249 610 249 624 280.5 c 128,-1,42
 638 312 638 312 638 350 c 1,43,-1
 798 350 l 1,44,45
 798 180 798 180 984 180 c 0,46,47
 1035 180 1035 180 1076 200.5 c 128,-1,48
 1117 221 1117 221 1146 257.5 c 128,-1,49
 1175 294 1175 294 1191 345.5 c 128,-1,50
 1207 397 1207 397 1207 459 c 0,51,52
 1207 624 1207 624 1132 722.5 c 128,-1,53
 1057 821 1057 821 927 850 c 1,54,-1
 938 1000 l 1,55,56
 1047 984 1047 984 1130.5 933 c 128,-1,57
 1214 882 1214 882 1262 810.5 c 128,-1,58
 1310 739 1310 739 1338.5 650.5 c 128,-1,59
 1367 562 1367 562 1367 459 c 256,0,1
497 730 m 256,60,61
 497 778 497 778 467.5 809 c 128,-1,62
 438 840 438 840 392 840 c 0,63,64
 344 840 344 840 305 809.5 c 128,-1,65
 266 779 266 779 253 730 c 1,66,67
 257 706 257 706 270.5 686 c 128,-1,68
 284 666 284 666 303 651 c 128,-1,69
 322 636 322 636 345 628 c 128,-1,70
 368 620 368 620 392 620 c 0,71,72
 438 620 438 620 467.5 651 c 128,-1,73
 497 682 497 682 497 730 c 256,60,61
EndSplineSet
EndChar

StartChar: uni0C20
Encoding: 3104 3104 239
Width: 1128
GlyphClass: 2
Flags: W
AnchorPoint: "Anchor-9" 564 91 basechar 0
AnchorPoint: "Anchor-7" 564 91 basechar 0
LayerCount: 2
Fore
SplineSet
1064 500 m 0,0,1
 1064 278 1064 278 926 131 c 0,2,3
 784 -20 784 -20 564 -20 c 0,4,5
 341 -20 341 -20 202.5 128 c 128,-1,6
 64 276 64 276 64 500 c 0,7,8
 64 647 64 647 142.5 770 c 128,-1,9
 221 893 221 893 354 954 c 1,10,-1
 281 1041 l 1,11,-1
 372 1131 l 1,12,13
 433 1056 433 1056 452 1040 c 0,14,15
 501 1000 501 1000 564 1000 c 0,16,17
 651 1000 651 1000 777 1129 c 0,18,19
 834 1187 834 1187 947 1333 c 1,20,-1
 1055 1237 l 1,21,22
 964 1118 964 1118 933 1082 c 0,23,24
 861 997 861 997 793 944 c 1,25,26
 919 880 919 880 991.5 761 c 128,-1,27
 1064 642 1064 642 1064 500 c 0,0,1
904 500 m 0,28,29
 904 642 904 642 805 741 c 128,-1,30
 706 840 706 840 564 840 c 256,31,32
 422 840 422 840 323 741 c 128,-1,33
 224 642 224 642 224 500 c 0,34,35
 224 359 224 359 323 269.5 c 128,-1,36
 422 180 422 180 564 180 c 256,37,38
 706 180 706 180 805 269.5 c 128,-1,39
 904 359 904 359 904 500 c 0,28,29
564 91 m 1024,40,-1
644 500 m 256,41,42
 644 467 644 467 620.5 443.5 c 128,-1,43
 597 420 597 420 564 420 c 256,44,45
 531 420 531 420 507.5 443.5 c 128,-1,46
 484 467 484 467 484 500 c 256,47,48
 484 533 484 533 507.5 556.5 c 128,-1,49
 531 580 531 580 564 580 c 256,50,51
 597 580 597 580 620.5 556.5 c 128,-1,52
 644 533 644 533 644 500 c 256,41,42
EndSplineSet
Substitution2: "Single Substitution lookup 92 subtable" glyph299
EndChar

StartChar: uni0C21
Encoding: 3105 3105 240
Width: 1414
GlyphClass: 2
Flags: W
AnchorPoint: "Anchor-18" 902 -15 basechar 0
AnchorPoint: "Anchor-14" 707 91 basechar 0
AnchorPoint: "Anchor-7" 707 91 basechar 0
LayerCount: 2
Fore
SplineSet
1336 217 m 0,0,1
 1336 104 1336 104 1246 39 c 0,2,3
 1166 -20 1166 -20 1049 -20 c 0,4,5
 814 -20 814 -20 714 187 c 1,6,7
 637 -21 637 -21 422 -21 c 0,8,9
 253 -21 253 -21 152 99 c 0,10,11
 64 204 64 204 64 376 c 0,12,13
 64 575 64 575 183 736 c 0,14,15
 299 893 299 893 488 962 c 1,16,17
 467 988 467 988 424 1040 c 1,18,-1
 515 1131 l 1,19,20
 573 1059 573 1059 595 1040 c 0,21,22
 644 999 644 999 707 999 c 0,23,24
 795 999 795 999 920 1128 c 0,25,26
 971 1180 971 1180 1090 1332 c 1,27,-1
 1198 1236 l 1,28,29
 1108 1117 1108 1117 1080 1084 c 0,30,31
 1010 999 1010 999 945 948 c 1,32,33
 1071 901 1071 901 1174 798 c 1,34,-1
 1063 686 l 1,35,36
 910 839 910 839 707 839 c 0,37,38
 514 839 514 839 371 705 c 0,39,40
 224 567 224 567 224 386 c 0,41,42
 224 203 224 203 415 179 c 1,43,44
 627 179 627 179 627 366 c 1,45,-1
 787 366 l 1,46,47
 787 191 787 191 978 135 c 1,48,49
 958 175 958 175 958 217 c 0,50,51
 958 295 958 295 1013.5 350.5 c 128,-1,52
 1069 406 1069 406 1147 406 c 256,53,54
 1225 406 1225 406 1280.5 350.5 c 128,-1,55
 1336 295 1336 295 1336 217 c 0,0,1
707 91 m 1024,56,-1
1217 217 m 0,57,58
 1217 246 1217 246 1196.5 266.5 c 128,-1,59
 1176 287 1176 287 1147 287 c 256,60,61
 1118 287 1118 287 1097.5 266.5 c 128,-1,62
 1077 246 1077 246 1077 217 c 0,63,64
 1077 163 1077 163 1119 128 c 1,65,66
 1217 128 1217 128 1217 217 c 0,57,58
EndSplineSet
Substitution2: "Single Substitution lookup 92 subtable" glyph300
EndChar

StartChar: uni0C22
Encoding: 3106 3106 241
Width: 1414
GlyphClass: 2
Flags: W
AnchorPoint: "Anchor-18" 902 -15 basechar 0
AnchorPoint: "Anchor-14" 707 91 basechar 0
AnchorPoint: "Anchor-7" 707 91 basechar 0
LayerCount: 2
Fore
SplineSet
1336 217 m 0,0,1
 1336 104 1336 104 1246 39 c 0,2,3
 1166 -20 1166 -20 1049 -20 c 0,4,5
 814 -20 814 -20 714 187 c 1,6,7
 637 -21 637 -21 422 -21 c 0,8,9
 253 -21 253 -21 156 95 c 0,10,11
 64 204 64 204 64 376 c 0,12,13
 64 575 64 575 183 736 c 0,14,15
 299 893 299 893 488 962 c 1,16,17
 467 988 467 988 424 1040 c 1,18,-1
 515 1131 l 1,19,20
 573 1059 573 1059 595 1040 c 0,21,22
 644 999 644 999 707 999 c 0,23,24
 795 999 795 999 920 1128 c 0,25,26
 971 1180 971 1180 1090 1332 c 1,27,-1
 1198 1236 l 1,28,29
 1108 1117 1108 1117 1080 1084 c 0,30,31
 1010 999 1010 999 945 948 c 1,32,33
 1071 901 1071 901 1174 798 c 1,34,-1
 1063 686 l 1,35,36
 910 839 910 839 707 839 c 0,37,38
 514 839 514 839 371 705 c 0,39,40
 224 567 224 567 224 386 c 0,41,42
 224 203 224 203 415 179 c 1,43,44
 627 179 627 179 627 366 c 1,45,-1
 787 366 l 1,46,47
 787 191 787 191 978 135 c 1,48,49
 958 175 958 175 958 217 c 0,50,51
 958 295 958 295 1013.5 350.5 c 128,-1,52
 1069 406 1069 406 1147 406 c 256,53,54
 1225 406 1225 406 1280.5 350.5 c 128,-1,55
 1336 295 1336 295 1336 217 c 0,0,1
803 -158 m 0,56,57
 803 -193 803 -193 778.5 -217.5 c 128,-1,58
 754 -242 754 -242 719 -242 c 0,59,60
 685 -242 685 -242 660 -217 c 128,-1,61
 635 -192 635 -192 635 -158 c 0,62,63
 635 -84 635 -84 719 0 c 1,64,65
 803 -84 803 -84 803 -158 c 0,56,57
1217 217 m 0,66,67
 1217 246 1217 246 1196.5 266.5 c 128,-1,68
 1176 287 1176 287 1147 287 c 256,69,70
 1118 287 1118 287 1097.5 266.5 c 128,-1,71
 1077 246 1077 246 1077 217 c 0,72,73
 1077 163 1077 163 1119 128 c 1,74,75
 1217 128 1217 128 1217 217 c 0,66,67
EndSplineSet
Substitution2: "Single Substitution lookup 163 subtable" glyph323
Substitution2: "Single Substitution lookup 92 subtable" glyph301
EndChar

StartChar: uni0C23
Encoding: 3107 3107 242
Width: 1414
GlyphClass: 2
Flags: W
AnchorPoint: "Anchor-18" 902 -15 basechar 0
AnchorPoint: "Anchor-14" 707 91 basechar 0
AnchorPoint: "Anchor-7" 707 91 basechar 0
LayerCount: 2
Fore
SplineSet
1350 472 m 0,0,1
 1350 276 1350 276 1277 142 c 0,2,3
 1189 -20 1189 -20 1019 -20 c 0,4,5
 909 -20 909 -20 833.5 62 c 128,-1,6
 758 144 758 144 758 262 c 0,7,8
 758 371 758 371 834.5 447 c 128,-1,9
 911 523 911 523 1020 523 c 0,10,11
 1117 523 1117 523 1193 448 c 1,12,13
 1194 464 1194 464 1194 472 c 0,14,15
 1194 615 1194 615 1138 716 c 0,16,17
 1070 840 1070 840 938 840 c 0,18,19
 850 840 850 840 794.5 787.5 c 128,-1,20
 739 735 739 735 739 648 c 1,21,-1
 579 648 l 1,22,23
 579 731 579 731 529 785.5 c 128,-1,24
 479 840 479 840 397 840 c 0,25,26
 224 840 224 840 224 689 c 0,27,28
 224 636 224 636 257 600 c 128,-1,29
 290 564 290 564 343 564 c 2,30,-1
 373 564 l 1,31,-1
 373 404 l 1,32,-1
 342 404 l 2,33,34
 289 404 289 404 256.5 368.5 c 128,-1,35
 224 333 224 333 224 279 c 0,36,37
 224 230 224 230 259 195 c 128,-1,38
 294 160 294 160 343 160 c 0,39,40
 462 160 462 160 462 278 c 1,41,-1
 622 278 l 1,42,43
 622 151 622 151 543 65.5 c 128,-1,44
 464 -20 464 -20 343 -20 c 0,45,46
 224 -20 224 -20 144 68 c 128,-1,47
 64 156 64 156 64 279 c 0,48,49
 64 398 64 398 153 485 c 1,50,51
 114 512 114 512 88 577 c 0,52,53
 64 636 64 636 64 689 c 0,54,55
 64 833 64 833 159 918 c 0,56,57
 251 1000 251 1000 397 1000 c 0,58,59
 551 1000 551 1000 657 859 c 1,60,61
 770 1000 770 1000 938 1000 c 0,62,63
 1136 1000 1136 1000 1250 829 c 0,64,65
 1350 680 1350 680 1350 472 c 0,0,1
707 91 m 1024,66,-1
1164 301 m 1,67,68
 1102 363 1102 363 1024 363 c 0,69,70
 981 363 981 363 950 333.5 c 128,-1,71
 919 304 919 304 919 262 c 256,72,73
 919 220 919 220 948.5 190.5 c 128,-1,74
 978 161 978 161 1020 161 c 0,75,76
 1144 161 1144 161 1164 301 c 1,67,68
EndSplineSet
EndChar

StartChar: uni0C24
Encoding: 3108 3108 243
Width: 1414
GlyphClass: 2
Flags: W
AnchorPoint: "Anchor-18" 902 -15 basechar 0
AnchorPoint: "Anchor-14" 707 91 basechar 0
AnchorPoint: "Anchor-7" 707 91 basechar 0
LayerCount: 2
Fore
SplineSet
1350 585 m 0,0,1
 1350 287 1350 287 1172 129 c 0,2,3
 1003 -20 1003 -20 701 -20 c 0,4,5
 443 -20 443 -20 266 102 c 0,6,7
 64 241 64 241 64 488 c 0,8,9
 64 622 64 622 126 714 c 0,10,11
 197 821 197 821 324 821 c 0,12,13
 416 821 416 821 481.5 757 c 128,-1,14
 547 693 547 693 547 601 c 0,15,16
 547 510 547 510 482 446 c 128,-1,17
 417 382 417 382 326 382 c 0,18,19
 267 382 267 382 215 412 c 1,20,21
 291 180 291 180 701 180 c 0,22,23
 1104 180 1104 180 1195 412 c 1,24,25
 1145 382 1145 382 1090 382 c 0,26,27
 999 382 999 382 933.5 446 c 128,-1,28
 868 510 868 510 868 601 c 0,29,30
 868 688 868 688 926 742.5 c 128,-1,31
 984 797 984 797 1072 797 c 0,32,33
 1115 797 1115 797 1161 783 c 1,34,35
 1108 840 1108 840 982 840 c 2,36,-1
 671 840 l 2,37,38
 582 840 582 840 507 905 c 0,39,40
 472 935 472 935 388 1041 c 1,41,-1
 479 1131 l 1,42,43
 531 1064 531 1064 560 1041 c 0,44,45
 610 1000 610 1000 671 1000 c 0,46,47
 769 1000 769 1000 888 1125 c 0,48,49
 915 1154 915 1154 1054 1333 c 1,50,-1
 1162 1237 l 1,51,52
 1100 1152 1100 1152 964 992 c 1,53,-1
 1023 992 l 2,54,55
 1171 992 1171 992 1265 859 c 0,56,57
 1350 739 1350 739 1350 585 c 0,0,1
1202 591 m 1,58,59
 1196 632 1196 632 1164 660.5 c 128,-1,60
 1132 689 1132 689 1090 689 c 0,61,62
 1054 689 1054 689 1028 663 c 128,-1,63
 1002 637 1002 637 1002 601 c 256,64,65
 1002 565 1002 565 1028 539 c 128,-1,66
 1054 513 1054 513 1090 513 c 0,67,68
 1168 513 1168 513 1202 591 c 1,58,59
412 601 m 256,69,70
 412 637 412 637 386 663 c 128,-1,71
 360 689 360 689 324 689 c 0,72,73
 282 689 282 689 250 660.5 c 128,-1,74
 218 632 218 632 212 591 c 1,75,76
 232 513 232 513 324 513 c 0,77,78
 360 513 360 513 386 539 c 128,-1,79
 412 565 412 565 412 601 c 256,69,70
707 91 m 1024,80,-1
EndSplineSet
Substitution2: "Single Substitution lookup 92 subtable" glyph302
EndChar

StartChar: uni0C25
Encoding: 3109 3109 244
Width: 1414
GlyphClass: 2
Flags: W
AnchorPoint: "Anchor-18" 902 -15 basechar 0
AnchorPoint: "Anchor-14" 707 91 basechar 0
AnchorPoint: "Anchor-7" 707 91 basechar 0
LayerCount: 2
Fore
SplineSet
1350 377 m 0,0,1
 1350 215 1350 215 1253 101 c 0,2,3
 1151 -20 1151 -20 992 -20 c 0,4,5
 799 -20 799 -20 707 141 c 1,6,7
 672 67 672 67 587 22 c 0,8,9
 508 -20 508 -20 422 -20 c 0,10,11
 263 -20 263 -20 161 101 c 0,12,13
 64 215 64 215 64 377 c 0,14,15
 64 605 64 605 184 756 c 0,16,17
 301 901 301 901 490 962 c 1,18,-1
 424 1041 l 1,19,-1
 515 1131 l 1,20,21
 574 1059 574 1059 596 1041 c 0,22,23
 645 1000 645 1000 707 1000 c 0,24,25
 801 1000 801 1000 924 1126 c 0,26,27
 980 1185 980 1185 1090 1333 c 1,28,-1
 1198 1237 l 1,29,30
 1087 1094 1087 1094 1082 1088 c 0,31,32
 1013 1004 1013 1004 949 953 c 1,33,34
 1128 889 1128 889 1238 746 c 0,35,36
 1350 597 1350 597 1350 377 c 0,0,1
794 -180 m 0,37,38
 794 -215 794 -215 769.5 -239.5 c 128,-1,39
 745 -264 745 -264 710 -264 c 0,40,41
 676 -264 676 -264 651 -239 c 128,-1,42
 626 -214 626 -214 626 -180 c 0,43,44
 626 -106 626 -106 710 -22 c 1,45,46
 794 -106 794 -106 794 -180 c 0,37,38
1190 377 m 0,47,48
 1190 599 1190 599 1033 736 c 1,49,50
 930 840 930 840 707 840 c 256,51,52
 484 840 484 840 381 736 c 1,53,54
 224 599 224 599 224 377 c 0,55,56
 224 285 224 285 277 232.5 c 128,-1,57
 330 180 330 180 422 180 c 256,58,59
 514 180 514 180 570.5 228 c 128,-1,60
 627 276 627 276 627 367 c 1,61,-1
 787 367 l 1,62,63
 787 276 787 276 845 227 c 0,64,65
 900 180 900 180 992 180 c 256,66,67
 1084 180 1084 180 1137 232.5 c 128,-1,68
 1190 285 1190 285 1190 377 c 0,47,48
787 576 m 256,69,70
 787 543 787 543 763.5 519.5 c 128,-1,71
 740 496 740 496 707 496 c 256,72,73
 674 496 674 496 650.5 519.5 c 128,-1,74
 627 543 627 543 627 576 c 256,75,76
 627 609 627 609 650.5 632.5 c 128,-1,77
 674 656 674 656 707 656 c 256,78,79
 740 656 740 656 763.5 632.5 c 128,-1,80
 787 609 787 609 787 576 c 256,69,70
EndSplineSet
Substitution2: "Single Substitution lookup 163 subtable" glyph324
Substitution2: "Single Substitution lookup 92 subtable" glyph303
EndChar

StartChar: uni0C26
Encoding: 3110 3110 245
Width: 1414
GlyphClass: 2
Flags: W
AnchorPoint: "Anchor-18" 902 -15 basechar 0
AnchorPoint: "Anchor-14" 707 91 basechar 0
AnchorPoint: "Anchor-7" 707 91 basechar 0
LayerCount: 2
Fore
SplineSet
1350 377 m 0,0,1
 1350 215 1350 215 1253 101 c 0,2,3
 1151 -20 1151 -20 992 -20 c 0,4,5
 799 -20 799 -20 707 141 c 1,6,7
 672 67 672 67 587 22 c 0,8,9
 508 -20 508 -20 422 -20 c 0,10,11
 263 -20 263 -20 161 101 c 0,12,13
 64 215 64 215 64 377 c 0,14,15
 64 595 64 595 184 756 c 0,16,17
 288 893 288 893 490 962 c 1,18,-1
 424 1041 l 1,19,-1
 515 1131 l 1,20,21
 574 1059 574 1059 596 1041 c 0,22,23
 645 1000 645 1000 707 1000 c 0,24,25
 801 1000 801 1000 924 1126 c 0,26,27
 980 1185 980 1185 1090 1333 c 1,28,-1
 1198 1237 l 1,29,30
 1087 1094 1087 1094 1082 1088 c 0,31,32
 1013 1004 1013 1004 949 953 c 1,33,34
 1141 881 1141 881 1238 746 c 0,35,36
 1350 587 1350 587 1350 377 c 0,0,1
707 91 m 1024,37,-1
1190 377 m 0,38,39
 1190 609 1190 609 1033 736 c 1,40,41
 930 840 930 840 707 840 c 256,42,43
 484 840 484 840 381 736 c 1,44,45
 224 609 224 609 224 377 c 0,46,47
 224 285 224 285 277 232.5 c 128,-1,48
 330 180 330 180 422 180 c 256,49,50
 514 180 514 180 570.5 228 c 128,-1,51
 627 276 627 276 627 367 c 1,52,-1
 787 367 l 1,53,54
 787 276 787 276 845 227 c 0,55,56
 900 180 900 180 992 180 c 256,57,58
 1084 180 1084 180 1137 232.5 c 128,-1,59
 1190 285 1190 285 1190 377 c 0,38,39
EndSplineSet
Substitution2: "Single Substitution lookup 92 subtable" glyph304
EndChar

StartChar: uni0C27
Encoding: 3111 3111 246
Width: 1414
GlyphClass: 2
Flags: W
AnchorPoint: "Anchor-18" 902 -15 basechar 0
AnchorPoint: "Anchor-14" 707 91 basechar 0
AnchorPoint: "Anchor-7" 707 91 basechar 0
LayerCount: 2
Fore
SplineSet
1350 377 m 0,0,1
 1350 215 1350 215 1253 101 c 0,2,3
 1151 -20 1151 -20 992 -20 c 0,4,5
 799 -20 799 -20 707 141 c 1,6,7
 672 68 672 68 587 22 c 0,8,9
 508 -20 508 -20 422 -20 c 0,10,11
 263 -20 263 -20 161 101 c 0,12,13
 64 215 64 215 64 377 c 0,14,15
 64 595 64 595 184 756 c 1,16,17
 301 905 301 905 490 962 c 1,18,-1
 424 1041 l 1,19,-1
 515 1131 l 1,20,21
 580 1054 580 1054 596 1041 c 0,22,23
 644 1000 644 1000 707 1000 c 0,24,25
 801 1000 801 1000 923 1126 c 0,26,27
 978 1183 978 1183 1090 1333 c 1,28,-1
 1198 1237 l 1,29,30
 1084 1091 1084 1091 1081 1088 c 0,31,32
 1011 1003 1011 1003 949 953 c 1,33,34
 1128 893 1128 893 1243 746 c 1,35,36
 1350 587 1350 587 1350 377 c 0,0,1
794 -158 m 0,37,38
 794 -193 794 -193 769.5 -217.5 c 128,-1,39
 745 -242 745 -242 710 -242 c 0,40,41
 676 -242 676 -242 651 -217 c 128,-1,42
 626 -192 626 -192 626 -158 c 0,43,44
 626 -84 626 -84 710 0 c 1,45,46
 794 -84 794 -84 794 -158 c 0,37,38
1190 377 m 0,47,48
 1190 609 1190 609 1034 736 c 1,49,50
 930 840 930 840 707 840 c 256,51,52
 484 840 484 840 380 736 c 1,53,54
 224 609 224 609 224 377 c 0,55,56
 224 285 224 285 277 232.5 c 128,-1,57
 330 180 330 180 422 180 c 256,58,59
 514 180 514 180 569 226 c 0,60,61
 627 276 627 276 627 367 c 1,62,-1
 787 367 l 1,63,64
 787 276 787 276 845 226 c 0,65,66
 900 180 900 180 992 180 c 256,67,68
 1084 180 1084 180 1137 232.5 c 128,-1,69
 1190 285 1190 285 1190 377 c 0,47,48
EndSplineSet
Substitution2: "Single Substitution lookup 163 subtable" glyph325
Substitution2: "Single Substitution lookup 92 subtable" glyph305
EndChar

StartChar: uni0C28
Encoding: 3112 3112 247
Width: 1414
GlyphClass: 2
Flags: W
AnchorPoint: "Anchor-18" 902 -15 basechar 0
AnchorPoint: "Anchor-14" 707 91 basechar 0
AnchorPoint: "Anchor-7" 707 91 basechar 0
LayerCount: 2
Fore
SplineSet
1350 425 m 0,0,1
 1350 328 1350 328 1323 246.5 c 128,-1,2
 1296 165 1296 165 1245.5 105.5 c 128,-1,3
 1195 46 1195 46 1122.5 13 c 128,-1,4
 1050 -20 1050 -20 960 -20 c 0,5,6
 873 -20 873 -20 814.5 1 c 128,-1,7
 756 22 756 22 715.5 58 c 128,-1,8
 675 94 675 94 646.5 141 c 128,-1,9
 618 188 618 188 593 239 c 0,10,11
 577 270 577 270 559.5 302 c 128,-1,12
 542 334 542 334 518 360 c 128,-1,13
 494 386 494 386 461.5 402 c 128,-1,14
 429 418 429 418 384 418 c 0,15,16
 335 418 335 418 305 402 c 128,-1,17
 275 386 275 386 258 362 c 128,-1,18
 241 338 241 338 235 311.5 c 128,-1,19
 229 285 229 285 229 264 c 0,20,21
 229 247 229 247 239 224 c 128,-1,22
 249 201 249 201 265.5 178 c 128,-1,23
 282 155 282 155 303 133.5 c 128,-1,24
 324 112 324 112 347 97 c 1,25,-1
 251 -37 l 1,26,27
 208 -4 208 -4 174.5 34.5 c 128,-1,28
 141 73 141 73 117.5 113 c 128,-1,29
 94 153 94 153 81.5 192 c 128,-1,30
 69 231 69 231 69 264 c 0,31,32
 69 318 69 318 85 375.5 c 128,-1,33
 101 433 101 433 137.5 480 c 128,-1,34
 174 527 174 527 234.5 557.5 c 128,-1,35
 295 588 295 588 384 588 c 0,36,37
 459 588 459 588 515 565 c 128,-1,38
 571 542 571 542 611.5 508 c 128,-1,39
 652 474 652 474 678 434 c 128,-1,40
 704 394 704 394 720 360 c 0,41,42
 738 321 738 321 760 286 c 128,-1,43
 782 251 782 251 810.5 225.5 c 128,-1,44
 839 200 839 200 876 185 c 128,-1,45
 913 170 913 170 960 170 c 0,46,47
 1068 170 1068 170 1129 232 c 128,-1,48
 1190 294 1190 294 1190 425 c 0,49,50
 1190 534 1190 534 1155.5 612.5 c 128,-1,51
 1121 691 1121 691 1059.5 741.5 c 128,-1,52
 998 792 998 792 912.5 816 c 128,-1,53
 827 840 827 840 724 840 c 2,54,-1
 526 840 l 2,55,56
 468 840 468 840 428.5 854.5 c 128,-1,57
 389 869 389 869 357 895 c 128,-1,58
 325 921 325 921 295 956.5 c 128,-1,59
 265 992 265 992 226 1034 c 1,60,-1
 334 1131 l 1,61,62
 364 1100 364 1100 383.5 1076 c 128,-1,63
 403 1052 403 1052 421.5 1035 c 128,-1,64
 440 1018 440 1018 463.5 1009 c 128,-1,65
 487 1000 487 1000 526 1000 c 0,66,67
 620 1000 620 1000 743 1126 c 0,68,69
 771 1155 771 1155 812.5 1206.5 c 128,-1,70
 854 1258 854 1258 909 1333 c 1,71,-1
 1017 1237 l 1,72,73
 985 1195 985 1195 934.5 1135 c 128,-1,74
 884 1075 884 1075 815 996 c 1,75,76
 936 990 936 990 1034.5 946 c 128,-1,77
 1133 902 1133 902 1203 827 c 128,-1,78
 1273 752 1273 752 1311.5 649.5 c 128,-1,79
 1350 547 1350 547 1350 425 c 0,0,1
EndSplineSet
Substitution2: "Single Substitution lookup 92 subtable" glyph306
EndChar

